<svg height="92pt" preserveAspectRatio="xMidYMid meet" viewBox="0 0 92 92" width="92pt" xmlns="http://www.w3.org/2000/svg"><g transform="matrix(.1 0 0 -.1 0 92)"><path d="m328 901c-220-70-354-280-321-506 46-318 391-491 676-337 52 28 53 29 32 56-14 19-16 19-68-7-78-38-139-51-215-44-88 8-146 29-207 75-267 202-195 612 124 706 97 29 230 13 309-36l35-21 19 23c19 23 19 23-9 42-94 62-263 84-375 49z"/><path d="m314 642c-19-18-18-39 4-50 9-5 81-9 160-8 115 1 145 4 152 16 12 19 12 21 1 39-13 21-297 24-317 3z"/><path d="m309 514c-9-11-10-20-2-32 9-14 33-17 161-20 144-2 152-2 162 18 23 43 1 50-160 50-122 0-150-3-161-16z"/><path d="m316 398c-19-11-21-32-3-50 20-20 305-18 317 2 13 21 12 26-6 45-13 13-39 15-154 14-76-1-145-6-154-11z"/><path d="m314 273c-33-34-7-63 56-63 49 0 70 13 70 42 0 22-11 27-69 31-27 2-48-2-57-10z"/></g></svg>