<svg viewBox="0 0 466 343" fill="none" xmlns="http://www.w3.org/2000/svg">
	<path d="M85.9276 94.467C83.3993 92.7491 80.7761 91.5595 78.103 90.9288C76.0489 90.4554 73.9845 90.3372 72.0007 90.5373C64.9523 81.7293 52.8641 76.8421 41.7548 79.1089C27.7582 81.983 16.8879 95.9408 17.507 110.229L18.226 110.19C17.6118 96.2351 28.2299 82.6 41.8855 79.7906C52.6159 77.5957 64.2447 82.2366 71.1753 90.6352C67.8196 91.1548 64.7365 92.5842 62.5322 94.8084C58.3831 98.9721 57.6919 105.914 60.9782 110.255C62.6924 112.54 65.6921 113.952 68.8238 114.005C71.6758 114.032 74.2043 112.885 75.7485 110.904C79.0891 106.619 77.3146 100.538 76.4033 98.1403C75.4549 95.6513 74.1422 93.31 72.5401 91.2003C74.3192 91.0587 76.1716 91.1975 77.9765 91.6005C82.7262 92.7199 87.3779 95.6831 91.4269 100.213C95.0712 104.271 97.8619 109.098 100.578 113.744L101.179 113.395C98.4551 108.711 95.6418 103.868 91.9452 99.7419C90.0174 97.6744 88.0043 95.8782 85.9276 94.467ZM63.4258 111.654C62.6809 111.148 62.0351 110.545 61.511 109.859C58.4343 105.792 59.107 99.2664 63.0273 95.3425C65.2162 93.1408 68.3219 91.7267 71.6768 91.3054C73.3466 93.4611 74.7271 95.8484 75.69 98.4132C76.5642 100.72 78.2579 106.482 75.139 110.49C73.7399 112.306 71.4016 113.319 68.7689 113.309C66.8399 113.283 64.9382 112.682 63.4258 111.654Z" fill="#FE7EB2" />
	<path d="M156.158 218.805C150.064 214.664 142.017 213.346 135.021 215.872L135.266 216.532C144.917 213.011 156.664 217.139 162.018 225.916L162.633 225.544C160.998 222.851 158.754 220.569 156.158 218.805Z" fill="#FE7EB2" />
	<path d="M275.187 288.414C277.145 289.349 279.121 290.192 281.023 290.9L281.371 290.098C278.728 289.103 276.051 287.892 273.281 286.469L272.864 287.238C273.657 287.65 274.426 288.051 275.187 288.414ZM269.582 285.471L270.022 284.713C267.56 283.303 265.037 281.731 262.477 280.008L261.99 280.744C264.56 282.506 267.106 284.089 269.582 285.471ZM284.577 292.129C287.569 293.057 290.554 293.714 293.414 294.11L293.61 293.269C290.797 292.894 287.834 292.248 284.879 291.305L284.577 292.129ZM258.985 278.541L259.518 277.827C257.204 275.954 255.132 273.829 253.325 271.463L252.705 272.069C254.521 274.473 256.649 276.657 258.985 278.541ZM297.228 294.429C300.412 294.579 303.562 294.346 306.589 293.788L306.561 292.939C303.593 293.492 300.503 293.721 297.379 293.565L297.228 294.429ZM250.52 268.922L251.197 268.376C249.637 265.861 248.309 263.056 247.232 260.037L246.505 260.458C247.591 263.515 248.951 266.369 250.52 268.922ZM310.474 292.836C313.572 291.911 316.627 290.564 319.541 288.815L319.256 288.078C316.392 289.783 313.411 291.099 310.372 292.019L310.474 292.836ZM245.253 256.653L246 256.308C245.177 253.41 244.526 250.227 244.09 246.846L243.316 247.077C243.775 250.469 244.421 253.717 245.253 256.653ZM323.122 286.483C325.774 284.576 328.404 282.258 330.945 279.663L330.459 279.097C327.955 281.676 325.375 283.951 322.774 285.816L323.122 286.483ZM242.866 242.988L243.65 242.794C243.373 239.722 243.231 236.381 243.231 232.874L242.451 233.003C242.451 236.51 242.579 239.878 242.866 242.988ZM333.886 276.391C336.042 273.88 338.182 271.06 340.279 267.987L339.666 267.56C337.582 270.607 335.456 273.399 333.35 275.868L333.886 276.391ZM242.496 228.782L243.263 228.681C243.347 225.515 243.537 222.198 243.793 218.579L243.017 218.643C242.761 222.262 242.571 225.578 242.496 228.782ZM342.689 264.294C344.462 261.466 346.197 258.486 348.003 255.14L347.348 254.794C345.556 258.114 343.835 261.066 342.076 263.867L342.689 264.294ZM243.407 214.42L244.169 214.383C244.465 211.251 244.82 207.947 245.282 204.259L244.511 204.258C244.048 207.946 243.694 211.25 243.407 214.42ZM350.067 251.282C350.325 250.771 350.57 250.287 350.829 249.775C352.066 247.327 353.326 244.722 354.712 241.809L354.031 241.517C352.667 244.44 351.385 247.035 350.161 249.456C349.916 249.941 349.657 250.452 349.412 250.936L350.067 251.282ZM245.057 200.01L245.828 200.011C246.218 197.09 246.633 193.949 247.217 189.852L246.445 189.851C245.862 193.948 245.423 197.078 245.057 200.01ZM247.051 185.597L247.823 185.598L248.047 184.135C248.46 181.226 248.895 178.327 249.294 175.445L248.522 175.444C248.124 178.326 247.711 181.236 247.276 184.134L247.051 185.597ZM355.864 237.55L356.546 237.842C357.569 235.591 358.579 233.368 359.561 231.198L360.888 228.291L360.206 227.999L358.866 230.933C357.897 233.076 356.888 235.299 355.864 237.55ZM249.078 171.233L249.849 171.234C250.353 167.466 250.781 164.13 251.132 161.058L250.347 161.084C250.009 164.129 249.595 167.438 249.078 171.233ZM362.03 223.993L362.712 224.285C364.089 221.335 365.176 219.015 366.196 216.997L366.427 216.539C366.713 215.974 366.999 215.409 367.307 214.855L366.639 214.536C366.34 215.128 366.054 215.693 365.746 216.247L365.514 216.705C364.531 218.707 363.407 221.043 362.03 223.993ZM250.833 156.84L251.619 156.814C251.985 153.148 252.257 149.837 252.461 146.661L251.685 146.725C251.458 149.89 251.186 153.201 250.833 156.84ZM369.385 210.97C371.319 207.484 373.188 204.636 375.078 202.198L374.528 201.702C372.624 204.166 370.728 207.069 368.767 210.609L369.385 210.97ZM251.859 142.533L252.649 142.442C252.714 140.502 252.775 138.628 252.759 136.85C252.767 135.418 252.813 133.97 252.94 132.36L252.164 132.424C252.037 134.033 251.964 135.535 251.979 136.978C251.972 138.745 251.947 140.604 251.859 142.533ZM443.483 233.889L444.201 233.43C442.793 230.219 441.494 227.528 440.149 224.982L439.464 225.49C440.785 228.025 442.075 230.678 443.483 233.889ZM377.863 198.951C380.421 196.265 383.123 194.315 385.885 193.095L385.687 192.299C382.815 193.567 380.013 195.603 377.367 198.348L377.863 198.951ZM437.604 222.097L438.266 221.578C436.686 218.82 435.002 216.212 433.254 213.841L432.611 214.436C434.335 216.795 436.01 219.365 437.604 222.097ZM252.614 128.196L253.386 128.197C253.6 126.529 253.827 124.834 254.064 123.177C254.315 121.493 254.556 119.771 254.774 118.038L254.002 118.037C253.798 119.743 253.557 121.465 253.306 123.149C253.055 124.833 252.818 126.49 252.614 128.196ZM430.308 211.466L430.929 210.86C428.97 208.455 426.879 206.255 424.703 204.28L424.161 204.957C426.305 206.882 428.372 209.072 430.308 211.466ZM389.653 191.921C391.492 191.564 393.444 191.493 395.388 191.72C396.496 191.848 397.59 192.003 398.657 192.212L398.877 191.382C397.796 191.2 396.693 191.007 395.585 190.879C393.558 190.646 391.56 190.694 389.624 191.073L389.653 191.921ZM421.347 202.545L421.88 201.83C419.52 199.935 417.015 198.272 414.434 196.872L414.016 197.641C416.552 199.019 419.034 200.672 421.347 202.545ZM402.31 193.021C405.194 193.764 408.017 194.744 410.693 195.955L411.088 195.174C408.388 193.952 405.52 192.95 402.612 192.196L402.31 193.021ZM254.416 113.825L255.191 113.761C255.415 110.829 255.43 108.197 255.194 105.779C255.143 105.087 255.033 104.4 254.877 103.69L254.121 103.998C254.268 104.669 254.355 105.345 254.409 105.973C254.636 108.352 254.626 110.919 254.416 113.825ZM252.971 100.275L253.675 99.8435C252.574 97.2133 250.939 94.5624 248.768 91.9558L248.17 92.5723C250.286 95.1191 251.902 97.6941 252.971 100.275ZM245.676 89.8116L246.241 89.1462C244.179 87.0592 241.856 85.1484 239.345 83.382L238.859 84.1184C241.323 85.8628 243.623 87.7626 245.676 89.8116ZM227.71 78.3945C230.278 79.2535 233.034 80.5356 235.722 82.1197L236.163 81.3614C233.428 79.7552 230.627 78.4512 228.035 77.5812L227.71 78.3945Z" fill="#3DB5C9" />
	<rect width="28" height="45" transform="matrix(-1 0 0 1 258.177 95.7102)" fill="#F3CF14" />
	<path d="M257.02 107.789C251.357 107.557 245.593 107.771 239.885 108.451C212.695 88.7225 185.564 69.0941 158.374 49.3659C161.35 51.5211 185.714 34.5099 223.06 64.1778C225.631 29.928 240.167 16.5157 255.632 14.3382C268.34 12.6059 282.261 16.9159 289.625 33.1706C293.442 41.5919 293.237 52.8538 291.337 63.4226C288.308 63.6466 285.169 65.7831 283.914 69.9238C279.35 84.8059 269.398 99.3105 257.02 107.789Z" fill="#F3CF14" />
	<path d="M274.413 53.9548C274.368 50.354 272.564 48.2697 270.222 47.5155C270.662 46.9612 271.046 46.3114 271.41 45.7468C277.22 36.447 263.932 30.2722 258.141 39.4869C254.192 45.7934 243.423 44.4297 238.278 43.5609C235.553 43.1059 232.809 42.3855 230.124 41.4098C236.067 26.692 246.139 20.0708 256.516 18.6639C268.916 17.0034 282.516 21.116 289.746 36.6448C294.686 47.3934 292.84 62.7511 289.136 75.228C285.508 87.7152 277.823 99.0419 268.601 108.145C265.367 111.304 261.753 114.411 257.65 115.174C252.308 116.207 247.666 113.126 243.482 110.108C240.704 108.155 237.87 106.107 235.093 104.155C253.589 115.065 274.563 71.2473 274.413 53.9548Z" fill="#DD9903" />
	<path d="M290.472 69.7719C295.267 76.4191 298.966 84.065 301.322 92.4114C302.377 96.0829 303.084 100.589 300.714 104.062C298.535 107.384 294.28 108.397 291.164 107.182C288.049 105.966 285.938 102.77 284.843 99.2693C286.788 105.266 281.831 113.153 275.83 114.9C269.829 116.647 263.719 112.997 261.14 107.356C258.562 101.714 258.939 94.531 260.826 87.9935C262.713 81.4559 266.092 75.2965 269.432 69.3082C267.637 72.3296 263.765 73.3938 261.051 72.1447C258.338 70.8956 256.783 67.6858 256.664 64.4056C256.544 61.1255 257.499 57.6376 259.006 54.4892C261.191 49.7563 265.062 44.8985 269.716 44.5575C273.969 44.2504 277.188 47.7735 279.547 51.2683C283.522 57.0108 286.845 63.1943 289.591 69.8292C288.165 67.7836 286.834 65.6629 285.407 63.6173" fill="#FE7EB2" />
	<path d="M273.593 113.392C268.517 113.5 263.897 110.227 261.678 105.426C259.365 100.346 259.471 94.0057 260.916 88.0228C269.31 91.0119 273.144 102.916 273.593 113.392Z" fill="#FFB0D8" />
	<path d="M238.868 29.8594C238.326 29.4219 237.764 29.0724 237.163 28.899C242.586 23.0171 249.12 20.0109 255.738 19.104C268.389 17.3918 282.247 21.655 289.574 37.7301C294.236 47.9018 292.921 62.1548 289.732 74.4257C272.752 59.5667 256.32 44.0569 238.868 29.8594Z" fill="#0000EF" />
	<path d="M234.975 28.3616C227.819 21.9847 222.26 9.61481 222.26 9.61481C222.26 9.61481 218.768 -2.65302 242.292 24.4361C251.799 35.3399 236.587 29.406 236.587 29.406" fill="#0000EF" />
	<path d="M235.403 66.1275C238.422 66.5402 241.822 64.9344 244.238 62.7438C247.375 59.8416 249.472 55.8969 251.315 52.3676L249.616 51.4152C247.91 54.6931 245.93 58.4738 243.105 61.0585C240.69 63.2491 236.902 64.802 234.162 63.1669C231.768 61.7594 231.014 58.4153 231.147 55.7326C231.322 52.5155 232.446 49.338 233.647 46.1712L231.791 45.5574C230.667 48.7348 229.387 52.2508 229.209 55.8278C228.99 59.9391 230.499 63.4764 233.104 65.003C233.719 65.8073 234.551 66.011 235.403 66.1275Z" fill="#00007F" />
	<path d="M251.993 25.6545L257.064 34.4449L254.963 35.653L249.892 26.8626L251.993 25.6545Z" fill="#00007F" />
	<path d="M227.439 34.7241C226.331 33.929 225.579 32.2657 226.018 30.6753C226.458 29.0848 228.398 27.9768 229.486 28.861C227.298 28.9257 225.033 28.9797 222.907 28.411C220.782 27.8423 218.896 26.5727 217.932 24.4216C216.969 22.2705 217.319 19.2917 219.009 17.5072C221.152 15.143 224.47 15.4178 227.102 16.2399C231.917 17.7305 241.892 21.6766 242.242 28.3295C242.704 35.9151 231.386 37.5626 227.439 34.7241Z" fill="#FE7EB2" />
	<path d="M215.894 76.717C220.285 77.3668 224.852 77.123 229.433 75.9619L229.261 73.4842C217.668 76.4686 205.783 72.9728 197.58 64.0959L196.114 66.1268C201.45 72.0251 208.389 75.6064 215.894 76.717Z" fill="#00007F" />
	<path d="M231.117 71.6141L231.259 78.8473L228.603 79.1903L228.462 71.9572L231.117 71.6141Z" fill="#00007F" />
	<path d="M331.762 311.946C335.828 312.218 334.109 295.327 331.762 295.327C329.415 295.327 293.608 294.291 291.861 293.828C290.115 293.365 294.781 271.27 291.861 269.962C288.941 268.655 254.472 266.966 253.844 268.001C253.216 269.036 253.216 288.625 252.043 289.823C250.842 290.995 214.326 289.823 212.361 289.823C210.396 289.823 214.244 268.137 210.559 268.001C206.875 267.865 191.81 266.366 189.709 266.339C187.607 266.285 191.81 246.233 189.709 247.65C187.607 249.039 156.576 246.642 154.611 247.65C152.646 248.658 79.996 243.999 79.2045 246.124C78.4131 248.249 77.2396 308.921 76.4481 311.918C75.6839 314.942 327.832 311.673 331.762 311.946Z" fill="#D2F1FC" />
	<path d="M251.925 291.37L291.533 292.646L291.506 293.49L251.898 292.214L251.925 291.37Z" fill="white" />
	<path d="M92.8602 289.79L209.548 291.496L209.535 292.341L92.8478 290.634L92.8602 289.79Z" fill="white" />
	<path d="M188.94 267.388L189.784 267.444L188.446 287.669L187.602 287.613L188.94 267.388Z" fill="white" />
	<path d="M186.216 266.033L186.222 266.878L159.203 267.068L159.197 266.224L186.216 266.033Z" fill="white" />
	<path d="M170.099 294.328L170.933 294.469L168.487 308.866L167.653 308.725L170.099 294.328Z" fill="white" />
	<path d="M120.492 293.769L121.335 293.834L119.975 311.6L119.131 311.535L120.492 293.769Z" fill="white" />
	<path d="M274.604 295.023L274.662 310.035L273.816 310.038L273.758 295.026L274.604 295.023Z" fill="white" />
	<path d="M308.246 296.218L309.091 296.239L308.744 310.347L307.898 310.326L308.246 296.218Z" fill="white" />
	<path d="M218.31 302.955C218.528 298.896 218.801 294.182 219.101 289.088C220.493 289.224 221.912 289.36 223.304 289.442C227.234 289.714 231.492 290.014 235.585 289.578C234.903 296.035 234.303 300.803 233.948 303.609C228.708 303.718 223.468 303.745 218.31 302.955Z" fill="#FFD939" />
	<path d="M138.291 262.089C139.082 259.501 139.928 255.36 141.047 250.374C146.314 252.009 151.527 253.834 156.576 255.986C155.157 259.964 153.874 263.805 152.755 267.265C147.952 265.522 143.149 263.751 138.291 262.089Z" fill="#F4A914" />
	<path d="M234.466 299.577C233.92 304.045 233.566 306.469 233.566 306.469C233.566 306.469 257.528 313.444 260.448 316.931C263.368 320.418 219.483 318.13 218.037 316.931C217.627 316.577 217.982 308.976 218.583 298.214C223.85 298.977 229.144 299.495 234.466 299.577Z" fill="#0000D8" />
	<path d="M140.229 254.052C143.722 238.305 150.054 210.026 170.031 200.19C198.687 186.078 240.58 197.766 240.58 197.766C240.362 239.967 237.196 274.948 235.204 293.066C229.773 293.011 224.342 292.466 218.938 291.676C220.521 264.759 222.922 225.527 220.057 222.285C215.663 217.327 186.188 209.726 172.706 224.193C165.61 231.794 159.524 247.296 155.103 260.236C150.272 257.866 145.305 255.877 140.229 254.052Z" fill="#53CAF1" />
	<path d="M234.084 253.044C230.018 249.448 225.788 246.342 221.312 243.699C221.585 232.284 221.339 223.729 220.084 222.285C215.908 217.545 188.971 210.462 174.779 222.285C169.021 218.144 163.563 212.668 161.898 205.803C164.327 203.569 167.029 201.662 170.058 200.163C198.714 186.051 240.607 197.739 240.607 197.739C240.498 220.024 239.543 240.294 238.396 257.131C236.977 255.714 235.531 254.352 234.084 253.044Z" fill="#3DB5C9" />
	<path d="M136.407 264.923C137.253 265.195 137.963 263.479 138.755 260.4C143.612 262.171 148.388 264.133 153.028 266.448C150.217 275.057 148.361 281.378 147.733 281.269C146.069 280.969 113.892 267.838 110.944 266.666C108.024 265.495 132.013 263.451 136.407 264.923Z" fill="#0000D8" />
	<path d="M152.864 256.477C153.956 256.749 155.102 256.831 156.085 257.403C157.067 257.948 157.777 259.201 157.286 260.209C156.931 260.918 156.085 261.272 155.266 261.272C154.474 261.245 153.71 260.945 152.973 260.645C150.544 259.637 143.066 257.703 140.638 256.668C139.955 256.395 139.273 256.096 138.727 255.605C138.181 255.115 137.799 254.407 137.908 253.671C138.072 252.772 138.973 252.145 139.901 252.009C143.067 251.573 149.971 255.741 152.864 256.477Z" fill="#3DB5C9" />
	<path d="M235.885 292.33C236.786 292.466 237.878 292.793 238.041 293.692C238.151 294.346 237.605 294.973 236.977 295.191C236.349 295.409 235.667 295.354 235.012 295.273C229.445 294.619 223.904 293.992 218.337 293.338C217.436 293.229 216.426 293.066 215.881 292.357C212.769 288.298 221.53 289.333 223.14 289.878C227.289 291.24 231.573 291.704 235.885 292.33Z" fill="#3DB5C9" />
	<path d="M234.324 306.132L234.475 306.963L229.293 307.904L229.142 307.073L234.324 306.132Z" fill="#53CAF1" />
	<path d="M240.309 308.283L240.691 309.037L234.237 312.294L233.855 311.541L240.309 308.283Z" fill="#53CAF1" />
	<path d="M131.805 267.201L133.635 270.549L132.892 270.953L131.062 267.605L131.805 267.201Z" fill="#53CAF1" />
	<path d="M277.588 140.172C328.405 165.536 339.786 169.677 337.357 172.674C334.928 175.671 298.739 230.867 298.739 230.867L226.771 193.107L259.221 136.003L277.588 140.172Z" fill="#03036D" />
	<path d="M290.127 159.807L331.421 181.28L331.03 182.029L289.737 160.556L290.127 159.807Z" fill="#0000EF" />
	<path d="M325.048 191.036L325.403 190.274C321.91 188.612 313.913 184.525 306.135 180.575C298.357 176.624 290.306 172.538 286.813 170.849L286.458 171.611C289.951 173.273 297.975 177.36 305.753 181.31C313.531 185.288 321.555 189.375 325.048 191.036Z" fill="#0000EF" />
	<path d="M283.892 223.593C288.914 216.455 321.036 162.757 321.364 162.212L320.654 161.776C320.327 162.321 288.232 216.019 283.21 223.103L283.892 223.593Z" fill="#0000EF" />
	<path d="M305.399 220.269L305.699 219.479C304.498 219.043 300.322 217 296.283 215.038C292.053 212.968 288.041 211.033 286.786 210.57L286.485 211.36C287.686 211.796 291.862 213.84 295.901 215.801C300.159 217.872 304.143 219.806 305.399 220.269Z" fill="#0000EF" />
	<path d="M282.622 201.059L283.95 215.766L283.108 215.842L281.779 201.135L282.622 201.059Z" fill="white" />
	<path d="M172.704 109.495C220.847 91.7589 229.362 90.3422 229.362 90.3422L258.373 193.107C258.373 193.107 176.252 214.929 172.704 212.913C169.156 210.897 143.12 121.891 143.12 121.891C143.12 121.891 162.47 113.254 172.704 109.495Z" fill="#00007F" />
	<path d="M178.108 187.685C179.063 169.159 182.993 149.707 193.637 134.178C203.516 119.738 218.636 112.573 235.338 111.511L258.373 193.107C258.373 193.107 198.058 209.154 178.572 212.45C177.862 204.222 177.671 195.94 178.108 187.685Z" fill="#03036D" />
	<path d="M189.025 200.081L203.38 195.695L196.666 166.653L181.874 170.467L181.82 170.712C180.837 175.071 188.561 198.692 188.888 199.7L189.025 200.081ZM202.37 195.123L189.543 199.046C186.814 190.709 182.12 174.908 182.584 171.148L196.011 167.688L202.37 195.123Z" fill="#0000D8" />
	<path d="M153.464 117.368C163.671 148.726 174.069 180.057 184.494 211.333C177.944 212.668 173.468 213.376 172.704 212.94C169.156 210.924 143.12 121.918 143.12 121.918C143.12 121.918 147.65 119.875 153.464 117.368Z" fill="#0000D8" />
	<path d="M182.093 161.858L242.898 138.864L222.484 92.1674L221.72 92.4943L241.779 138.401L182.611 160.768L165.963 113.826L165.172 114.099L182.093 161.858Z" fill="#0000D8" />
	<path d="M197.359 184.943L197.568 185.761L190.4 187.582L190.192 186.764L197.359 184.943Z" fill="#0000D8" />
	<path d="M191.399 190.955C192.408 190.028 193.2 188.83 193.637 187.522L197.266 189.157L197.621 188.394L193.118 186.35L192.982 186.841C192.627 188.176 191.863 189.429 190.853 190.355L191.399 190.955Z" fill="#0000D8" />
	<path d="M191.426 183.789C192.927 183.789 194.401 182.972 195.138 181.692C196.038 180.084 195.656 177.905 194.264 176.733C193.446 176.025 192.163 175.698 190.826 175.834C189.598 175.97 188.533 176.515 187.933 177.305C187.169 178.34 186.978 179.648 187.441 180.929C187.933 182.318 189.079 183.381 190.471 183.708C190.798 183.762 191.099 183.789 191.426 183.789ZM191.426 176.651C192.327 176.651 193.173 176.924 193.691 177.387C194.783 178.313 195.083 180.03 194.374 181.31C193.664 182.563 192.081 183.244 190.662 182.89C189.57 182.618 188.642 181.773 188.233 180.656C187.878 179.648 188.015 178.64 188.615 177.823C189.079 177.223 189.898 176.788 190.908 176.679C191.099 176.651 191.262 176.651 191.426 176.651Z" fill="#0000D8" />
	<path d="M202.588 131.671C214.815 130.772 227.042 129.955 239.268 129.383C256.107 128.593 273.056 128.811 289.894 127.776C290.004 129.819 289.785 132.489 289.649 136.003C288.939 153.903 293.906 170.685 287.848 173.546C281.789 176.406 208.156 178.232 203.735 174.717C201.388 172.837 203.08 161.395 203.189 149.271C203.243 142.896 202.588 136.167 202.588 131.671Z" fill="#0000EF" />
	<path d="M236.731 156.382C246.556 160.142 257.854 166.462 263.449 175.943C239.569 177.033 206.655 177.033 203.762 174.717C201.552 172.946 202.916 162.73 203.189 151.451C214.488 150.497 225.896 152.241 236.731 156.382Z" fill="#0000D8" />
	<path d="M245.218 136.003C245.218 136.003 247.046 169.078 246.883 170.059C242.652 170.059 239.896 170.059 237.576 170.059L236.921 135.213L245.218 136.003Z" fill="#00007F" />
	<path d="M226.769 132.898C218.745 133.442 210.694 133.906 202.67 134.369C202.506 129.982 202.588 126.849 203.762 126.468C208.702 124.833 227.424 124.016 243.881 123.444C286.346 121.918 290.14 119.085 289.922 129.656C268.825 129.22 247.783 131.481 226.769 132.898Z" fill="#0000D8" />
	<path d="M279.469 170.059L269.671 171.257L268.689 158.48C268.689 158.48 278.65 159.379 279.251 159.379C279.824 159.406 279.742 167.498 279.469 170.059Z" fill="#00007F" />
	<path d="M262.221 153.603C262.221 153.603 262.712 169.078 262.712 171.257H252.86C252.86 171.257 251.659 154.203 251.522 153.603C251.359 153.004 262.221 153.603 262.221 153.603Z" fill="#00007F" />
	<path d="M230.153 153.794L230.644 153.113C230.18 152.758 229.743 152.404 229.307 152.05C228.215 151.151 227.069 150.225 225.732 149.734H226.359C226.277 146.002 226.223 140.199 226.359 139.518L226.441 139.027H206.436L207.665 150.497L217.626 150.307C218.308 150.307 218.991 150.279 219.673 150.252C221.01 150.225 222.375 150.17 223.739 150.198C225.759 150.225 227.233 151.424 228.816 152.704C229.225 153.085 229.662 153.44 230.153 153.794ZM225.459 139.872C225.349 141.888 225.486 148.508 225.486 149.68C224.94 149.489 224.34 149.38 223.685 149.38C222.32 149.353 220.928 149.407 219.591 149.435C218.909 149.462 218.226 149.462 217.571 149.489L208.374 149.653L207.337 139.872H225.459Z" fill="#53CAF1" />
	<path d="M213.614 146.138C215.798 145.839 218.008 145.839 220.192 146.084L220.301 145.239C218.036 144.967 215.743 144.994 213.505 145.294L213.614 146.138Z" fill="#53CAF1" />
	<path d="M366.694 205.258C350.947 200.817 310.146 190.873 310.146 190.873C310.146 190.873 326.821 244.871 329.441 245.47C332.061 246.042 340.767 234.491 344.261 231.031C344.261 231.031 357.388 245.225 359.408 246.124C361.427 247.023 367.268 242.283 368.141 239.585C369.014 236.888 353.867 222.64 351.821 220.596C351.821 220.569 368.032 205.639 366.694 205.258Z" fill="#53CAF1" />
	<path d="M333.344 212.369C340.74 212.45 348.737 213.785 355.723 216.918C353.485 219.016 351.821 220.569 351.821 220.569C353.867 222.612 369.014 236.861 368.141 239.558C367.268 242.255 361.427 247.023 359.408 246.097C357.361 245.171 344.261 231.004 344.261 231.004C340.767 234.464 332.061 246.042 329.441 245.443C328.022 245.116 322.427 228.988 317.651 214.357C322.782 212.859 328.295 212.314 333.344 212.369Z" fill="#39C2E2" />
	<path d="M233.291 177.551C253.023 182.482 274.693 189.048 274.147 190.274C273.601 191.499 257.417 219.343 257.417 219.343C257.417 219.343 202.015 200.245 199.832 199.564C197.648 198.883 212.167 159.134 213.259 158.234C214.596 157.117 216.179 157.308 218.99 155.891C225.977 157.799 236.894 164.8 236.866 165.509C236.866 166.598 233.291 177.551 233.291 177.551Z" fill="#FFB0D8" />
	<path d="M239.022 175.208C258.754 180.139 280.424 186.705 279.878 187.931C279.332 189.157 263.148 217 263.148 217C263.148 217 207.746 197.902 205.563 197.221C203.38 196.54 217.626 155.456 218.99 155.892C220.355 156.3 242.625 162.076 242.598 163.166C242.57 164.255 239.022 175.208 239.022 175.208Z" fill="#FE7EB2" />
	<path d="M253.951 193.624L254.115 192.807L215.278 184.307L224.394 170.276L223.684 169.813L213.914 184.879L253.951 193.624Z" fill="white" />
	<path d="M247.619 196.785L255.998 193.897L247.647 184.035L247.019 184.58L254.552 193.516L247.347 195.995L247.619 196.785Z" fill="white" />
	<path d="M269.672 216.073C265.551 205.203 267.652 199.482 264.077 200.19C259.028 201.171 266.397 216.646 258.4 210.951C258.4 210.951 248.848 195.749 245.218 195.995C241.616 196.24 248.957 209.562 248.957 209.562C248.957 209.562 243.799 198.092 240.606 197.793C237.413 197.493 238.396 202.451 238.396 202.451C238.396 202.451 238.477 198.092 235.366 199.155C232.255 200.217 233.183 214.384 240.606 221.223C248.03 228.061 279.115 221.059 279.115 221.059L269.672 216.073Z" fill="#FFD939" />
	<path d="M258.373 220.623C262.194 219.67 266.26 217.844 269.317 215.12C269.426 215.447 269.535 215.746 269.644 216.073L279.087 221.032C279.087 221.032 248.002 228.033 240.579 221.195C239.405 220.105 238.395 218.852 237.549 217.49C243.935 220.923 251.031 222.476 258.373 220.623Z" fill="#F4A914" />
	<path d="M251.414 214.657L252.014 214.085C249.094 210.979 246.965 207.165 245.928 203.051L245.109 203.269C246.201 207.519 248.384 211.442 251.414 214.657Z" fill="#0000EF" />
	<path d="M246.556 218.417L247.156 217.817C243.035 213.703 240.06 208.309 238.805 202.615L237.986 202.806C239.296 208.636 242.325 214.166 246.556 218.417Z" fill="#0000EF" />
	<path d="M152.482 153.113C160.124 158.779 167.029 158.725 169.185 165.209C171.341 171.693 161.134 160.986 159.633 163.438C158.132 165.89 168.967 172.02 171.723 176.624C174.48 181.256 168.557 179.512 163.372 176.161C163.372 176.161 168.53 181.692 166.538 183.408C164.573 185.124 163.808 184.58 163.808 184.58C163.808 184.58 165.61 188.584 162.389 189.32C159.169 190.056 149.781 185.124 148.034 171.203C146.314 157.308 152.482 153.113 152.482 153.113Z" fill="#FFD939" />
	<path d="M163.153 176.542L163.617 175.834C160.97 174.09 157.832 171.775 154.093 166.517L153.41 167.007C157.204 172.374 160.424 174.744 163.153 176.542Z" fill="#0000EF" />
	<path d="M163.617 185.996L164.081 185.288C158.841 181.746 154.556 176.897 151.718 171.257L150.954 171.639C153.902 177.414 158.268 182.373 163.617 185.996Z" fill="#0000EF" />
	<path d="M298.109 193.952L287.575 192.671L288.366 195.886H299.283L298.109 193.952Z" fill="#39C2E2" />
	<path d="M295.926 186.732L279.769 176.733V180.847C279.769 180.847 294.971 188.503 296.062 189.511C297.154 190.546 295.926 186.732 295.926 186.732Z" fill="#39C2E2" />
	<path d="M289.894 236.67C296.498 248.739 299.309 252.117 297.071 254.025C294.833 255.932 271.172 273.559 269.671 273.885C268.169 274.212 256.762 259.092 256.434 257.839C256.107 256.585 287.847 232.91 289.894 236.67Z" fill="#AEE6F4" />
	<path d="M258.113 236.337L258.952 236.439L257.856 245.445L257.017 245.343L258.113 236.337Z" fill="#53CAF1" />
	<path d="M276.156 230.372L276.984 230.542L272.32 253.283L271.491 253.113L276.156 230.372Z" fill="#53CAF1" />
	<path d="M280.161 231.25L280.994 231.4L279.887 237.54L279.055 237.391L280.161 231.25Z" fill="#53CAF1" />
	<path d="M157.613 237.842C157.586 232.039 151.363 205.203 151.363 205.203C151.363 205.203 106.005 210.516 102.621 214.385C99.2364 218.253 117.358 256.014 117.358 256.014L157.613 237.842Z" fill="#E56EA4" />
	<path d="M145.96 251.627C145.96 251.627 151.909 230.486 151.309 228.415C150.709 226.318 122.926 189.565 121.097 188.176C119.241 186.786 136.135 177.196 137.69 174.799C139.219 172.401 107.287 163.656 107.287 163.656C107.287 163.656 99.8096 169.868 95.1154 174.799C90.4212 179.757 86.7368 184.28 86.7368 184.28L111.572 229.423L104.586 253.916L145.96 251.627Z" fill="#D2F1FC" />
	<path d="M121.315 187.168C109.798 186.868 98.4175 185.424 87.0096 183.898C87.9648 182.727 91.1852 178.913 95.0879 174.799C99.7821 169.841 107.26 163.656 107.26 163.656C107.26 163.656 139.191 172.401 137.663 174.799C136.353 176.842 123.58 184.28 121.315 187.168Z" fill="#AEE6F4" />
	<path d="M111.299 228.96C114.819 229.015 118.367 229.096 121.888 229.178C127.483 229.314 133.05 229.45 138.645 229.614C142.93 229.723 147.105 230.077 151.308 229.614C150.763 234.627 145.986 251.6 145.986 251.6L104.558 253.861L111.544 229.369L111.299 228.96Z" fill="#AEE6F4" />
	<path d="M157.613 237.842C158.541 239.613 152.755 246.233 149.234 252.935C145.25 260.536 143.367 268.274 143.148 269.227C142.712 271.025 96.9437 253.426 93.0137 253.535C89.0837 253.644 101.72 215.992 102.593 214.385C103.466 212.777 119.159 243.264 120.032 245.416C120.906 247.541 155.948 234.627 157.613 237.842Z" fill="#FE7EB2" />
	<path d="M103.78 196.096L121.35 197.851L121.265 198.692L103.696 196.936L103.78 196.096Z" fill="white" />
	<path d="M112.568 208.791L130.137 210.547L130.053 211.387L112.484 209.632L112.568 208.791Z" fill="white" />
	<path d="M124.943 218.292L136.647 219.462L136.563 220.302L124.859 219.133L124.943 218.292Z" fill="white" />
	<path d="M102.664 178.953L120.815 182.94L120.633 183.765L102.483 179.778L102.664 178.953Z" fill="white" />
	<path d="M106.245 174.506L126.27 179.243L126.075 180.065L106.05 175.328L106.245 174.506Z" fill="white" />
	<path d="M132.571 242.43L141.579 266.815L140.785 267.107L131.777 242.722L132.571 242.43Z" fill="white" />
	<path d="M114.773 239.325L115.184 240.063L92.2591 252.782L91.8481 252.044L114.773 239.325Z" fill="white" />
	<path d="M92.6857 258.139C90.8845 257.73 89.3561 256.286 88.8103 254.488C88.2918 252.717 88.783 250.674 90.0384 249.312C92.4401 246.723 98.0895 246.969 99.5632 250.538C101.283 254.733 96.8614 259.092 92.6857 258.139Z" fill="#53CAF1" />
	<path d="M80.4048 221.114L81.2508 221.032C80.6504 214.167 84.4167 207.029 90.3936 203.623L89.9842 202.888C83.7071 206.457 79.7498 213.949 80.4048 221.114Z" fill="#53CAF1" />
</svg>