<svg viewBox="0 0 383 265" fill="none" xmlns="http://www.w3.org/2000/svg">
	<path d="M325.396 17.8994C324.686 17.1366 324.004 16.3193 323.294 15.5292C321.493 13.4314 319.692 11.1974 316.935 10.4618C257.821 14.0308 202.938 17.3545 124.556 22.1223C130.424 86.0641 136.974 194.932 138.338 237.977L201.191 230.512L282.493 220.868L345.837 211.387L325.396 17.8994Z" fill="#D2F1FC" />
	<path d="M267.725 61.824L128.578 74.6247L128.661 75.52L267.808 62.7192L267.725 61.824Z" fill="white" />
	<path d="M201.91 27.8091L201.015 27.9157L210.676 108.724L211.57 108.618L201.91 27.8091Z" fill="white" />
	<path d="M253.127 17.082C251.735 11.8512 251.462 1.93433 251.462 1.93433L279.6 0L284.212 18.635L253.127 17.082Z" fill="#D2F1FC" />
	<path d="M208.641 29.7778C208.014 19.0709 207.413 10.7887 207.986 10.5162C208.56 10.2438 245.458 7.49213 245.458 7.49213L247.45 27.0534L208.641 29.7778Z" fill="#D2F1FC" />
	<path d="M325.123 15.3111C324.795 12.3415 322.202 10.1347 319.228 10.3254C283.012 12.4505 246.768 14.2214 210.498 16.9185C181.841 18.6349 153.212 20.3785 124.556 22.1221C124.993 26.9988 125.429 31.9028 125.839 36.7795C143.879 35.5535 322.967 25.3097 325.969 23.3754L325.123 15.3111Z" fill="#3CA184" />
	<path d="M175.046 33.8372C179.276 33.1016 183.452 32.1753 187.573 30.9765C197.971 27.9524 206.677 22.8033 214.646 16.6189C213.254 16.7279 211.862 16.8096 210.47 16.9186L124.556 22.1222C124.993 26.9989 125.429 31.9028 125.839 36.7795C131.133 36.4253 150.401 35.3083 175.046 33.8372Z" fill="#2C8469" />
	<path d="M345.864 211.414L282.52 220.895L201.218 230.539C201.191 230.403 201.191 230.24 201.163 230.104C201.082 229.313 200.781 228.687 200.372 228.142C200.372 228.006 200.345 227.842 200.345 227.706C197.616 211.959 197.261 193.161 197.261 176.106C197.261 172.101 197.288 168.232 197.288 164.473C197.179 157.743 197.67 154.855 197.67 154.855L220.349 153.057L221.468 172.673C223.543 172.455 225.617 172.292 227.691 172.128C225.644 156.163 224.989 116.659 224.989 116.659L244.83 115.597L246.249 135.349C255.419 134.45 258.012 134.259 263.416 133.414C263.416 113.308 257.657 52.0634 257.657 42.092C277.826 40.1032 298.458 38.741 308.938 37.4878C310.194 37.3243 313.141 67.2111 314.315 67.1021C318.136 66.7207 330.362 65.2768 330.362 65.2768L345.864 211.414Z" fill="white" />
	<path d="M136.865 47.786C160.964 45.2523 187.164 43.7811 187.164 43.7811C187.164 43.7811 189.674 65.7399 190.329 66.53C190.329 66.53 142.16 69.8537 138.966 70.4803C138.966 70.4531 137.083 56.6948 136.865 47.786Z" fill="white" />
	<path d="M191.121 80.8604C190.684 76.6103 190.329 73.0413 190.329 73.0413C190.329 73.0413 143.66 75.575 139.294 76.5831L139.867 84.0207C156.951 82.604 174.036 81.596 191.121 80.8604Z" fill="white" />
	<path d="M140.494 92.521L140.876 98.7871C142.486 97.0162 192.921 96.3896 192.921 96.3896C192.703 95.8447 192.348 92.5482 191.966 88.4071C174.8 89.3606 157.633 90.6684 140.494 92.521Z" fill="white" />
	<path d="M375.97 43.6687L261.246 48.3704L261.283 49.2687L376.007 44.567L375.97 43.6687Z" fill="#53CAF1" />
	<path d="M377.156 77.6669L263.945 85.8578L264.01 86.7545L377.221 78.5637L377.156 77.6669Z" fill="#53CAF1" />
	<path d="M266.767 127.701L266.757 128.6L377.822 129.936L377.833 129.037L266.767 127.701Z" fill="#53CAF1" />
	<path d="M279.9 92.6025C280.528 95.899 282.438 99.0321 284.922 99.2773C286.477 99.4408 288.06 98.4055 288.933 96.6619C289.779 94.9727 289.971 92.8477 290.08 90.8316C290.298 87.3171 290.407 83.8026 290.407 80.2882C290.407 77.482 290.353 74.6214 289.588 72.0332C288.333 67.8104 283.857 64.3231 281.155 68.5187C279.272 71.4611 280.227 77.3458 280.009 80.8875C279.791 84.7834 279.163 88.7338 279.9 92.6025Z" fill="#3DB5C9" />
	<path d="M375.995 155.512L269.573 158.624L269.599 159.523L376.021 156.41L375.995 155.512Z" fill="#53CAF1" />
	<path d="M268.928 42.4735C265.217 42.528 264.616 42.3645 266.145 59.0924C267.673 75.8203 271.248 165.944 275.178 166.38C279.081 166.816 278.726 167.333 277.525 148.78C276.324 130.227 271.849 68.7913 271.849 61.7623C271.849 50.6195 271.849 42.419 268.928 42.4735Z" fill="#3DB5C9" />
	<path d="M348.784 89.878C348.893 91.2129 348.975 92.5752 349.548 93.8011C350.094 95.0271 351.213 96.0624 352.55 96.1441C354.024 96.2259 355.361 95.1089 355.989 93.7739C356.617 92.4389 356.671 90.9133 356.726 89.4148C356.835 84.6744 356.78 79.9339 356.562 75.2206C356.48 73.5315 356.371 71.8151 355.853 70.235C355.334 68.6548 354.433 66.8839 352.851 66.3118C344.308 63.2605 348.375 84.3474 348.784 89.878Z" fill="#53CAF1" />
	<path d="M372.882 38.9317C371.135 38.9317 369.798 40.5119 369.989 52.6628C370.589 88.2708 370.644 159.596 370.835 162.838C370.862 163.355 372.363 164.745 373.318 162.838C374.11 161.285 374.383 157.416 374.519 150.524C374.82 135.103 374.71 51.9272 374.519 47.8133C374.274 42.4735 375.529 38.9317 372.882 38.9317Z" fill="#3DB5C9" />
	<path d="M359.891 89.9598C359.919 91.2948 359.946 92.6842 360.41 93.9375C360.874 95.1907 361.911 96.3349 363.248 96.5801C364.886 96.8798 366.496 95.6811 367.26 94.2099C368.024 92.7387 368.106 90.9951 368.188 89.3332C368.379 85.1103 368.57 80.8875 368.761 76.6647C368.87 74.4034 368.952 72.0876 368.27 69.9081C367.588 67.7286 366.032 65.3583 363.767 65.2221C358.308 64.8952 359.646 74.4851 359.673 76.6102C359.728 81.0782 359.81 85.519 359.891 89.9598Z" fill="#3DB5C9" />
	<path d="M282.874 168.886C283.584 170.248 284.976 171.365 286.504 171.256C287.842 171.174 288.96 170.194 289.588 169.022C290.216 167.851 290.407 166.516 290.543 165.181C291.062 160.495 291.171 155.754 290.844 151.041C290.598 147.554 289.452 143.522 285.222 143.794C282.602 143.985 280.937 149.352 281.182 156.463C281.319 160.331 281.073 165.344 282.874 168.886Z" fill="#3DB5C9" />
	<path d="M294.446 165.072C294.473 166.107 294.528 167.17 294.965 168.15C295.401 169.131 296.302 170.003 297.503 170.194C298.922 170.439 300.396 169.649 301.16 168.586C301.924 167.524 302.142 166.243 302.306 164.99C302.906 160.495 303.07 155.945 302.77 151.423C302.688 150.006 302.524 148.535 301.815 147.254C299.577 143.168 293.927 144.611 293.791 148.725C293.573 154.12 294.228 159.65 294.446 165.072Z" fill="#53CAF1" />
	<path d="M357.872 133.523C357.817 135.457 357.762 137.473 358.581 139.217C359.427 140.961 361.447 142.296 363.275 141.669C365.404 140.961 366.032 138.318 366.277 136.084C366.878 130.581 367.151 125.05 367.069 119.492C367.042 116.822 366.714 113.499 363.876 112.3C361.665 111.374 360.082 112.436 359.182 114.452C356.862 119.792 358.09 127.856 357.872 133.523Z" fill="#3DB5C9" />
	<path d="M345.072 133.169C345.182 135.103 345.345 137.119 346.164 138.808C346.983 140.497 348.62 141.805 350.258 141.451C351.513 141.179 352.496 139.953 353.014 138.563C353.533 137.174 353.615 135.648 353.669 134.15C353.833 129.436 353.669 124.696 353.123 120.037C352.823 117.531 352.332 114.507 350.312 113.09C348.593 111.891 346.573 112.191 345.482 114.18C344.226 116.441 344.69 119.983 344.69 122.516C344.718 126.058 344.854 129.627 345.072 133.169Z" fill="#53CAF1" />
	<path d="M310.794 50.8099C310.821 53.044 311.066 55.6866 312.84 56.7219C314.314 57.5665 316.197 56.7219 317.234 55.3052C318.272 53.8613 318.654 51.9814 318.899 50.1833C319.5 46.1512 319.691 41.8466 318.081 38.1687C316.716 35.0629 312.349 32.9106 310.957 37.1607C309.784 40.8114 310.766 46.9413 310.794 50.8099Z" fill="#53CAF1" />
	<path d="M350.967 48.4671C350.94 49.911 350.913 51.3822 351.349 52.7444C351.786 54.1066 352.796 55.3871 354.188 55.7413C355.798 56.1499 357.517 55.2781 358.5 53.9704C359.482 52.6627 359.892 50.9735 360.137 49.3661C360.574 46.5872 360.629 43.7811 360.356 40.975C360.028 37.7329 357.053 30.9219 352.687 34.1639C349.494 36.5342 351.022 45.0343 350.967 48.4671Z" fill="#3DB5C9" />
	<path d="M280.527 51.3005C280.773 53.1531 281.264 55.0329 282.356 56.4223C283.475 57.8118 285.331 58.5746 286.859 57.8118C288.524 56.9945 289.206 54.7877 289.533 52.7989C290.216 48.7123 290.079 44.4622 289.151 40.4301C288.824 39.0406 288.414 37.6512 287.596 36.5341C285.522 33.6463 281.783 34.4636 280.909 37.8691C279.927 41.7923 280.009 47.3773 280.527 51.3005Z" fill="#53CAF1" />
	<path d="M295.483 51.4094C295.537 52.6354 295.592 53.8886 295.974 55.0329C296.356 56.1771 297.093 57.2669 298.13 57.6755C299.467 58.2477 301.023 57.5938 302.033 56.4223C303.015 55.2781 303.534 53.7251 303.888 52.1722C304.598 49.1481 304.762 45.9878 304.434 42.9093C304.052 39.3403 300.149 31.8209 296.329 36.3434C293.818 39.3403 295.319 47.8949 295.483 51.4094Z" fill="#53CAF1" />
	<path d="M89.9507 243.889C113.776 243.889 371.355 244.76 377.523 243.889C383.691 243.017 376.158 187.384 303.317 197.819C230.448 208.253 197.453 230.648 157.77 227.733C118.088 224.791 102.287 225.063 89.9507 243.889Z" fill="#53CAF1" />
	<path d="M304.464 197.656C293.301 210.651 283.558 225.036 265.382 228.578C261.452 229.341 256.212 230.022 250.999 229.858C244.831 229.667 238.8 231.602 233.806 235.252C229.384 238.495 224.854 241.491 220.187 244.161C294.884 244.298 374.139 244.352 377.523 243.862C383.664 242.99 376.241 187.957 304.464 197.656Z" fill="#3DB5C9" />
	<path d="M329.818 139.653C329.272 135.703 328.726 131.779 328.18 127.829C327.798 125.05 324.441 123.415 321.93 124.042C318.983 124.75 317.755 127.502 318.137 130.281C318.683 134.231 319.229 138.154 319.774 142.105C320.156 144.884 323.513 146.518 326.024 145.892C328.972 145.183 330.2 142.432 329.818 139.653Z" fill="#DD689D" />
	<path d="M312.488 129.164C316.718 130.336 340.08 101.566 336.341 96.9889C327.58 86.282 303.263 86.2002 310.987 104.59C298.924 99.6316 295.594 109.412 296.44 114.888C297.778 123.279 304.901 127.039 312.488 129.164Z" fill="#FE7EB2" />
	<path d="M336.341 96.9889C335.113 95.4905 333.558 94.1828 331.838 93.1202C331.866 93.8558 331.866 94.5914 331.811 95.327C331.593 99.3864 330.665 103.473 329.136 107.26C327.526 111.265 325.152 114.779 322.286 117.994C319.066 121.563 315.054 124.723 310.387 126.14C308.941 126.576 307.494 126.794 306.048 126.821C308.067 127.802 310.251 128.565 312.461 129.191C316.691 130.363 321.085 131.235 325.479 130.853C329.846 130.472 334.267 128.728 337.133 125.432C339.917 122.244 341.036 117.912 341.254 113.69C341.581 107.723 340.108 101.566 336.341 96.9889Z" fill="#DD689D" />
	<path d="M315.708 98.6234C319.256 101.675 325.506 100.422 327.471 105.489C328.208 107.369 320.812 109.14 322.368 118.621C324.415 131.044 337.351 119.084 340.598 118.457C340.981 116.877 341.199 115.27 341.281 113.635C341.581 107.723 340.08 101.566 336.341 96.9615C330.282 89.5784 316.827 87.2354 311.615 92.5752C312.461 94.8637 313.771 96.9615 315.708 98.6234Z" fill="#00007F" />
	<path d="M336.914 104.671C338.743 105.271 340.735 105.08 342.673 104.889C345.02 104.644 347.421 104.426 349.659 103.636C351.897 102.873 354.026 101.511 355.281 99.4951C356.537 97.479 356.728 94.7273 355.391 92.793C354.135 90.9676 351.815 90.0958 349.577 90.0958C347.367 90.0958 345.183 90.7769 343.082 91.4853C340.762 92.2481 338.388 93.0382 336.477 94.5639C333.093 97.2338 331.892 103.01 336.914 104.671Z" fill="#00007F" />
	<path d="M307.63 98.7596C306.975 100.476 306.32 102.22 306.184 104.045C306.047 105.87 306.538 107.832 307.876 109.112C308.995 110.175 310.55 110.611 312.079 110.638C314.971 110.693 317.837 109.249 319.529 106.878C315.299 104.208 311.287 101.484 307.63 98.7596Z" fill="white" />
	<path d="M311.341 106.197C313.961 104.181 310.823 100.285 308.175 101.974C305.419 103.772 308.639 108.268 311.341 106.197Z" fill="#00007F" />
	<path d="M327.199 115.569L326.489 114.997C326.871 114.534 327.253 114.016 327.472 113.444C327.69 112.872 327.717 112.3 327.499 111.864C327.199 111.156 326.407 110.774 325.534 110.393L318.766 107.423L319.12 106.606L325.889 109.576C326.871 110.012 327.881 110.502 328.318 111.51C328.618 112.164 328.618 112.981 328.29 113.771C328.045 114.48 327.581 115.052 327.199 115.569Z" fill="white" />
	<path d="M310.004 119.956C309.513 119.956 309.049 119.874 308.585 119.71L308.913 118.866C310.577 119.493 312.652 118.593 313.334 116.959L314.18 117.313C313.47 118.92 311.724 119.956 310.004 119.956Z" fill="#E04136" />
	<path d="M316.363 104.318C315.353 102.356 313.743 100.64 311.833 99.5226L312.296 98.7325C314.371 99.9313 316.09 101.784 317.182 103.909L316.363 104.318Z" fill="#00007F" />
	<path d="M340.871 186.894C333.093 187.63 325.096 187.194 317.291 187.793C318.573 200.271 319.283 212.368 317.291 213.294C313.333 215.174 308.066 213.512 306.674 215.446C305.282 217.38 323.377 215.501 323.377 215.501C325.587 216.672 323.95 198.664 328.59 197.574C333.502 196.457 338.797 211.523 339.07 213.158C339.342 214.792 337.105 213.049 335.74 214.411C333.529 216.563 338.469 215.719 342.59 215.746C348.431 215.773 345.974 212.885 344.364 205.747C343.436 201.879 342.181 194.768 340.871 186.894Z" fill="#00007F" />
	<path d="M318.11 212.068C317.919 212.722 317.646 213.158 317.318 213.321C313.361 215.201 308.094 213.539 306.702 215.473C305.31 217.408 323.404 215.528 323.404 215.528C324.141 215.909 324.441 214.22 324.687 211.768C322.476 211.932 320.293 212.041 318.11 212.068Z" fill="#0000D8" />
	<path d="M338.633 211.632C338.878 212.367 339.042 212.912 339.069 213.158C339.342 214.792 337.104 213.049 335.74 214.411C333.529 216.563 338.469 215.719 342.59 215.746C346.52 215.773 346.684 214.438 345.892 211.414C343.436 211.523 341.034 211.632 338.633 211.632Z" fill="#0000D8" />
	<path d="M316.201 137.637C316.965 134.667 317.838 134.041 317.838 134.041C317.838 134.041 331.375 132.624 331.784 134.041C332.194 135.457 333.313 140.716 333.313 140.716L316.201 137.637Z" fill="#1A5B45" />
	<path d="M316.2 188.665C324.005 188.011 333.967 188.828 341.799 188.638C339.589 172.972 337.187 153.547 336.887 150.687C335.932 141.342 334.622 138.291 328.754 136.574C322.586 134.803 320.348 135.975 313.061 135.539C309.568 135.321 313.334 145.292 314.562 154.555C315.599 162.511 315.272 175.888 316.2 188.665Z" fill="#2C8469" />
	<path d="M336.887 150.687C336.75 149.407 336.614 148.235 336.45 147.2C333.693 148.562 331.319 150.633 329.327 153.03C326.871 156 325.015 159.596 324.087 163.328C323.459 165.862 323.459 168.586 323.514 171.202C323.568 173.953 323.814 176.705 324.032 179.43C324.251 182.127 324.442 184.824 324.278 187.548C324.251 187.848 324.223 188.148 324.223 188.447C330.173 188.475 336.45 188.801 341.772 188.665C339.588 172.973 337.187 153.548 336.887 150.687Z" fill="#1A5B45" />
	<path d="M320.756 136.629C315.489 136.057 310.003 135.403 305.282 132.815C300.997 130.444 297.831 126.549 295.375 122.38C291.391 115.569 288.825 107.941 287.761 100.122C284.868 100.285 280.665 101.675 277.827 102.165C278.372 106.197 278.318 114.398 279.546 118.321C281.32 123.988 286.123 124.178 289.398 129.028C292.673 133.905 296.876 138.264 302.198 140.906C307.984 143.767 314.425 144.557 320.756 145.238C326.242 145.837 326.215 137.228 320.756 136.629Z" fill="#2C8469" />
	<path d="M278.565 91.9213C278.592 95.354 278.838 98.814 279.356 102.274C282.058 101.13 284.869 100.203 287.68 99.4407C287.407 97.2884 287.243 95.1088 287.189 92.9293C287.489 89.769 290.382 86.6359 291.474 85.2192C292.565 83.8026 290.573 82.2496 289.727 83.5301C288.908 84.8106 286.807 86.4452 286.889 84.1567C286.97 81.8682 286.506 73.0684 283.914 73.5588C282.576 73.804 283.695 80.8874 283.695 80.8874C283.695 80.8874 283.068 78.5989 281.676 78.9804C280.311 79.3345 280.584 81.4323 280.584 81.4323C280.584 81.4323 280.038 80.4243 278.51 80.8874C277.009 81.3506 278.346 88.8155 278.565 91.9213C278.537 91.9213 278.565 91.9213 278.565 91.9213Z" fill="#FE7EB2" />
	<path d="M280.9 81.518L280.008 81.636L280.541 85.6604L281.434 85.5425L280.9 81.518Z" fill="#00007F" />
	<path d="M284.29 80.0712L283.392 80.1384L283.783 85.3546L284.681 85.2874L284.29 80.0712Z" fill="#00007F" />
	<path d="M279.11 100.122C278.537 100.312 277.964 100.558 277.527 100.994C277.09 101.429 276.845 102.083 277.036 102.655C277.227 103.173 277.718 103.5 278.237 103.636C278.755 103.772 279.328 103.718 279.847 103.636C282.112 103.364 284.323 102.955 286.533 102.383C287.488 102.138 288.607 101.647 288.717 100.667C288.798 99.931 288.198 99.2771 287.516 99.0047C286.342 98.596 284.623 98.9775 283.422 99.1137C281.976 99.2771 280.529 99.6041 279.11 100.122Z" fill="#1A5B45" />
	<path d="M311.458 134.984L310.565 135.102L311.724 143.88L312.617 143.762L311.458 134.984Z" fill="#1A5B45" />
	<path d="M364.997 166.08C352.006 168.722 348.185 170.956 348.458 172.4C348.731 173.844 352.033 190.981 354.435 190.953C356.318 190.926 381.317 184.497 382.245 183.298C383.746 181.363 379.653 165.535 378.288 164.772C376.896 163.982 370.564 164.935 364.997 166.08Z" fill="#0000D8" />
	<path d="M365.079 168.041C354.271 170.221 351.133 172.073 351.351 173.272C351.569 174.471 354.326 188.692 356.318 188.665C357.874 188.638 378.615 183.298 379.407 182.317C380.662 180.71 377.251 167.578 376.104 166.951C374.958 166.298 369.691 167.115 365.079 168.041Z" fill="white" />
	<path d="M376.105 166.951C374.958 166.325 369.691 167.115 365.079 168.068C360.385 169.022 357.137 169.921 354.981 170.711C355.008 170.82 355.036 170.956 355.09 171.065C356.127 172.427 357.055 173.844 357.847 175.343C359.129 176.623 360.685 177.713 362.131 178.639C362.977 179.184 363.305 180.083 363.114 181.037C362.704 183.216 362.159 185.396 361.613 187.575C368.299 185.94 378.861 183.053 379.407 182.344C380.635 180.71 377.251 167.578 376.105 166.951Z" fill="#FFD833" />
	<path d="M365.352 176.868C365.352 176.896 365.352 176.896 365.352 176.923C368.108 176.105 370.946 175.642 373.812 175.234C371.847 166.189 366.007 158.342 358.692 152.485C353.971 148.698 348.813 145.592 343.546 142.622C338.06 139.544 332.793 136.901 326.461 136.138C320.975 135.457 321.03 144.066 326.461 144.747C331.537 145.374 336.122 148.316 340.489 150.796C344.61 153.139 348.704 155.563 352.443 158.479C356.455 161.584 357.219 168.068 359.675 172.373C360.958 174.634 364.779 174.307 365.352 176.868Z" fill="#2C8469" />
	<path d="M374.549 182.317C374.576 179.811 374.303 177.359 373.757 175.016C370.974 175.697 368.163 176.296 365.352 176.868C365.734 178.612 365.952 180.437 365.925 182.317C365.925 182.535 365.925 182.753 365.952 182.944C365.624 186.022 364.533 188.392 364.533 188.392L361.094 189.482C361.094 189.482 363.605 191.934 365.952 190.545C365.952 190.545 367.235 192.37 369.145 190.872C369.145 190.872 370.646 192.261 372.365 190.654C374.112 189.046 374.549 187.521 374.549 182.317Z" fill="#FE7EB2" />
	<path d="M365.98 190.872L365.652 190.027C366.635 189.646 367.426 188.747 367.617 187.712L368.518 187.902C368.272 189.21 367.263 190.382 365.98 190.872Z" fill="#00007F" />
	<path d="M369.418 191.417L368.927 190.654C370.019 189.945 370.728 188.638 370.756 187.33H371.656C371.629 188.965 370.783 190.517 369.418 191.417Z" fill="#00007F" />
	<path d="M364.315 176.568C364.424 177.059 364.861 177.386 365.352 177.495C365.843 177.604 366.335 177.549 366.799 177.467C368.846 177.141 370.892 176.677 372.885 176.105C373.703 175.86 374.604 175.533 374.904 174.743C375.177 174.035 374.795 173.163 374.14 172.754C372.694 171.855 370.401 172.89 368.927 173.408C367.672 173.844 363.933 174.77 364.315 176.568Z" fill="#1A5B45" />
	<path d="M338.436 141.228L335.895 146.987L336.72 147.35L339.26 141.59L338.436 141.228Z" fill="#1A5B45" />
	<path d="M301.951 58.5474L298.239 58.7108L294.636 68.0283L297.065 66.884C298.894 64.2414 301.951 58.5474 301.951 58.5474Z" fill="#FE673C" />
	<path d="M294.146 73.1502C295.947 71.3521 305.254 64.2686 305.254 64.2686C305.254 64.2686 309.266 68.7094 309.075 68.9001C308.884 69.0908 296.111 74.7303 295.784 74.7848C295.429 74.8121 294.146 73.1502 294.146 73.1502Z" fill="#FE673C" />
	<path d="M307.681 220.486C305.361 220.241 305.006 220.241 303.587 220.105C302.441 219.996 300.503 264.295 300.503 264.295H303.014C303.014 264.295 308.336 220.568 307.681 220.486Z" fill="#E04136" />
	<path d="M344.635 221.548C347.473 245.469 350.802 264.458 351.348 264.458C351.894 264.458 353.941 264.458 353.941 264.458C353.941 264.458 350.475 221.14 350.311 220.159C350.147 219.178 344.635 221.548 344.635 221.548Z" fill="#E04136" />
	<path d="M352.195 218.688C353.15 222.366 358.608 264.322 359.263 264.294C359.918 264.24 362.62 264.458 362.62 264.458L358.281 218.688H352.195Z" fill="#E04136" />
	<path d="M323.62 215.582C298.621 216.317 298.266 216.998 298.348 219.042C298.348 219.396 298.102 221.439 300.258 221.712C310.302 222.992 340.868 221.712 348.728 221.712C362.947 221.712 360.737 220.567 360.709 217.571C360.682 214.301 340.295 215.064 323.62 215.582Z" fill="#FFD833" />
	<path d="M360.709 217.57C360.682 215.255 350.393 214.982 338.466 215.173C335.355 216.481 332.053 217.489 329.105 218.687C325.885 219.995 322.637 221.194 319.362 222.284C331.097 222.202 344.006 221.739 348.728 221.739C362.92 221.712 360.709 220.567 360.709 217.57Z" fill="#F3CF14" />
	<path d="M359.345 243.834L358.007 242.744C358.007 242.744 332.981 243.098 303.288 242.744C303.288 242.744 300.176 245.741 303.288 245.795C306.017 245.85 349.274 245.714 359.454 245.686C359.399 245.087 359.372 244.46 359.345 243.834Z" fill="#E04136" />
	<path d="M48.0039 245.699C46.0699 253.818 44.4355 261.228 41.6298 259.648C39.9682 258.722 40.6492 245.835 40.6492 245.835L48.0039 245.699Z" fill="#F4A914" />
	<path d="M61.8684 247.579C60.8605 255.97 59.7437 261.01 57.0742 260.983C54.0779 260.956 56.2298 246.516 56.2298 246.516L61.8684 247.579Z" fill="#F4A914" />
	<path d="M189.023 241.557C189.54 257.086 187.552 259.402 185.536 258.666C183.52 257.958 181.75 243.682 181.75 243.682L189.023 241.557Z" fill="#F4A914" />
	<path d="M161.838 147.02C111.336 142.743 42.3923 144.46 34.2205 151.734C26.0486 159.008 14.5807 244.609 32.7768 247.715C50.9456 250.82 189.186 255.261 196.895 243.437C204.604 231.613 206.647 188.813 198.448 187.178C190.249 185.571 176.711 185.353 176.711 185.353C176.711 185.353 182.186 148.737 161.838 147.02Z" fill="#FFE266" />
	<path d="M47.104 147.974C40.2124 157.073 37.3795 163.639 34.7917 179.713C34.0835 184.209 31.4957 188.895 28.0091 192C26.8378 193.063 25.5303 193.717 24.1955 194.071C26.2113 173.883 30.5151 154.976 34.1925 151.734C35.963 150.153 40.5938 148.846 47.2402 147.783C47.213 147.865 47.1585 147.919 47.104 147.974Z" fill="#F4A914" />
	<path d="M46.9682 175.191C48.6298 171.431 51.381 168.162 54.7315 165.792C61.5414 160.942 70.3125 158.218 78.4027 156.556C86.6563 154.867 96.7349 153.913 104.199 158.626C111.499 163.203 116.075 172.058 114.005 180.612C113.16 184.154 117.219 186.061 119.589 184.59C123.103 187.478 126.944 189.821 131.384 191.156C132.255 191.401 134.026 191.619 134.734 192.327C135.688 193.281 135.633 195.733 135.851 196.932C137.54 206.358 145.276 211.071 154.102 212.951C159.114 214.014 164.262 214.368 169.356 215.022C175.267 215.812 181.205 216.602 187.143 217.038C191.256 217.338 195.37 217.419 199.428 217.174C198.638 227.009 193.98 236.817 191.447 246.298C179.325 249.921 149.498 251.147 118.826 251.12C118.717 250.984 118.608 250.82 118.472 250.684C110.927 242.974 93.0304 240.958 88.2907 250.739C83.8234 250.63 79.4378 250.494 75.2429 250.357C72.0286 248.804 68.5692 246.652 66.9076 243.683C65.0826 240.386 65.6273 236.109 66.2539 232.567C67.6431 224.775 69.6588 217.365 69.5226 209.355C69.4137 203.688 67.8337 198.376 63.0396 194.997C60.016 192.872 56.4748 191.837 52.9337 190.938C50.5366 190.311 47.2951 189.875 46.0148 187.478C44.217 184.072 45.5245 178.487 46.9682 175.191Z" fill="#F4A914" />
	<path d="M95.2102 223.473L168.599 225.193L168.578 226.065L95.1898 224.345L95.2102 223.473Z" fill="#FFE266" />
	<path d="M149.008 185.788C150.915 196.849 158.297 189.003 166.659 191.155C175.022 193.335 174.995 203.824 172.461 204.096C169.928 204.369 169.492 202.462 169.492 202.462C169.492 202.462 168.648 203.769 166.877 204.205C165.107 204.641 164.017 201.944 164.017 201.944C164.017 201.944 164.126 204.233 161.675 204.287C159.223 204.342 160.013 200.527 157.289 201.644C154.565 202.734 147.51 207.693 143.097 201.454C138.657 195.242 149.008 185.788 149.008 185.788Z" fill="#3DB5C9" />
	<path d="M164.753 203.252C165.026 201.072 164.399 198.811 163.037 197.067L162.356 197.612C163.555 199.138 164.127 201.209 163.882 203.143L164.753 203.252Z" fill="#00007F" />
	<path d="M170.119 202.598C170.719 200.827 170.419 198.811 169.329 197.313L168.621 197.83C169.547 199.111 169.792 200.827 169.275 202.326L170.119 202.598Z" fill="#00007F" />
	<path d="M159.032 199.029C157.262 201.644 159.114 203.551 156.608 203.96C155.246 204.178 154.756 200.119 155.573 198.266C156.39 196.441 159.032 199.029 159.032 199.029Z" fill="#3DB5C9" />
	<path d="M159.223 200.527L159.849 198.893L159.059 198.593L158.406 200.2L159.223 200.527Z" fill="#00007F" />
	<path d="M106.896 131.055C100.331 131.191 95.9731 131.246 95.9731 131.246C95.9731 131.246 106.706 127.077 111.173 126.832C115.667 126.614 106.896 131.055 106.896 131.055Z" fill="#0000EF" />
	<path d="M91.3426 217.173C91.3426 217.173 92.078 182.982 94.2572 161.813C94.2845 160.37 94.3934 158.898 94.5841 157.509C94.8293 155.493 95.1834 153.504 95.6737 151.515C95.6737 151.515 95.6737 151.515 95.6737 151.488C97.6622 143.151 101.721 135.278 108.258 129.856C116.376 123.154 128.743 121.111 137.65 126.696C143.125 130.156 146.748 135.986 148.791 142.143C150.616 147.728 149.88 155.111 152.986 160.097C155.737 164.538 159.687 167.807 158.325 173.719C157.426 177.751 154.402 181.048 150.834 183.118L148.192 216.193L91.3426 217.173Z" fill="#53CAF1" />
	<path d="M92.7864 181.184C92.7864 181.13 92.7864 181.075 92.7864 181.021C92.8954 179.141 93.0043 177.288 93.1405 175.436C93.1405 175.381 93.1405 175.299 93.1677 175.245C93.3039 173.42 93.4129 171.594 93.5491 169.823C93.5491 169.742 93.5491 169.687 93.5763 169.605C93.6581 168.734 93.7125 167.862 93.7943 166.99V166.963C93.876 166.118 93.9305 165.274 94.0122 164.456C94.0122 164.375 94.0122 164.32 94.0394 164.238C94.1212 163.421 94.2029 162.604 94.2846 161.814C94.2846 161.814 94.2846 161.814 94.2846 161.786C94.2846 161.214 94.3391 160.669 94.3663 160.125C94.3935 159.77 94.4208 159.443 94.448 159.089C94.5025 158.544 94.5297 158.027 94.6115 157.482C94.8566 155.466 95.2107 153.477 95.701 151.488C95.701 151.488 95.701 151.488 95.701 151.461C97.6895 143.124 101.748 135.251 108.286 129.829C112.372 126.451 117.547 124.244 122.804 123.617C117.139 129.366 106.433 143.805 108.585 170.096C109.266 178.487 122.586 180.585 130.241 180.776C139.448 181.021 150.071 180.285 157.753 175.463C156.472 178.678 153.857 181.32 150.834 183.064L148.192 216.138L91.3699 217.119C91.3427 217.174 91.7241 199.165 92.7864 181.184Z" fill="#3DB5C9" />
	<path d="M106.896 131.055C109.103 121.165 133.101 117.814 142.09 124.026C146.094 126.778 144.732 129.584 143.37 131.927C131.221 131.382 119.045 131.355 106.896 131.055Z" fill="#0000EF" />
	<path d="M121.77 183.799C129.179 185.025 136.697 185.379 144.161 184.807C146.394 184.644 148.546 184.344 150.726 183.854L148.165 216.193L91.3432 217.173C91.3432 217.173 91.8335 193.58 93.25 173.447C102.076 178.514 111.637 182.11 121.77 183.799Z" fill="#E04136" />
	<path d="M92.2685 190.747C92.8133 190.992 93.3309 191.237 93.8756 191.482C93.9029 193.471 94.6656 195.351 95.9186 197.04C95.7279 197.476 95.5645 197.939 95.4555 198.429C94.5839 201.835 96.2727 205.785 99.596 207.175C104.69 209.273 108.857 203.824 110.41 199.247C116.294 202.543 121.606 206.63 125.474 212.705C126.263 213.931 126.863 215.212 127.353 216.547L91.3696 217.173C91.3423 217.173 91.6148 205.023 92.2685 190.747Z" fill="#CC332F" />
	<path d="M137.786 156.474C135.008 158.217 131.249 158.245 128.498 156.446C125.746 154.648 124.248 151.161 124.875 147.946C125.501 144.732 128.28 142.034 131.521 141.571C134.49 141.135 138.712 143.342 140.292 146.148C142.172 149.554 140.783 154.567 137.786 156.474Z" fill="white" />
	<path d="M134.571 141.871C136.887 142.579 139.202 144.214 140.292 146.148C142.199 149.554 140.809 154.567 137.813 156.474C135.824 157.727 133.318 158.081 131.057 157.509C132.202 152.306 133.209 147.047 134.571 141.871Z" fill="#03036D" />
	<path d="M140.647 137.92L141.437 137.566C140.129 134.651 137.214 132.581 134.055 132.254C130.895 131.954 127.626 133.425 125.774 136.041L126.482 136.531C128.144 134.161 131.086 132.826 133.973 133.098C136.833 133.398 139.475 135.278 140.647 137.92Z" fill="#00007F" />
	<path d="M141 129.72C141.926 126.669 141.164 124.789 138.331 125.034C135.525 125.279 130.976 129.202 130.976 129.202C134.817 129.393 138.113 129.557 141 129.72Z" fill="#FFB0D8" />
	<path d="M125.201 173.747C125.364 173.747 125.528 173.747 125.691 173.719L125.637 172.847C123.921 172.984 122.177 172.357 120.924 171.158C119.671 169.96 118.963 168.243 119.018 166.554L118.146 166.527C118.091 168.488 118.909 170.45 120.325 171.785C121.633 173.038 123.43 173.747 125.201 173.747Z" fill="#00007F" />
	<path d="M91.3421 217.174C91.4238 213.85 148.164 216.193 148.164 216.193C148.164 216.193 149.744 222.677 148.3 224.012C146.856 225.347 143.37 225.865 143.37 225.865C130.812 224.802 99.9498 225.565 95.7822 224.584C92.5134 223.821 91.2332 222.704 91.3421 217.174Z" fill="#0000EF" />
	<path d="M143.588 226.192C143.533 226.056 143.451 225.947 143.342 225.865C143.233 225.892 142.253 224.775 141.953 224.775C139.42 225.048 138.003 223.658 137.976 221.261C137.922 218.536 140.074 216.738 142.607 216.466C146.584 216.03 150.289 218.645 152.005 222.105C154.102 226.301 153.04 230.878 151.542 235.073C150.67 237.471 148.436 239.133 145.821 238.452C143.533 237.852 141.572 235.128 142.444 232.73C143.016 231.15 144.296 228.644 143.805 226.873C143.751 226.655 143.642 226.41 143.588 226.192Z" fill="#0000EF" />
	<path d="M117.764 225.32C115.775 223.739 116.02 220.361 117.655 218.672C119.561 216.683 122.313 216.983 124.301 218.563C130.621 223.549 128.333 231.831 125.473 237.988C122.912 243.491 114.713 238.86 117.273 233.384C118.39 230.905 120.351 227.363 117.764 225.32Z" fill="#0000EF" />
	<path d="M143.424 230.114C146.502 230.659 149.553 231.122 152.658 231.477C152.359 232.703 151.977 233.901 151.569 235.073C150.697 237.47 148.464 239.132 145.849 238.451C143.56 237.852 141.599 235.127 142.471 232.73C142.689 231.994 143.097 231.095 143.424 230.114Z" fill="#00007F" />
	<path d="M117.382 233.084C120.46 233.765 123.538 234.474 126.562 235.373C126.208 236.272 125.854 237.144 125.445 237.961C122.885 243.464 114.686 238.833 117.246 233.357C117.301 233.248 117.355 233.166 117.382 233.084Z" fill="#00007F" />
	<path d="M150.07 235.073C153.203 239.378 159.495 238.806 159.74 240.931C159.985 243.056 153.965 242.048 148.626 239.977C143.287 237.907 140.89 237.552 142.388 232.921C143.887 228.289 150.07 235.073 150.07 235.073Z" fill="#00007F" />
	<path d="M125.473 237.961C124.738 241.557 129.15 244.963 131.057 246.979C132.991 248.968 128.932 250.221 123.621 245.208C118.309 240.195 115.204 238.942 116.538 235.455C117.873 231.967 125.473 237.961 125.473 237.961Z" fill="#00007F" />
	<path d="M117.819 192.327C125.746 190.747 135.661 186.905 138.303 196.686C140.7 205.513 134.871 203.552 134.68 200.991C134.68 200.991 134.462 206.521 130.022 202.625C130.022 202.625 129.886 203.906 128.006 203.797C126.1 203.688 124.656 201.018 123.185 201.481C121.687 201.944 119.126 208.919 109.402 204.124C108.857 203.851 108.367 203.552 107.931 203.279C109.402 198.621 113.079 195.215 117.819 192.327Z" fill="#53CAF1" />
	<path d="M118.092 205.377C116.103 206.085 113.325 206.085 109.402 204.124C108.857 203.851 108.367 203.552 107.931 203.279C108.612 201.127 109.783 199.247 111.282 197.558C114.659 198.866 117.52 202.026 118.092 205.377Z" fill="#3DB5C9" />
	<path d="M135.934 192.327C141.245 194.724 143.806 194.67 143.261 196.386C142.716 198.103 135.171 195.433 135.171 195.433L135.934 192.327Z" fill="#53CAF1" />
	<path d="M101.611 207.72C103.845 207.72 106.133 206.712 107.713 204.968L107.059 204.396C105.507 206.113 103.191 207.039 101.012 206.848C98.7513 206.63 96.6539 205.159 95.7822 203.143C94.8833 201.073 95.3736 198.512 96.9535 197.013L97.4438 196.523L96.79 196.278C95.2919 195.733 94.1478 194.234 94.0389 192.627C93.9299 191.02 94.8288 189.385 96.218 188.622L95.8094 187.859C94.0933 188.785 93.031 190.747 93.1672 192.681C93.3034 194.425 94.3657 196.005 95.8911 196.823C94.3929 198.593 94.0116 201.236 94.965 203.47C95.9729 205.786 98.2882 207.448 100.903 207.693C101.176 207.72 101.394 207.72 101.611 207.72Z" fill="#D2F1FC" />
	<path d="M119.999 190.529L120.462 189.793C117.112 187.723 112.999 187.042 109.158 187.941L109.348 188.785C112.971 187.913 116.839 188.567 119.999 190.529Z" fill="#D2F1FC" />
	<path d="M134.653 202.435L135.525 202.407C135.443 199.465 134.163 196.632 132.065 194.588L131.466 195.215C133.4 197.095 134.544 199.737 134.653 202.435Z" fill="#00007F" />
	<path d="M129.805 203.143H130.677C130.677 200.636 129.424 198.103 127.435 196.55L126.891 197.231C128.689 198.62 129.805 200.881 129.805 203.143Z" fill="#00007F" />
	<path d="M137.194 194.166L138.338 196.669L137.545 197.031L136.402 194.529L137.194 194.166Z" fill="#00007F" />
	<path d="M22.072 66.9772C32.6409 70.3283 39.7777 74.3604 46.2607 83.8413C51.8993 92.0963 59.5264 101.06 63.9937 109.941C61.5421 114.954 58.0827 120.103 54.1057 120.893C45.9883 122.501 15.6707 118.469 15.6707 118.469L4.66589 92.8864C4.66589 92.8864 13.0829 80.0816 22.072 66.9772Z" fill="#A8E4F4" />
	<path d="M41.5197 84.3041C42.8816 82.2063 45.7146 81.2256 47.9482 82.615C48.8199 83.1599 55.7659 88.0911 56.0928 88.4452C56.1201 88.4725 56.8283 88.2 56.0111 90.6793C55.2484 93.0223 52.7151 94.7931 50.2091 93.9486C47.7848 93.1312 45.3877 92.096 43.2085 90.7337C41.1111 89.4533 40.1305 86.4837 41.5197 84.3041Z" fill="#E04136" />
	<path d="M14.8257 89.2082C18.9116 87.519 22.9703 85.8026 27.0562 84.1135C29.0719 88.9357 34.656 91.8781 39.8315 91.1425C45.0071 90.4069 50.4277 70.437 46.8049 66.6501C43.182 62.8904 37.7886 61.0105 32.5586 61.3647C28.8812 61.6371 25.0677 63.1083 22.943 66.1324C20.3008 69.8649 22.9158 73.8153 20.9818 77.0301C18.503 81.1712 15.8063 84.2225 14.8257 89.2082Z" fill="#FE673C" />
	<path d="M38.4697 63.9802C37.7887 63.1083 37.0533 62.291 36.2906 61.4737C40.2403 61.9913 44.0266 63.7622 46.8051 66.6228C50.4279 70.3825 52.0896 76.0493 50.7548 81.1167C49.4473 86.0751 45.1434 90.2162 40.1041 91.0608C49.8287 79.2368 41.2482 67.4674 38.4697 63.9802Z" fill="#E04136" />
	<path d="M31.1147 74.8779C27.737 75.9677 24.5772 75.4228 21.7715 73.9788C21.8532 71.4724 21.1177 68.748 22.97 66.1053C25.0947 63.0812 28.881 61.61 32.5856 61.3376C34.9282 61.1741 37.2981 61.4738 39.5317 62.1549C38.5239 67.304 36.2902 73.216 31.1147 74.8779Z" fill="#E04136" />
	<path d="M38.6881 67.4402C32.423 71.4451 24.5507 72.8073 17.305 71.1454C15.8613 70.8185 14.3904 70.3281 13.3008 69.3473C12.2112 68.3665 11.5575 66.7319 12.075 65.3424C12.8105 63.4081 15.262 62.8632 17.305 62.5908C21.3909 62.0731 25.4769 61.5555 29.5628 61.0378C36.182 60.1933 53.234 59.158 52.4713 70.0829C52.2534 73.4339 49.475 76.5942 45.9338 76.1038C44.0271 75.8314 42.1747 74.4147 40.9762 72.9708C40.4859 72.3441 37.7892 68.0123 38.6881 67.4402Z" fill="#00007F" />
	<path d="M30.8703 76.4578C30.7068 77.1934 30.1348 77.7111 29.5083 77.8745C29.0452 78.0108 28.5004 77.9563 28.0374 77.7111C27.5743 77.4659 27.1929 77.0027 27.0295 76.4578C26.7571 75.5588 27.1929 74.5508 27.9012 74.1421C29.2359 73.4065 31.3334 74.469 30.8703 76.4578Z" fill="white" />
	<path d="M27.8727 74.1969C28.5537 75.3684 29.2075 76.5671 29.834 77.7659C29.725 77.8204 29.6161 77.8749 29.5071 77.9021C29.044 78.0383 28.4992 77.9838 28.0362 77.7386C27.5731 77.4934 27.1917 77.0303 27.0283 76.4854C26.7831 75.5863 27.1917 74.6056 27.8727 74.1969Z" fill="#00007F" />
	<path d="M25.6668 73.8426C26.3205 73.1887 27.2466 72.7801 28.2 72.7256C29.1262 72.6711 30.0796 72.998 30.8151 73.5701L31.3599 72.889C30.461 72.1807 29.2896 71.7993 28.1456 71.8538C27.0015 71.9083 25.8847 72.3986 25.0675 73.216L25.6668 73.8426Z" fill="#00007F" />
	<path d="M30.1338 84.6039C31.4141 84.5222 32.4764 83.3507 32.4492 82.0702L31.5775 82.0974C31.5775 82.8875 30.8692 83.6776 30.0793 83.7321L30.1338 84.6039Z" fill="#00007F" />
	<path d="M69.768 67.5493C70.1221 70.1103 69.2504 72.8074 67.4798 74.6873C65.7093 76.5671 63.0943 77.6024 60.5065 77.4389C61.4054 77.5479 62.3043 77.6841 63.0943 78.12C63.8842 78.5559 64.5379 79.3733 64.4835 80.2723C64.429 81.7162 62.7674 82.5063 61.3509 82.697C57.9187 83.1329 54.2958 81.6618 52.1439 78.9918C50.9181 77.4662 49.202 74.1696 50.0192 72.1263C50.7002 70.3827 52.8249 70.7369 54.3776 70.8458C59.8255 71.2 65.0555 70.4917 69.768 67.5493Z" fill="#00007F" />
	<path d="M29.481 166.009C26.1033 165.628 22.7528 165.165 19.4023 164.729C19.3751 161.405 19.2116 156.229 19.0754 151.379C18.9937 148.6 18.9393 145.958 18.912 143.86C18.8575 136.177 21.1457 133.098 28.8272 133.398H28.8817C29.3448 133.425 29.8623 133.453 30.3799 133.507C30.7885 133.589 31.1971 133.698 31.6602 133.861C41.4937 137.321 58.5184 147.974 70.9397 149.636C57.8102 150.344 36.754 145.14 32.8042 147.946C30.1075 149.881 29.5627 159.607 29.481 166.009Z" fill="#00007F" />
	<path d="M19.3485 168.053C19.4303 167.589 19.4303 166.064 19.403 163.939C22.7807 164.184 26.1584 164.375 29.5361 164.565C29.4544 168.243 29.5361 171.213 29.5634 171.676C29.5906 172.929 24.9871 173.856 19.7571 173.093C14.5271 172.303 4.72093 173.283 5.61984 171.267C6.46426 169.224 19.0489 169.66 19.3485 168.053Z" fill="#3CA184" />
	<path d="M19.4025 166.963C19.4025 166.227 19.4025 165.192 19.4025 163.939C22.7802 164.184 26.1579 164.375 29.5356 164.565C29.5084 165.601 29.5084 166.581 29.5084 167.453C26.1035 167.399 22.753 167.208 19.4025 166.963Z" fill="#FE673C" />
	<path d="M18.9118 143.86C18.9118 145.059 18.9391 146.448 18.9663 147.892C16.9779 146.148 14.8259 144.568 12.6195 143.097C14.1449 138.929 14.3084 128.358 21.5541 122.065C31.5238 113.401 52.0079 125.579 53.043 125.552C53.4244 125.552 50.7549 121.329 48.1944 115.717C57.5648 114.518 66.9352 113.074 76.3601 112.148C77.831 115.689 79.2203 119.422 80.555 123.182C87.3921 142.525 85.5943 150.371 73.0641 149.799C72.3559 149.772 71.6477 149.69 70.9122 149.608C58.4909 147.946 41.4662 137.294 31.6327 133.834C31.1697 133.671 30.7611 133.562 30.3525 133.48C29.8077 133.371 29.3174 133.344 28.8543 133.371H28.7998C21.1727 133.098 18.8574 136.177 18.9118 143.86Z" fill="#03036D" />
	<path d="M9.95066 144.568C11.694 145.549 12.4567 144.214 13.0832 141.735C15.0989 143.261 17.0602 144.895 18.967 146.557C18.9942 148.055 19.0487 149.717 19.0759 151.406C18.4494 152.66 17.7412 153.777 16.8423 154.594C16.8423 154.594 -0.427628 144.568 0.00820541 141.544C0.44404 138.493 4.82962 141.708 9.95066 144.568Z" fill="#2C8469" />
	<path d="M11.7209 144.623C12.3202 144.16 12.7015 143.124 13.0556 141.708C15.0714 143.233 17.0326 144.868 18.9394 146.53C18.9666 147.81 18.9939 149.227 19.0483 150.644C16.6785 148.573 14.2269 146.557 11.7209 144.623Z" fill="#FE673C" />
	<path d="M77.7495 149.363L78.4032 148.791C77.2047 147.402 76.442 145.604 76.2513 143.778C76.0879 142.362 76.2513 140.89 76.4147 139.474L77.586 129.094L82.0806 128.767L82.0261 127.895L76.8233 128.276L75.5703 139.365C75.4069 140.836 75.2434 142.334 75.4069 143.86C75.5975 145.876 76.442 147.838 77.7495 149.363Z" fill="#53CAF1" />
	<path d="M1.75143 94.9841C2.10555 94.1123 3.49478 92.8863 4.66608 92.8863C5.37431 92.8863 15.6708 118.468 15.6708 118.468L42.2294 118.414C42.2839 122.119 41.7936 124.38 41.7936 124.38C41.7936 124.38 17.1963 124.081 16.2156 123.972C15.235 123.863 14.9626 118.932 14.0637 118.904C12.5928 118.877 11.6122 118.932 11.6122 118.932C11.6122 118.932 1.45179 95.7197 1.75143 94.9841Z" fill="#3DB5C9" />
	<path d="M60.0979 116.67C56.5295 117.215 52.9884 117.706 49.42 118.196C47.1591 113.619 44.5713 107.571 43.9176 102.122C43.1821 95.9374 45.2795 88.7177 52.8249 86.9741C63.6118 84.4949 71.593 100.378 83.2788 113.564C77.5585 114.191 65.7365 115.798 60.0979 116.67Z" fill="#FFB0D8" />
	<path d="M53.8593 104.274C57.2643 105.01 60.5875 105.554 63.7745 107.08C67.5881 108.905 70.7751 111.548 72.7363 114.899C68.0239 115.526 63.148 116.207 60.0972 116.697C56.5288 117.242 52.9877 117.733 49.4193 118.223C47.2129 113.782 44.7341 108.006 43.9986 102.694C47.3218 102.748 50.5906 103.566 53.8593 104.274Z" fill="#FF94C5" />
	<path d="M24.6314 110.513C25.3124 109.669 26.5382 108.061 29.017 107.298C32.2312 106.318 35.4455 106.645 38.7415 108.279C42.6095 110.186 45.0883 113.864 48.7384 115.962C52.552 118.142 55.7935 115.39 56.3927 111.385C56.7468 108.933 56.2565 106.481 55.4121 104.138C58.4085 103.511 61.3503 102.749 64.2377 101.768C66.7165 109.532 66.9345 117.896 59.607 123.454C55.4121 126.642 50.1004 127.078 45.3607 124.816C42.8274 123.618 40.6755 121.656 38.5781 119.803C37.0799 118.468 34.5194 116.044 32.0678 116.125C30.1066 118.169 29.5618 119.531 28.8808 120.212C28.0363 121.084 26.9195 119.667 26.9195 119.667C24.5769 120.621 24.6859 115.553 24.6859 115.553C24.6859 115.553 23.9777 119.259 22.8064 118.169C21.9075 117.324 21.4716 114.327 24.6314 110.513Z" fill="#FE673C" />
	<path d="M62.6311 106.536C60.2612 106.345 58.0004 105.745 55.7395 105.092C55.6305 104.765 55.5488 104.465 55.4126 104.138C58.4089 103.511 61.3508 102.749 64.2382 101.768C64.7558 103.402 65.1644 105.037 65.4368 106.699C64.5106 106.645 63.5572 106.617 62.6311 106.536Z" fill="#E04136" />
	<path d="M51.8448 122.882C54.2963 121.329 57.1837 121.928 59.7715 123.318C59.717 123.372 59.6625 123.4 59.6081 123.454C56.3393 125.933 52.4168 126.723 48.6033 125.906C49.5567 124.68 50.6735 123.645 51.8448 122.882Z" fill="#E04136" />
	<path d="M65.0556 101.877L65.8728 101.604C64.5381 97.5451 63.1488 94.7117 61.5417 92.7501L60.8607 93.295C62.4134 95.1748 63.7754 97.981 65.0556 101.877Z" fill="#D2F1FC" />
	<path d="M53.3974 104.765L53.9149 104.71C57.2926 104.329 62.3864 103.348 65.6279 102.149L65.3283 101.332C62.3047 102.422 57.6195 103.375 54.3235 103.784C54.4597 101.495 54.378 98.88 53.3701 95.5017L52.5529 95.7469C53.588 99.2614 53.5881 101.904 53.4519 104.247L53.3974 104.765Z" fill="#D2F1FC" />
	<path d="M26.7836 119.558L27.628 119.449C27.3556 117.46 27.9277 115.363 29.1807 113.782L28.4997 113.238C27.1377 114.981 26.484 117.351 26.7836 119.558Z" fill="#00007F" />
	<path d="M24.9868 116.888C25.0141 115.009 25.6678 113.129 26.8391 111.63L26.1581 111.113C24.9051 112.747 24.1696 114.791 24.1424 116.888H24.9868Z" fill="#00007F" />
	<path d="M214.847 190.992C207.792 191.155 198.667 191.264 198.667 191.264C198.667 191.264 200.111 207.311 198.967 208.891C197.822 210.472 190.985 209.6 191.013 210.717C191.04 211.834 191.067 214.531 191.067 214.531C191.067 214.531 221.984 213.823 221.712 214.749C221.439 215.675 222.828 211.125 221.657 211.044C220.486 210.962 213.703 211.371 213.676 209.899C213.676 208.401 214.847 190.992 214.847 190.992Z" fill="#0000EF" />
	<path d="M199.158 198.239C198.94 194.506 198.64 191.264 198.64 191.264C198.64 191.264 207.765 191.155 214.82 190.992C214.82 190.992 214.384 197.285 214.058 202.625C209.154 200.936 204.251 199.274 199.158 198.239Z" fill="#03036D" />
	<path d="M166.742 139.719C166.742 139.719 171.183 139.828 178.02 139.964C178.183 149.336 175.977 158.871 175.841 168.189C175.704 177.37 176.004 186.279 176.058 195.46C170.202 195.269 166.279 195.297 165.98 195.024C164.699 193.771 166.742 139.719 166.742 139.719Z" fill="#0000EF" />
	<path d="M245.874 141.026C223.701 140.808 171.074 139.8 171.074 139.8C171.074 139.8 169.548 193.689 170.828 194.915C172.109 196.141 240.916 196.468 241.542 195.814C242.169 195.188 248.434 141.054 245.874 141.026Z" fill="#00007F" />
	<path d="M227.759 140.809C234.678 140.918 241.024 140.999 245.9 141.054C246.963 141.054 246.5 150.426 245.546 161.405C237.129 156.964 230.129 149.772 227.759 140.809Z" fill="#03036D" />
	<path d="M221.112 166.036C222.039 166.036 222.992 166.036 223.973 166.036C225.607 166.036 224.545 170.75 222.828 170.75C222.338 170.75 220.186 170.75 217.353 170.722C218.661 169.17 219.914 167.617 221.112 166.036Z" fill="#A8E4F4" />
	<path d="M199.675 167.235C200.792 166.908 206.73 166.336 215.665 166.091C215.502 166.309 215.338 166.5 215.175 166.717C214.058 168.052 212.914 169.36 211.743 170.668C205.314 170.641 198.559 170.586 198.559 170.586C198.559 170.586 198.232 167.671 199.675 167.235Z" fill="#A8E4F4" />
	<path d="M85.0611 220.204C77.0254 249.736 74.138 259.571 76.5623 259.326C78.9866 259.108 90.4 220.285 90.4 220.285L85.0611 220.204Z" fill="#A8E4F4" />
	<path d="M222.866 220.939C228.858 240.855 236.622 262.65 239.346 262.132C242.07 261.615 229.24 219.877 229.24 219.877L222.866 220.939Z" fill="#A8E4F4" />
	<path d="M71.9042 214.019C90.6178 213.829 247.681 215.082 248.553 216.689C249.425 218.297 252.693 221.757 243.323 222.928C233.952 224.072 176.123 220.476 142.945 221.212C109.767 221.947 69.6161 224.072 66.3746 219.904C63.1331 215.708 65.8843 214.074 71.9042 214.019Z" fill="white" />
</svg>