<svg fill="none" viewBox="0 0 383 265" xmlns="http://www.w3.org/2000/svg"><path d="m325.396 17.8994c-.71-.7628-1.392-1.5801-2.102-2.3702-1.801-2.0978-3.602-4.3318-6.359-5.0674-59.114 3.569-113.997 6.8927-192.379 11.6605 5.868 63.9418 12.418 172.8097 13.782 215.8547l62.853-7.465 81.302-9.644 63.344-9.481z" fill="#d2f1fc"/><path d="m267.725 61.824-139.147 12.8007.083.8953 139.147-12.8008z" fill="#fff"/><path d="m201.91 27.8091-.895.1066 9.661 80.8083.894-.106z" fill="#fff"/><path d="m253.127 17.082c-1.392-5.2308-1.665-15.14767-1.665-15.14767l28.138-1.93433 4.612 18.635z" fill="#d2f1fc"/><path d="m208.641 29.7778c-.627-10.7069-1.228-18.9891-.655-19.2616.574-.2724 37.472-3.02407 37.472-3.02407l1.992 19.56127z" fill="#d2f1fc"/><path d="m325.123 15.3111c-.328-2.9696-2.921-5.1764-5.895-4.9857-36.216 2.1251-72.46 3.896-108.73 6.5931-28.657 1.7164-57.286 3.46-85.942 5.2036.437 4.8767.873 9.7807 1.283 14.6574 18.04-1.226 197.128-11.4698 200.13-13.4041z" fill="#3ca184"/><path d="m175.046 33.8372c4.23-.7356 8.406-1.6619 12.527-2.8607 10.398-3.0241 19.104-8.1732 27.073-14.3576-1.392.109-2.784.1907-4.176.2997l-85.914 5.2036c.437 4.8767.873 9.7806 1.283 14.6573 5.294-.3542 24.562-1.4712 49.207-2.9423z" fill="#2c8469"/><path d="m345.864 211.414-63.344 9.481-81.302 9.644c-.027-.136-.027-.299-.055-.435-.081-.791-.382-1.417-.791-1.962 0-.136-.027-.3-.027-.436-2.729-15.747-3.084-34.545-3.084-51.6 0-4.005.027-7.874.027-11.633-.109-6.73.382-9.618.382-9.618l22.679-1.798 1.119 19.616c2.075-.218 4.149-.381 6.223-.545-2.047-15.965-2.702-55.469-2.702-55.469l19.841-1.062 1.419 19.752c9.17-.899 11.763-1.09 17.167-1.935 0-20.106-5.759-81.3506-5.759-91.322 20.169-1.9888 40.801-3.351 51.281-4.6042 1.256-.1635 4.203 29.7233 5.377 29.6143 3.821-.3814 16.047-1.8253 16.047-1.8253z" fill="#fff"/><path d="m136.865 47.786c24.099-2.5337 50.299-4.0049 50.299-4.0049s2.51 21.9588 3.165 22.7489c0 0-48.169 3.3237-51.363 3.9503 0-.0272-1.883-13.7855-2.101-22.6943z" fill="#fff"/><path d="m191.121 80.8604c-.437-4.2501-.792-7.8191-.792-7.8191s-46.669 2.5337-51.035 3.5418l.573 7.4376c17.084-1.4167 34.169-2.4247 51.254-3.1603z" fill="#fff"/><path d="m140.494 92.521.382 6.2661c1.61-1.7709 52.045-2.3975 52.045-2.3975-.218-.5449-.573-3.8414-.955-7.9825-17.166.9535-34.333 2.2613-51.472 4.1139z" fill="#fff"/><path d="m375.97 43.6687-114.724 4.7017.037.8983 114.724-4.7017z" fill="#53caf1"/><path d="m377.156 77.6669-113.211 8.1909.065.8967 113.211-8.1908z" fill="#53caf1"/><path d="m266.767 127.701-.01.899 111.065 1.336.011-.899z" fill="#53caf1"/><path d="m279.9 92.6025c.628 3.2965 2.538 6.4296 5.022 6.6748 1.555.1635 3.138-.8718 4.011-2.6154.846-1.6892 1.038-3.8142 1.147-5.8303.218-3.5145.327-7.029.327-10.5434 0-2.8062-.054-5.6668-.819-8.255-1.255-4.2228-5.731-7.7101-8.433-3.5145-1.883 2.9424-.928 8.8271-1.146 12.3688-.218 3.8959-.846 7.8463-.109 11.715z" fill="#3db5c9"/><path d="m375.995 155.512-106.422 3.112.026.899 106.422-3.113z" fill="#53caf1"/><path d="m268.928 42.4735c-3.711.0545-4.312-.109-2.783 16.6189 1.528 16.7279 5.103 106.8516 9.033 107.2876 3.903.436 3.548.953 2.347-17.6s-5.676-79.9887-5.676-87.0177c0-11.1428 0-19.3433-2.921-19.2888z" fill="#3db5c9"/><path d="m348.784 89.878c.109 1.3349.191 2.6972.764 3.9231.546 1.226 1.665 2.2613 3.002 2.343 1.474.0818 2.811-1.0352 3.439-2.3702s.682-2.8606.737-4.3591c.109-4.7404.054-9.4809-.164-14.1942-.082-1.6891-.191-3.4055-.709-4.9856-.519-1.5802-1.42-3.3511-3.002-3.9232-8.543-3.0513-4.476 18.0356-4.067 23.5662z" fill="#53caf1"/><path d="m372.882 38.9317c-1.747 0-3.084 1.5802-2.893 13.7311.6 35.608.655 106.9332.846 110.1752.027.517 1.528 1.907 2.483 0 .792-1.553 1.065-5.422 1.201-12.314.301-15.421.191-98.5968 0-102.7107-.245-5.3398 1.01-8.8816-1.637-8.8816z" fill="#3db5c9"/><path d="m359.891 89.9598c.028 1.335.055 2.7244.519 3.9777.464 1.2532 1.501 2.3974 2.838 2.6426 1.638.2997 3.248-.899 4.012-2.3702s.846-3.2148.928-4.8767c.191-4.2229.382-8.4457.573-12.6685.109-2.2613.191-4.5771-.491-6.7566s-2.238-4.5498-4.503-4.686c-5.459-.3269-4.121 9.263-4.094 11.3881.055 4.468.137 8.9088.218 13.3496z" fill="#3db5c9"/><path d="m282.874 168.886c.71 1.362 2.102 2.479 3.63 2.37 1.338-.082 2.456-1.062 3.084-2.234.628-1.171.819-2.506.955-3.841.519-4.686.628-9.427.301-14.14-.246-3.487-1.392-7.519-5.622-7.247-2.62.191-4.285 5.558-4.04 12.669.137 3.868-.109 8.881 1.692 12.423z" fill="#3db5c9"/><path d="m294.446 165.072c.027 1.035.082 2.098.519 3.078.436.981 1.337 1.853 2.538 2.044 1.419.245 2.893-.545 3.657-1.608.764-1.062.982-2.343 1.146-3.596.6-4.495.764-9.045.464-13.567-.082-1.417-.246-2.888-.955-4.169-2.238-4.086-7.888-2.643-8.024 1.471-.218 5.395.437 10.925.655 16.347z" fill="#53caf1"/><path d="m357.872 133.523c-.055 1.934-.11 3.95.709 5.694.846 1.744 2.866 3.079 4.694 2.452 2.129-.708 2.757-3.351 3.002-5.585.601-5.503.874-11.034.792-16.592-.027-2.67-.355-5.993-3.193-7.192-2.211-.926-3.794.136-4.694 2.152-2.32 5.34-1.092 13.404-1.31 19.071z" fill="#3db5c9"/><path d="m345.072 133.169c.11 1.934.273 3.95 1.092 5.639s2.456 2.997 4.094 2.643c1.255-.272 2.238-1.498 2.756-2.888.519-1.389.601-2.915.655-4.413.164-4.714 0-9.454-.546-14.113-.3-2.506-.791-5.53-2.811-6.947-1.719-1.199-3.739-.899-4.83 1.09-1.256 2.261-.792 5.803-.792 8.336.028 3.542.164 7.111.382 10.653z" fill="#53caf1"/><path d="m310.794 50.8099c.027 2.2341.272 4.8767 2.046 5.912 1.474.8446 3.357 0 4.394-1.4167 1.038-1.4439 1.42-3.3238 1.665-5.1219.601-4.0321.792-8.3367-.818-12.0146-1.365-3.1058-5.732-5.2581-7.124-1.008-1.173 3.6507-.191 9.7806-.163 13.6492z" fill="#53caf1"/><path d="m350.967 48.4671c-.027 1.4439-.054 2.9151.382 4.2773.437 1.3622 1.447 2.6427 2.839 2.9969 1.61.4086 3.329-.4632 4.312-1.7709.982-1.3077 1.392-2.9969 1.637-4.6043.437-2.7789.492-5.585.219-8.3911-.328-3.2421-3.303-10.0531-7.669-6.8111-3.193 2.3703-1.665 10.8704-1.72 14.3032z" fill="#3db5c9"/><path d="m280.527 51.3005c.246 1.8526.737 3.7324 1.829 5.1218 1.119 1.3895 2.975 2.1523 4.503 1.3895 1.665-.8173 2.347-3.0241 2.674-5.0129.683-4.0866.546-8.3367-.382-12.3688-.327-1.3895-.737-2.7789-1.555-3.896-2.074-2.8878-5.813-2.0705-6.687 1.335-.982 3.9232-.9 9.5082-.382 13.4314z" fill="#53caf1"/><path d="m295.483 51.4094c.054 1.226.109 2.4792.491 3.6235.382 1.1442 1.119 2.234 2.156 2.6426 1.337.5722 2.893-.0817 3.903-1.2532.982-1.1442 1.501-2.6972 1.855-4.2501.71-3.0241.874-6.1844.546-9.2629-.382-3.569-4.285-11.0884-8.105-6.5659-2.511 2.9969-1.01 11.5515-.846 15.066z" fill="#53caf1"/><path d="m89.9507 243.889c23.8253 0 281.4043.871 287.5723 0 6.168-.872-1.365-56.505-74.206-46.07-72.869 10.434-105.864 32.829-145.547 29.914-39.682-2.942-55.483-2.67-67.8193 16.156z" fill="#53caf1"/><path d="m304.464 197.656c-11.163 12.995-20.906 27.38-39.082 30.922-3.93.763-9.17 1.444-14.383 1.28-6.168-.191-12.199 1.744-17.193 5.394-4.422 3.243-8.952 6.239-13.619 8.909 74.697.137 153.952.191 157.336-.299 6.141-.872-1.282-55.905-73.059-46.206z" fill="#3db5c9"/><path d="m329.818 139.653c-.546-3.95-1.092-7.874-1.638-11.824-.382-2.779-3.739-4.414-6.25-3.787-2.947.708-4.175 3.46-3.793 6.239.546 3.95 1.092 7.873 1.637 11.824.382 2.779 3.739 4.413 6.25 3.787 2.948-.709 4.176-3.46 3.794-6.239z" fill="#dd689d"/><path d="m312.488 129.164c4.23 1.172 27.592-27.598 23.853-32.1751-8.761-10.7069-33.078-10.7887-25.354 7.6011-12.063-4.9584-15.393 4.822-14.547 10.298 1.338 8.391 8.461 12.151 16.048 14.276z" fill="#fe7eb2"/><path d="m336.341 96.9889c-1.228-1.4984-2.783-2.8061-4.503-3.8687.028.7356.028 1.4712-.027 2.2068-.218 4.0594-1.146 8.146-2.675 11.933-1.61 4.005-3.984 7.519-6.85 10.734-3.22 3.569-7.232 6.729-11.899 8.146-1.446.436-2.893.654-4.339.681 2.019.981 4.203 1.744 6.413 2.37 4.23 1.172 8.624 2.044 13.018 1.662 4.367-.381 8.788-2.125 11.654-5.421 2.784-3.188 3.903-7.52 4.121-11.742.327-5.967-1.146-12.124-4.913-16.7011z" fill="#dd689d"/><path d="m315.708 98.6234c3.548 3.0516 9.798 1.7986 11.763 6.8656.737 1.88-6.659 3.651-5.103 13.132 2.047 12.423 14.983.463 18.23-.164.383-1.58.601-3.187.683-4.822.3-5.912-1.201-12.069-4.94-16.6735-6.059-7.3831-19.514-9.7261-24.726-4.3863.846 2.2885 2.156 4.3863 4.093 6.0482z" fill="#00007f"/><path d="m336.914 104.671c1.829.6 3.821.409 5.759.218 2.347-.245 4.748-.463 6.986-1.253 2.238-.763 4.367-2.125 5.622-4.1409 1.256-2.0161 1.447-4.7678.11-6.7021-1.256-1.8254-3.576-2.6972-5.814-2.6972-2.21 0-4.394.6811-6.495 1.3895-2.32.7628-4.694 1.5529-6.605 3.0786-3.384 2.6699-4.585 8.4461.437 10.1071z" fill="#00007f"/><path d="m307.63 98.7596c-.655 1.7164-1.31 3.4604-1.446 5.2854-.137 1.825.354 3.787 1.692 5.067 1.119 1.063 2.674 1.499 4.203 1.526 2.892.055 5.758-1.389 7.45-3.76-4.23-2.67-8.242-5.394-11.899-8.1184z" fill="#fff"/><path d="m311.341 106.197c2.62-2.016-.518-5.912-3.166-4.223-2.756 1.798.464 6.294 3.166 4.223z" fill="#00007f"/><path d="m327.199 115.569-.71-.572c.382-.463.764-.981.983-1.553.218-.572.245-1.144.027-1.58-.3-.708-1.092-1.09-1.965-1.471l-6.768-2.97.354-.817 6.769 2.97c.982.436 1.992.926 2.429 1.934.3.654.3 1.471-.028 2.261-.245.709-.709 1.281-1.091 1.798z" fill="#fff"/><path d="m310.004 119.956c-.491 0-.955-.082-1.419-.246l.328-.844c1.664.627 3.739-.273 4.421-1.907l.846.354c-.71 1.607-2.456 2.643-4.176 2.643z" fill="#e04136"/><path d="m316.363 104.318c-1.01-1.962-2.62-3.678-4.53-4.7954l.463-.7901c2.075 1.1988 3.794 3.0515 4.886 5.1765z" fill="#00007f"/><path d="m340.871 186.894c-7.778.736-15.775.3-23.58.899 1.282 12.478 1.992 24.575 0 25.501-3.958 1.88-9.225.218-10.617 2.152s16.703.055 16.703.055c2.21 1.171.573-16.837 5.213-17.927 4.912-1.117 10.207 13.949 10.48 15.584.272 1.634-1.965-.109-3.33 1.253-2.211 2.152 2.729 1.308 6.85 1.335 5.841.027 3.384-2.861 1.774-9.999-.928-3.868-2.183-10.979-3.493-18.853z" fill="#00007f"/><path d="m318.11 212.068c-.191.654-.464 1.09-.792 1.253-3.957 1.88-9.224.218-10.616 2.152-1.392 1.935 16.702.055 16.702.055.737.381 1.037-1.308 1.283-3.76-2.211.164-4.394.273-6.577.3z" fill="#0000d8"/><path d="m338.633 211.632c.245.735.409 1.28.436 1.526.273 1.634-1.965-.109-3.329 1.253-2.211 2.152 2.729 1.308 6.85 1.335 3.93.027 4.094-1.308 3.302-4.332-2.456.109-4.858.218-7.259.218z" fill="#0000d8"/><path d="m316.201 137.637c.764-2.97 1.637-3.596 1.637-3.596s13.537-1.417 13.946 0c.41 1.416 1.529 6.675 1.529 6.675z" fill="#1a5b45"/><path d="m316.2 188.665c7.805-.654 17.767.163 25.599-.027-2.21-15.666-4.612-35.091-4.912-37.951-.955-9.345-2.265-12.396-8.133-14.113-6.168-1.771-8.406-.599-15.693-1.035-3.493-.218.273 9.753 1.501 19.016 1.037 7.956.71 21.333 1.638 34.11z" fill="#2c8469"/><path d="m336.887 150.687c-.137-1.28-.273-2.452-.437-3.487-2.757 1.362-5.131 3.433-7.123 5.83-2.456 2.97-4.312 6.566-5.24 10.298-.628 2.534-.628 5.258-.573 7.874.054 2.751.3 5.503.518 8.228.219 2.697.41 5.394.246 8.118-.027.3-.055.6-.055.899 5.95.028 12.227.354 17.549.218-2.184-15.692-4.585-35.117-4.885-37.978z" fill="#1a5b45"/><path d="m320.756 136.629c-5.267-.572-10.753-1.226-15.474-3.814-4.285-2.371-7.451-6.266-9.907-10.435-3.984-6.811-6.55-14.439-7.614-22.258-2.893.163-7.096 1.553-9.934 2.043.545 4.032.491 12.233 1.719 16.156 1.774 5.667 6.577 5.857 9.852 10.707 3.275 4.877 7.478 9.236 12.8 11.878 5.786 2.861 12.227 3.651 18.558 4.332 5.486.599 5.459-8.01 0-8.609z" fill="#2c8469"/><path d="m278.565 91.9213c.027 3.4327.273 6.8927.791 10.3527 2.702-1.144 5.513-2.071 8.324-2.8333-.273-2.1523-.437-4.3319-.491-6.5114.3-3.1603 3.193-6.2934 4.285-7.7101 1.091-1.4166-.901-2.9696-1.747-1.6891-.819 1.2805-2.92 2.9151-2.838.6266.081-2.2885-.383-11.0883-2.975-10.5979-1.338.2452-.219 7.3286-.219 7.3286s-.627-2.2885-2.019-1.907c-1.365.3541-1.092 2.4519-1.092 2.4519s-.546-1.008-2.074-.5449c-1.501.4632-.164 7.9281.055 11.0339-.028 0 0 0 0 0z" fill="#fe7eb2"/><path d="m280.9 81.518-.892.118.533 4.0244.893-.1179z" fill="#00007f"/><path d="m284.29 80.0712-.898.0672.391 5.2162.898-.0672z" fill="#00007f"/><path d="m279.11 100.122c-.573.19-1.146.436-1.583.872-.437.435-.682 1.089-.491 1.661.191.518.682.845 1.201.981.518.136 1.091.082 1.61 0 2.265-.272 4.476-.681 6.686-1.253.955-.245 2.074-.736 2.184-1.716.081-.736-.519-1.3899-1.201-1.6623-1.174-.4087-2.893-.0272-4.094.109-1.446.1634-2.893.4904-4.312 1.0083z" fill="#1a5b45"/><path d="m311.458 134.984-.893.118 1.159 8.778.893-.118z" fill="#1a5b45"/><path d="m364.997 166.08c-12.991 2.642-16.812 4.876-16.539 6.32s3.575 18.581 5.977 18.553c1.883-.027 26.882-6.456 27.81-7.655 1.501-1.935-2.592-17.763-3.957-18.526-1.392-.79-7.724.163-13.291 1.308z" fill="#0000d8"/><path d="m365.079 168.041c-10.808 2.18-13.946 4.032-13.728 5.231s2.975 15.42 4.967 15.393c1.556-.027 22.297-5.367 23.089-6.348 1.255-1.607-2.156-14.739-3.303-15.366-1.146-.653-6.413.164-11.025 1.09z" fill="#fff"/><path d="m376.105 166.951c-1.147-.626-6.414.164-11.026 1.117-4.694.954-7.942 1.853-10.098 2.643.027.109.055.245.109.354 1.037 1.362 1.965 2.779 2.757 4.278 1.282 1.28 2.838 2.37 4.284 3.296.846.545 1.174 1.444.983 2.398-.41 2.179-.955 4.359-1.501 6.538 6.686-1.635 17.248-4.522 17.794-5.231 1.228-1.634-2.156-14.766-3.302-15.393z" fill="#ffd833"/><path d="m365.352 176.868v.055c2.756-.818 5.594-1.281 8.46-1.689-1.965-9.045-7.805-16.892-15.12-22.749-4.721-3.787-9.879-6.893-15.146-9.863-5.486-3.078-10.753-5.721-17.085-6.484-5.486-.681-5.431 7.928 0 8.609 5.076.627 9.661 3.569 14.028 6.049 4.121 2.343 8.215 4.767 11.954 7.683 4.012 3.105 4.776 9.589 7.232 13.894 1.283 2.261 5.104 1.934 5.677 4.495z" fill="#2c8469"/><path d="m374.549 182.317c.027-2.506-.246-4.958-.792-7.301-2.783.681-5.594 1.28-8.405 1.852.382 1.744.6 3.569.573 5.449 0 .218 0 .436.027.627-.328 3.078-1.419 5.448-1.419 5.448l-3.439 1.09s2.511 2.452 4.858 1.063c0 0 1.283 1.825 3.193.327 0 0 1.501 1.389 3.22-.218 1.747-1.608 2.184-3.133 2.184-8.337z" fill="#fe7eb2"/><path d="m365.98 190.872-.328-.845c.983-.381 1.774-1.28 1.965-2.315l.901.19c-.246 1.308-1.255 2.48-2.538 2.97z" fill="#00007f"/><path d="m369.418 191.417-.491-.763c1.092-.709 1.801-2.016 1.829-3.324h.9c-.027 1.635-.873 3.187-2.238 4.087z" fill="#00007f"/><path d="m364.315 176.568c.109.491.546.818 1.037.927s.983.054 1.447-.028c2.047-.326 4.093-.79 6.086-1.362.818-.245 1.719-.572 2.019-1.362.273-.708-.109-1.58-.764-1.989-1.446-.899-3.739.136-5.213.654-1.255.436-4.994 1.362-4.612 3.16z" fill="#1a5b45"/><path d="m338.436 141.228-2.541 5.759.825.363 2.54-5.76z" fill="#1a5b45"/><path d="m301.951 58.5474-3.712.1634-3.603 9.3175 2.429-1.1443c1.829-2.6426 4.886-8.3366 4.886-8.3366z" fill="#fe673c"/><path d="m294.146 73.1502c1.801-1.7981 11.108-8.8816 11.108-8.8816s4.012 4.4408 3.821 4.6315-12.964 5.8302-13.291 5.8847c-.355.0273-1.638-1.6346-1.638-1.6346z" fill="#fe673c"/><path d="m307.681 220.486c-2.32-.245-2.675-.245-4.094-.381-1.146-.109-3.084 44.19-3.084 44.19h2.511s5.322-43.727 4.667-43.809z" fill="#e04136"/><path d="m344.635 221.548c2.838 23.921 6.167 42.91 6.713 42.91h2.593s-3.466-43.318-3.63-44.299-5.676 1.389-5.676 1.389z" fill="#e04136"/><path d="m352.195 218.688c.955 3.678 6.413 45.634 7.068 45.606.655-.054 3.357.164 3.357.164l-4.339-45.77z" fill="#e04136"/><path d="m323.62 215.582c-24.999.735-25.354 1.416-25.272 3.46 0 .354-.246 2.397 1.91 2.67 10.044 1.28 40.61 0 48.47 0 14.219 0 12.009-1.145 11.981-4.141-.027-3.27-20.414-2.507-37.089-1.989z" fill="#ffd833"/><path d="m360.709 217.57c-.027-2.315-10.316-2.588-22.243-2.397-3.111 1.308-6.413 2.316-9.361 3.514-3.22 1.308-6.468 2.507-9.743 3.597 11.735-.082 24.644-.545 29.366-.545 14.192-.027 11.981-1.172 11.981-4.169z" fill="#f3cf14"/><path d="m359.345 243.834-1.338-1.09s-25.026.354-54.719 0c0 0-3.112 2.997 0 3.051 2.729.055 45.986-.081 56.166-.109-.055-.599-.082-1.226-.109-1.852z" fill="#e04136"/><path d="m48.0039 245.699c-1.934 8.119-3.5684 15.529-6.3741 13.949-1.6616-.926-.9806-13.813-.9806-13.813z" fill="#f4a914"/><path d="m61.8684 247.579c-1.0079 8.391-2.1247 13.431-4.7942 13.404-2.9963-.027-.8444-14.467-.8444-14.467z" fill="#f4a914"/><path d="m189.023 241.557c.517 15.529-1.471 17.845-3.487 17.109-2.016-.708-3.786-14.984-3.786-14.984z" fill="#f4a914"/><path d="m161.838 147.02c-50.502-4.277-119.4457-2.56-127.6175 4.714-8.1719 7.274-19.6398 92.875-1.4437 95.981 18.1688 3.105 156.4092 7.546 164.1182-4.278s9.752-54.624 1.553-56.259c-8.199-1.607-21.737-1.825-21.737-1.825s5.475-36.616-14.873-38.333z" fill="#ffe266"/><path d="m47.104 147.974c-6.8916 9.099-9.7245 15.665-12.3123 31.739-.7082 4.496-3.296 9.182-6.7826 12.287-1.1713 1.063-2.4788 1.717-3.8136 2.071 2.0158-20.188 6.3196-39.095 9.997-42.337 1.7705-1.581 6.4013-2.888 13.0477-3.951-.0272.082-.0817.136-.1362.191z" fill="#f4a914"/><path d="m46.9682 175.191c1.6616-3.76 4.4128-7.029 7.7633-9.399 6.8099-4.85 15.581-7.574 23.6712-9.236 8.2536-1.689 18.3322-2.643 25.7963 2.07 7.3 4.577 11.876 13.432 9.806 21.986-.845 3.542 3.214 5.449 5.584 3.978 3.514 2.888 7.355 5.231 11.795 6.566.871.245 2.642.463 3.35 1.171.954.954.899 3.406 1.117 4.605 1.689 9.426 9.425 14.139 18.251 16.019 5.012 1.063 10.16 1.417 15.254 2.071 5.911.79 11.849 1.58 17.787 2.016 4.113.3 8.227.381 12.285.136-.79 9.835-5.448 19.643-7.981 29.124-12.122 3.623-41.949 4.849-72.621 4.822-.109-.136-.218-.3-.354-.436-7.545-7.71-25.4416-9.726-30.1813.055-4.4673-.109-8.8529-.245-13.0478-.382-3.2143-1.553-6.6737-3.705-8.3353-6.674-1.825-3.297-1.2803-7.574-.6537-11.116 1.3892-7.792 3.4049-15.202 3.2687-23.212-.1089-5.667-1.6889-10.979-6.483-14.358-3.0236-2.125-6.5648-3.16-10.1059-4.059-2.3971-.627-5.6386-1.063-6.9189-3.46-1.7978-3.406-.4903-8.991.9534-12.287z" fill="#f4a914"/><path d="m95.2102 223.473 73.3888 1.72-.021.872-73.3882-1.72z" fill="#ffe266"/><path d="m149.008 185.788c1.907 11.061 9.289 3.215 17.651 5.367 8.363 2.18 8.336 12.669 5.802 12.941-2.533.273-2.969-1.634-2.969-1.634s-.844 1.307-2.615 1.743c-1.77.436-2.86-2.261-2.86-2.261s.109 2.289-2.342 2.343c-2.452.055-1.662-3.76-4.386-2.643-2.724 1.09-9.779 6.049-14.192-.19-4.44-6.212 5.911-15.666 5.911-15.666z" fill="#3db5c9"/><path d="m164.753 203.252c.273-2.18-.354-4.441-1.716-6.185l-.681.545c1.199 1.526 1.771 3.597 1.526 5.531z" fill="#00007f"/><path d="m170.119 202.598c.6-1.771.3-3.787-.79-5.285l-.708.517c.926 1.281 1.171 2.997.654 4.496z" fill="#00007f"/><path d="m159.032 199.029c-1.77 2.615.082 4.522-2.424 4.931-1.362.218-1.852-3.841-1.035-5.694.817-1.825 3.459.763 3.459.763z" fill="#3db5c9"/><path d="m159.223 200.527.626-1.634-.79-.3-.653 1.607z" fill="#00007f"/><path d="m106.896 131.055c-6.565.136-10.9229.191-10.9229.191s10.7329-4.169 15.1999-4.414c4.494-.218-4.277 4.223-4.277 4.223z" fill="#0000ef"/><path d="m91.3426 217.173s.7354-34.191 2.9146-55.36c.0273-1.443.1362-2.915.3269-4.304.2452-2.016.5993-4.005 1.0896-5.994 0 0 0 0 0-.027 1.9885-8.337 6.0473-16.21 12.5843-21.632 8.118-6.702 20.485-8.745 29.392-3.16 5.475 3.46 9.098 9.29 11.141 15.447 1.825 5.585 1.089 12.968 4.195 17.954 2.751 4.441 6.701 7.71 5.339 13.622-.899 4.032-3.923 7.329-7.491 9.399l-2.642 33.075z" fill="#53caf1"/><path d="m92.7864 181.184c0-.054 0-.109 0-.163.109-1.88.2179-3.733.3541-5.585 0-.055 0-.137.0272-.191.1362-1.825.2452-3.651.3814-5.422 0-.081 0-.136.0272-.218.0818-.871.1362-1.743.218-2.615v-.027c.0817-.845.1362-1.689.2179-2.507 0-.081 0-.136.0272-.218.0818-.817.1635-1.634.2452-2.424 0 0 0 0 0-.028 0-.572.0545-1.117.0817-1.661.0272-.355.0545-.682.0817-1.036.0545-.545.0817-1.062.1635-1.607.2451-2.016.5992-4.005 1.0895-5.994 0 0 0 0 0-.027 1.9885-8.337 6.047-16.21 12.585-21.632 4.086-3.378 9.261-5.585 14.518-6.212-5.665 5.749-16.371 20.188-14.219 46.479.681 8.391 14.001 10.489 21.656 10.68 9.207.245 19.83-.491 27.512-5.313-1.281 3.215-3.896 5.857-6.919 7.601l-2.642 33.074-56.8221.981c-.0272.055.3542-17.954 1.4165-35.935z" fill="#3db5c9"/><path d="m106.896 131.055c2.207-9.89 26.205-13.241 35.194-7.029 4.004 2.752 2.642 5.558 1.28 7.901-12.149-.545-24.325-.572-36.474-.872z" fill="#0000ef"/><path d="m121.77 183.799c7.409 1.226 14.927 1.58 22.391 1.008 2.233-.163 4.385-.463 6.565-.953l-2.561 32.339-56.8218.98s.4903-23.593 1.9068-43.726c8.826 5.067 18.387 8.663 28.52 10.352z" fill="#e04136"/><path d="m92.2685 190.747c.5448.245 1.0624.49 1.6071.735.0273 1.989.79 3.869 2.043 5.558-.1907.436-.3541.899-.4631 1.389-.8716 3.406.8172 7.356 4.1405 8.746 5.094 2.098 9.261-3.351 10.814-7.928 5.884 3.296 11.196 7.383 15.064 13.458.789 1.226 1.389 2.507 1.879 3.842l-35.9834.626c-.0273 0 .2452-12.15.8989-26.426z" fill="#cc332f"/><path d="m137.786 156.474c-2.778 1.743-6.537 1.771-9.288-.028-2.752-1.798-4.25-5.285-3.623-8.5.626-3.214 3.405-5.912 6.646-6.375 2.969-.436 7.191 1.771 8.771 4.577 1.88 3.406.491 8.419-2.506 10.326z" fill="#fff"/><path d="m134.571 141.871c2.316.708 4.631 2.343 5.721 4.277 1.907 3.406.517 8.419-2.479 10.326-1.989 1.253-4.495 1.607-6.756 1.035 1.145-5.203 2.152-10.462 3.514-15.638z" fill="#03036d"/><path d="m140.647 137.92.79-.354c-1.308-2.915-4.223-4.985-7.382-5.312-3.16-.3-6.429 1.171-8.281 3.787l.708.49c1.662-2.37 4.604-3.705 7.491-3.433 2.86.3 5.502 2.18 6.674 4.822z" fill="#00007f"/><path d="m141 129.72c.926-3.051.164-4.931-2.669-4.686-2.806.245-7.355 4.168-7.355 4.168 3.841.191 7.137.355 10.024.518z" fill="#ffb0d8"/><path d="m125.201 173.747c.163 0 .327 0 .49-.028l-.054-.872c-1.716.137-3.46-.49-4.713-1.689-1.253-1.198-1.961-2.915-1.906-4.604l-.872-.027c-.055 1.961.763 3.923 2.179 5.258 1.308 1.253 3.105 1.962 4.876 1.962z" fill="#00007f"/><path d="m91.3421 217.174c.0817-3.324 56.8219-.981 56.8219-.981s1.58 6.484.136 7.819-4.93 1.853-4.93 1.853c-12.558-1.063-43.4202-.3-47.5878-1.281-3.2688-.763-4.549-1.88-4.4401-7.41z" fill="#0000ef"/><path d="m143.588 226.192c-.055-.136-.137-.245-.246-.327-.109.027-1.089-1.09-1.389-1.09-2.533.273-3.95-1.117-3.977-3.514-.054-2.725 2.098-4.523 4.631-4.795 3.977-.436 7.682 2.179 9.398 5.639 2.097 4.196 1.035 8.773-.463 12.968-.872 2.398-3.106 4.06-5.721 3.379-2.288-.6-4.249-3.324-3.377-5.722.572-1.58 1.852-4.086 1.361-5.857-.054-.218-.163-.463-.217-.681z" fill="#0000ef"/><path d="m117.764 225.32c-1.989-1.581-1.744-4.959-.109-6.648 1.906-1.989 4.658-1.689 6.646-.109 6.32 4.986 4.032 13.268 1.172 19.425-2.561 5.503-10.76.872-8.2-4.604 1.117-2.479 3.078-6.021.491-8.064z" fill="#0000ef"/><path d="m143.424 230.114c3.078.545 6.129 1.008 9.234 1.363-.299 1.226-.681 2.424-1.089 3.596-.872 2.397-3.105 4.059-5.72 3.378-2.289-.599-4.25-3.324-3.378-5.721.218-.736.626-1.635.953-2.616z" fill="#00007f"/><path d="m117.382 233.084c3.078.681 6.156 1.39 9.18 2.289-.354.899-.708 1.771-1.117 2.588-2.56 5.503-10.759.872-8.199-4.604.055-.109.109-.191.136-.273z" fill="#00007f"/><path d="m150.07 235.073c3.133 4.305 9.425 3.733 9.67 5.858s-5.775 1.117-11.114-.954c-5.339-2.07-7.736-2.425-6.238-7.056 1.499-4.632 7.682 2.152 7.682 2.152z" fill="#00007f"/><path d="m125.473 237.961c-.735 3.596 3.677 7.002 5.584 9.018 1.934 1.989-2.125 3.242-7.436-1.771-5.312-5.013-8.417-6.266-7.083-9.753 1.335-3.488 8.935 2.506 8.935 2.506z" fill="#00007f"/><path d="m117.819 192.327c7.927-1.58 17.842-5.422 20.484 4.359 2.397 8.827-3.432 6.866-3.623 4.305 0 0-.218 5.53-4.658 1.634 0 0-.136 1.281-2.016 1.172-1.906-.109-3.35-2.779-4.821-2.316-1.498.463-4.059 7.438-13.783 2.643-.545-.273-1.035-.572-1.471-.845 1.471-4.658 5.148-8.064 9.888-10.952z" fill="#53caf1"/><path d="m118.092 205.377c-1.989.708-4.767.708-8.69-1.253-.545-.273-1.035-.572-1.471-.845.681-2.152 1.852-4.032 3.351-5.721 3.377 1.308 6.238 4.468 6.81 7.819z" fill="#3db5c9"/><path d="m135.934 192.327c5.311 2.397 7.872 2.343 7.327 4.059-.545 1.717-8.09-.953-8.09-.953z" fill="#53caf1"/><path d="m101.611 207.72c2.234 0 4.522-1.008 6.102-2.752l-.654-.572c-1.552 1.717-3.868 2.643-6.047 2.452-2.2607-.218-4.3581-1.689-5.2298-3.705-.8989-2.07-.4086-4.631 1.1713-6.13l.4903-.49-.6538-.245c-1.4981-.545-2.6422-2.044-2.7511-3.651-.109-1.607.7899-3.242 2.1791-4.005l-.4086-.763c-1.7161.926-2.7784 2.888-2.6422 4.822.1362 1.744 1.1985 3.324 2.7239 4.142-1.4982 1.77-1.8795 4.413-.9261 6.647 1.0079 2.316 3.3232 3.978 5.938 4.223.273.027.491.027.708.027z" fill="#d2f1fc"/><path d="m119.999 190.529.463-.736c-3.35-2.07-7.463-2.751-11.304-1.852l.19.844c3.623-.872 7.491-.218 10.651 1.744z" fill="#d2f1fc"/><path d="m134.653 202.435.872-.028c-.082-2.942-1.362-5.775-3.46-7.819l-.599.627c1.934 1.88 3.078 4.522 3.187 7.22z" fill="#00007f"/><path d="m129.805 203.143h.872c0-2.507-1.253-5.04-3.242-6.593l-.544.681c1.798 1.389 2.914 3.65 2.914 5.912z" fill="#00007f"/><path d="m137.194 194.166 1.144 2.503-.793.362-1.143-2.502z" fill="#00007f"/><path d="m22.072 66.9772c10.5689 3.3511 17.7057 7.3832 24.1887 16.8641 5.6386 8.255 13.2657 17.2187 17.733 26.0997-2.4516 5.013-5.911 10.162-9.888 10.952-8.1174 1.608-38.435-2.424-38.435-2.424l-11.00481-25.5826s8.41701-12.8048 17.40611-25.9092z" fill="#a8e4f4"/><path d="m41.5197 84.3041c1.3619-2.0978 4.1949-3.0785 6.4285-1.6891.8717.5449 7.8177 5.4761 8.1446 5.8302.0273.0273.7355-.2452-.0817 2.2341-.7627 2.343-3.296 4.1138-5.802 3.2693-2.4243-.8174-4.8214-1.8526-7.0006-3.2149-2.0974-1.2804-3.078-4.25-1.6888-6.4296z" fill="#e04136"/><path d="m14.8257 89.2082c4.0859-1.6892 8.1446-3.4056 12.2305-5.0947 2.0157 4.8222 7.5998 7.7646 12.7753 7.029 5.1756-.7356 10.5962-20.7055 6.9734-24.4924-3.6229-3.7597-9.0163-5.6396-14.2463-5.2854-3.6774.2724-7.4909 1.7436-9.6156 4.7677-2.6422 3.7325-.0272 7.6829-1.9612 10.8977-2.4788 4.1411-5.1755 7.1924-6.1561 12.1781z" fill="#fe673c"/><path d="m38.4697 63.9802c-.681-.8719-1.4164-1.6892-2.1791-2.5065 3.9497.5176 7.736 2.2885 10.5145 5.1491 3.6228 3.7597 5.2845 9.4265 3.9497 14.4939-1.3075 4.9584-5.6114 9.0995-10.6507 9.9441 9.7246-11.824 1.1441-23.5934-1.6344-27.0806z" fill="#e04136"/><path d="m31.1147 74.8779c-3.3777 1.0898-6.5375.5449-9.3432-.8991.0817-2.5064-.6538-5.2308 1.1985-7.8735 2.1247-3.0241 5.911-4.4953 9.6156-4.7677 2.3426-.1635 4.7125.1362 6.9461.8173-1.0078 5.1491-3.2415 11.0611-8.417 12.723z" fill="#e04136"/><path d="m38.6881 67.4402c-6.2651 4.0049-14.1374 5.3671-21.3831 3.7052-1.4437-.3269-2.9146-.8173-4.0042-1.7981s-1.7433-2.6154-1.2258-4.0049c.7355-1.9343 3.187-2.4792 5.23-2.7516 4.0859-.5177 8.1719-1.0353 12.2578-1.553 6.6192-.8445 23.6712-1.8798 22.9085 9.0451-.2179 3.351-2.9963 6.5113-6.5375 6.0209-1.9067-.2724-3.7591-1.6891-4.9576-3.133-.4903-.6267-3.187-4.9585-2.2881-5.5306z" fill="#00007f"/><path d="m30.8703 76.4578c-.1635.7356-.7355 1.2533-1.362 1.4167-.4631.1363-1.0079.0818-1.4709-.1634-.4631-.2452-.8445-.7084-1.0079-1.2533-.2724-.899.1634-1.907.8717-2.3157 1.3347-.7356 3.4322.3269 2.9691 2.3157z" fill="#fff"/><g fill="#00007f"><path d="m27.8727 74.1969c.681 1.1715 1.3348 2.3702 1.9613 3.569-.109.0545-.2179.109-.3269.1362-.4631.1362-1.0079.0817-1.4709-.1635-.4631-.2452-.8445-.7083-1.0079-1.2532-.2452-.8991.1634-1.8798.8444-2.2885z"/><path d="m25.6668 73.8426c.6537-.6539 1.5798-1.0625 2.5332-1.117.9262-.0545 1.8796.2724 2.6151.8445l.5448-.6811c-.8989-.7083-2.0703-1.0897-3.2143-1.0352-1.1441.0545-2.2609.5448-3.0781 1.3622z"/><path d="m30.1338 84.6039c1.2803-.0817 2.3426-1.2532 2.3154-2.5337l-.8717.0272c0 .7901-.7083 1.5802-1.4982 1.6347z"/><path d="m69.768 67.5493c.3541 2.561-.5176 5.2581-2.2882 7.138-1.7705 1.8798-4.3855 2.9151-6.9733 2.7516.8989.109 1.7978.2452 2.5878.6811.7899.4359 1.4436 1.2533 1.3892 2.1523-.0545 1.4439-1.7161 2.234-3.1326 2.4247-3.4322.4359-7.0551-1.0352-9.207-3.7052-1.2258-1.5256-2.9419-4.8222-2.1247-6.8655.681-1.7436 2.8057-1.3894 4.3584-1.2805 5.4479.3542 10.6779-.3541 15.3904-3.2965z"/><path d="m29.481 166.009c-3.3777-.381-6.7282-.844-10.0787-1.28-.0272-3.324-.1907-8.5-.3269-13.35-.0817-2.779-.1361-5.421-.1634-7.519-.0545-7.683 2.2337-10.762 9.9152-10.462h.0545c.4631.027.9806.055 1.4982.109.4086.082.8172.191 1.2803.354 9.8335 3.46 26.8582 14.113 39.2795 15.775-13.1295.708-34.1857-4.496-38.1355-1.69-2.6967 1.935-3.2415 11.661-3.3232 18.063z"/></g><path d="m19.3485 168.053c.0818-.464.0818-1.989.0545-4.114 3.3777.245 6.7554.436 10.1331.626-.0817 3.678 0 6.648.0273 7.111.0272 1.253-4.5763 2.18-9.8063 1.417-5.23-.79-15.03617.19-14.13726-1.826.84442-2.043 13.42906-1.607 13.72866-3.214z" fill="#3ca184"/><path d="m19.4025 166.963c0-.736 0-1.771 0-3.024 3.3777.245 6.7554.436 10.1331.626-.0272 1.036-.0272 2.016-.0272 2.888-3.4049-.054-6.7554-.245-10.1059-.49z" fill="#fe673c"/><path d="m18.9118 143.86c0 1.199.0273 2.588.0545 4.032-1.9884-1.744-4.1404-3.324-6.3468-4.795 1.5254-4.168 1.6889-14.739 8.9346-21.032 9.9697-8.664 30.4538 3.514 31.4889 3.487.3814 0-2.2881-4.223-4.8486-9.835 9.3704-1.199 18.7408-2.643 28.1657-3.569 1.4709 3.541 2.8602 7.274 4.1949 11.034 6.8371 19.343 5.0393 27.189-7.4909 26.617-.7082-.027-1.4164-.109-2.1519-.191-12.4213-1.662-29.446-12.314-39.2795-15.774-.463-.163-.8716-.272-1.2802-.354-.5448-.109-1.0351-.136-1.4982-.109h-.0545c-7.6271-.273-9.9424 2.806-9.888 10.489z" fill="#03036d"/><path d="m9.95066 144.568c1.74334.981 2.50604-.354 3.13254-2.833 2.0157 1.526 3.977 3.16 5.8838 4.822.0272 1.498.0817 3.16.1089 4.849-.6265 1.254-1.3347 2.371-2.2336 3.188 0 0-17.269928-10.026-16.83409459-13.05.43583459-3.051 4.82141459.164 9.94245459 3.024z" fill="#2c8469"/><path d="m11.7209 144.623c.5993-.463.9806-1.499 1.3347-2.915 2.0158 1.525 3.977 3.16 5.8838 4.822.0272 1.28.0545 2.697.1089 4.114-2.3698-2.071-4.8214-4.087-7.3274-6.021z" fill="#fe673c"/><path d="m77.7495 149.363.6537-.572c-1.1985-1.389-1.9612-3.187-2.1519-5.013-.1634-1.416 0-2.888.1634-4.304l1.1713-10.38 4.4946-.327-.0545-.872-5.2028.381-1.253 11.089c-.1634 1.471-.3269 2.969-.1634 4.495.1906 2.016 1.0351 3.978 2.3426 5.503z" fill="#53caf1"/><path d="m1.75143 94.9841c.35412-.8718 1.74335-2.0978 2.91465-2.0978.70823 0 11.00472 25.5817 11.00472 25.5817l26.5586-.054c.0545 3.705-.4358 5.966-.4358 5.966s-24.5973-.299-25.578-.408c-.9806-.109-1.253-5.04-2.1519-5.068-1.4709-.027-2.4515.028-2.4515.028s-10.16041-23.2123-9.86077-23.9479z" fill="#3db5c9"/><path d="m60.0979 116.67c-3.5684.545-7.1095 1.036-10.6779 1.526-2.2609-4.577-4.8487-10.625-5.5024-16.074-.7355-6.1846 1.3619-13.4043 8.9073-15.1479 10.7869-2.4792 18.7681 13.4039 30.4539 26.5899-5.7203.627-17.5423 2.234-23.1809 3.106z" fill="#ffb0d8"/><path d="m53.8593 104.274c3.405.736 6.7282 1.28 9.9152 2.806 3.8136 1.825 7.0006 4.468 8.9618 7.819-4.7124.627-9.5883 1.308-12.6391 1.798-3.5684.545-7.1095 1.036-10.6779 1.526-2.2064-4.441-4.6852-10.217-5.4207-15.529 3.3232.054 6.592.872 9.8607 1.58z" fill="#ff94c5"/><path d="m24.6314 110.513c.681-.844 1.9068-2.452 4.3856-3.215 3.2142-.98 6.4285-.653 9.7245.981 3.868 1.907 6.3468 5.585 9.9969 7.683 3.8136 2.18 7.0551-.572 7.6543-4.577.3541-2.452-.1362-4.904-.9806-7.247 2.9964-.627 5.9382-1.389 8.8256-2.37 2.4788 7.764 2.6968 16.128-4.6307 21.686-4.1949 3.188-9.5066 3.624-14.2463 1.362-2.5333-1.198-4.6852-3.16-6.7826-5.013-1.4982-1.335-4.0587-3.759-6.5103-3.678-1.9612 2.044-2.506 3.406-3.187 4.087-.8445.872-1.9613-.545-1.9613-.545-2.3426.954-2.2336-4.114-2.2336-4.114s-.7082 3.706-1.8795 2.616c-.8989-.845-1.3348-3.842 1.825-7.656z" fill="#fe673c"/><path d="m62.6311 106.536c-2.3699-.191-4.6307-.791-6.8916-1.444-.109-.327-.1907-.627-.3269-.954 2.9963-.627 5.9382-1.389 8.8256-2.37.5176 1.634.9262 3.269 1.1986 4.931-.9262-.054-1.8796-.082-2.8057-.163z" fill="#e04136"/><path d="m51.8448 122.882c2.4515-1.553 5.3389-.954 7.9267.436-.0545.054-.109.082-.1634.136-3.2688 2.479-7.1913 3.269-11.0048 2.452.9534-1.226 2.0702-2.261 3.2415-3.024z" fill="#e04136"/><path d="m65.0556 101.877.8172-.273c-1.3347-4.0589-2.724-6.8923-4.3311-8.8539l-.681.5449c1.5527 1.8798 2.9147 4.686 4.1949 8.582z" fill="#d2f1fc"/><path d="m53.3974 104.765.5175-.055c3.3777-.381 8.4715-1.362 11.713-2.561l-.2996-.817c-3.0236 1.09-7.7088 2.043-11.0048 2.452.1362-2.289.0545-4.904-.9534-8.2823l-.8172.2452c1.0351 3.5145 1.0352 6.1571.899 8.5001z" fill="#d2f1fc"/><path d="m26.7836 119.558.8444-.109c-.2724-1.989.2997-4.086 1.5527-5.667l-.681-.544c-1.362 1.743-2.0157 4.113-1.7161 6.32z" fill="#00007f"/><path d="m24.9868 116.888c.0273-1.879.681-3.759 1.8523-5.258l-.681-.517c-1.253 1.634-1.9885 3.678-2.0157 5.775z" fill="#00007f"/><path d="m214.847 190.992c-7.055.163-16.18.272-16.18.272s1.444 16.047.3 17.627c-1.145 1.581-7.982.709-7.954 1.826.027 1.117.054 3.814.054 3.814s30.917-.708 30.645.218c-.273.926 1.116-3.624-.055-3.705-1.171-.082-7.954.327-7.981-1.145 0-1.498 1.171-18.907 1.171-18.907z" fill="#0000ef"/><path d="m199.158 198.239c-.218-3.733-.518-6.975-.518-6.975s9.125-.109 16.18-.272c0 0-.436 6.293-.762 11.633-4.904-1.689-9.807-3.351-14.9-4.386z" fill="#03036d"/><path d="m166.742 139.719s4.441.109 11.278.245c.163 9.372-2.043 18.907-2.179 28.225-.137 9.181.163 18.09.217 27.271-5.856-.191-9.779-.163-10.078-.436-1.281-1.253.762-55.305.762-55.305z" fill="#0000ef"/><path d="m245.874 141.026c-22.173-.218-74.8-1.226-74.8-1.226s-1.526 53.889-.246 55.115c1.281 1.226 70.088 1.553 70.714.899.627-.626 6.892-54.76 4.332-54.788z" fill="#00007f"/><path d="m227.759 140.809c6.919.109 13.265.19 18.141.245 1.063 0 .6 9.372-.354 20.351-8.417-4.441-15.417-11.633-17.787-20.596z" fill="#03036d"/><path d="m221.112 166.036h2.861c1.634 0 .572 4.714-1.145 4.714-.49 0-2.642 0-5.475-.028 1.308-1.552 2.561-3.105 3.759-4.686z" fill="#a8e4f4"/><path d="m199.675 167.235c1.117-.327 7.055-.899 15.99-1.144-.163.218-.327.409-.49.626-1.117 1.335-2.261 2.643-3.432 3.951-6.429-.027-13.184-.082-13.184-.082s-.327-2.915 1.116-3.351z" fill="#a8e4f4"/><path d="m85.0611 220.204c-8.0357 29.532-10.9231 39.367-8.4988 39.122 2.4243-.218 13.8377-39.041 13.8377-39.041z" fill="#a8e4f4"/><path d="m222.866 220.939c5.992 19.916 13.756 41.711 16.48 41.193 2.724-.517-10.106-42.255-10.106-42.255z" fill="#a8e4f4"/><path d="m71.9042 214.019c18.7136-.19 175.7768 1.063 176.6488 2.67.872 1.608 4.14 5.068-5.23 6.239-9.371 1.144-67.2-2.452-100.378-1.716-33.178.735-73.3289 2.86-76.5704-1.308-3.2415-4.196-.4903-5.83 5.5296-5.885z" fill="#fff"/></svg>