<svg viewBox="0 0 456 238" fill="none" xmlns="http://www.w3.org/2000/svg">
	<path d="M72.7082 155.616C73.1615 155.616 73.6149 155.616 74.0359 155.584L74.0035 154.58C70.3766 154.677 66.3935 154.321 62.1513 153.544L61.957 154.515C65.7782 155.26 69.4051 155.616 72.7082 155.616ZM79.0876 155.098C81.1601 154.742 83.1031 154.224 84.8518 153.511L84.4632 152.572C82.7792 153.252 80.9011 153.77 78.8933 154.094L79.0876 155.098ZM57.0672 153.414L57.3262 152.443C53.6346 151.503 49.8134 150.241 45.9598 148.719L45.6036 149.658C49.4895 151.212 53.3431 152.475 57.0672 153.414ZM40.9729 147.715L41.3938 146.808C37.7345 145.156 34.1724 143.311 30.7722 141.303L30.2541 142.177C33.6867 144.185 37.2812 146.063 40.9729 147.715ZM25.9795 139.489L26.53 138.647C23.227 136.445 20.1506 133.855 17.398 131.037L16.6856 131.75C19.5029 134.632 22.6441 137.223 25.9795 139.489ZM13.3178 127.993L14.095 127.346C11.5691 124.269 9.36706 120.902 7.55362 117.404L6.67928 117.858C8.52511 121.452 10.7595 124.852 13.3178 127.993ZM306.772 124.431C307.679 124.431 308.586 124.399 309.46 124.334L309.395 123.33C305.93 123.589 301.98 123.298 297.543 122.553L297.381 123.525C300.781 124.14 303.955 124.431 306.772 124.431ZM314.479 123.557C318.333 122.585 321.409 120.74 323.611 118.149C323.935 117.76 324.259 117.372 324.583 116.951L323.806 116.336C323.514 116.724 323.19 117.113 322.867 117.501C320.762 119.962 317.88 121.679 314.253 122.585L314.479 123.557ZM292.427 122.553L292.653 121.582C289.124 120.772 285.367 119.671 281.157 118.279L280.833 119.218C285.108 120.642 288.897 121.744 292.427 122.553ZM4.57438 113.292L5.51351 112.903C4.02389 109.179 2.95523 105.325 2.37234 101.472L1.36848 101.634C1.98375 105.584 3.05238 109.503 4.57438 113.292ZM327.4 112.709C329.343 109.179 330.671 105.325 331.351 101.245L330.379 101.083C329.699 105.066 328.404 108.79 326.526 112.223L327.4 112.709ZM0.850355 96.582L1.85422 96.5172C1.82183 95.74 1.78946 94.9304 1.78946 94.1532C1.78946 90.9797 2.11328 87.7738 2.76094 84.6974L1.78946 84.5031C1.1418 87.6766 0.817975 90.9149 0.817975 94.1532C0.785592 94.9952 0.817972 95.8048 0.850355 96.582ZM331.837 96.1934C331.837 95.8371 331.837 95.4809 331.837 95.0923C331.837 91.3359 331.254 87.6442 330.153 84.1793L329.214 84.5031C330.315 87.8709 330.865 91.4655 330.865 95.1247C330.865 95.4809 330.865 95.8371 330.865 96.1934H331.837ZM327.368 79.9371L328.275 79.4837L328.048 79.0304C326.299 75.6626 323.935 72.5214 321.086 69.7365L320.373 70.4489C323.158 73.1691 325.457 76.2131 327.174 79.5161L327.368 79.9371ZM4.02391 79.9371C5.22208 76.2131 6.90595 72.5862 9.01084 69.186L8.16888 68.6678C5.99922 72.1652 4.28295 75.8568 3.08478 79.6456L4.02391 79.9371ZM30.1893 70.967C31.0636 70.967 31.938 70.8699 32.7799 70.708L32.5533 69.7365C29.7683 70.3517 26.5624 69.8012 24.1337 68.344C23.3241 67.8583 22.547 67.3077 21.8345 66.6925L21.1869 67.4697C21.9641 68.1173 22.7736 68.7002 23.6156 69.186C25.5586 70.3517 27.8901 70.967 30.1893 70.967ZM37.4755 68.3764C37.9936 67.923 38.4146 67.4049 38.8032 66.8544C39.7423 65.4943 40.228 63.8428 40.228 62.1265C40.228 60.313 39.7099 58.4672 38.7384 56.7509L37.8641 57.2366C38.7384 58.791 39.2242 60.4749 39.2242 62.1265C39.2242 63.6809 38.8032 65.0733 37.9936 66.3039C37.6698 66.7896 37.2488 67.243 36.8278 67.664L37.4755 68.3764ZM316.617 67.2106L317.232 66.4334C314.156 64.0694 310.658 61.9969 306.805 60.2806L306.384 61.1874C310.14 62.8713 313.605 64.9114 316.617 67.2106ZM11.7958 65.0733C13.0263 63.4542 14.3864 61.835 15.8437 60.313C16.3294 61.4788 16.977 62.6122 17.7542 63.7132L18.5638 63.1303C17.7542 61.9646 17.0742 60.7664 16.6209 59.5358C17.56 58.5967 18.6934 57.4309 19.9239 56.3947L19.2762 55.6499C18.1752 56.589 17.139 57.6252 16.2646 58.4996C15.9732 57.5605 15.7789 56.589 15.7141 55.6175C15.617 54.5489 15.5846 53.4802 15.5846 52.4764V52.0878H14.5807V52.4764C14.5807 53.5126 14.6131 54.6136 14.7103 55.7146C14.8074 56.9128 15.0665 58.111 15.4874 59.3091C13.9007 60.9607 12.3787 62.7094 11.051 64.4904L11.7958 65.0733ZM301.785 59.3739L302.109 58.4348C299.227 57.4309 296.215 56.6214 293.139 56.0385C292.2 55.8442 291.293 55.6823 290.354 55.5527L290.192 56.5566C291.099 56.6861 292.006 56.848 292.945 57.0423C295.956 57.5929 298.936 58.37 301.785 59.3739ZM239.286 56.2328C242.978 56.2328 246.702 56.1356 250.361 56.0385L251.3 56.0061L251.268 55.0022L250.329 55.0346C246.669 55.1641 242.945 55.2289 239.286 55.2289V56.2328ZM234.299 56.2328V55.2289C230.316 55.1965 226.301 55.0994 222.317 54.9374L222.285 55.9413C226.236 56.0709 230.284 56.2004 234.299 56.2328ZM285.27 55.8766L285.367 54.8727C281.708 54.5165 277.757 54.3222 273.321 54.3222V55.3261C277.725 55.3584 281.643 55.5204 285.27 55.8766ZM256.32 55.8118L257.518 55.747C261.047 55.5851 264.707 55.4556 268.301 55.3584L268.269 54.3546C264.674 54.4193 260.983 54.5812 257.453 54.7432L256.255 54.8079L256.32 55.8118ZM217.233 55.6823L217.298 54.6784C213.315 54.4517 209.3 54.1603 205.316 53.8364L205.219 54.8403C209.235 55.1641 213.25 55.4556 217.233 55.6823ZM200.265 54.3546L200.362 53.3507C196.411 52.9621 192.396 52.4763 188.445 51.9582L188.315 52.9621C192.266 53.5126 196.282 53.966 200.265 54.3546ZM34.6906 53.6745L35.2735 52.8649C34.2048 52.1201 33.039 51.5696 31.8408 51.2782C29.0883 50.5981 26.3357 51.0515 23.3889 52.6706L23.8746 53.545C26.5948 52.0554 29.1207 51.6344 31.5818 52.2497C32.6828 52.5087 33.7191 52.9945 34.6906 53.6745ZM183.328 52.2821L183.458 51.2782C179.507 50.6953 175.524 50.0476 171.606 49.3676L171.444 50.3391C175.395 51.0839 179.378 51.7315 183.328 52.2821ZM166.522 49.4647L166.716 48.4932C162.798 47.7484 158.847 46.9389 154.961 46.0645L154.734 47.036C158.653 47.9103 162.636 48.7199 166.522 49.4647ZM15.9732 47.1655C16.6532 43.1177 18.24 39.5232 20.6039 36.5115L19.8268 35.8963C17.3333 39.0374 15.7141 42.7938 15.0017 47.0036L15.9732 47.1655ZM149.877 45.9026L150.103 44.9311C146.218 44.0244 142.299 43.0205 138.478 41.9843L138.219 42.9557C142.072 43.992 145.991 44.9635 149.877 45.9026ZM133.394 41.5957L133.685 40.6242C129.832 39.5232 125.978 38.3574 122.189 37.1592L121.898 38.0983C125.654 39.3289 129.54 40.4946 133.394 41.5957ZM117.105 36.5439L117.429 35.6048C113.64 34.3419 109.851 32.9818 106.127 31.6217L105.771 32.5608C109.495 33.9209 113.316 35.281 117.105 36.5439ZM24.0365 33.0466C26.7891 30.7474 30.2865 28.8368 34.3667 27.4119L34.0429 26.4728C29.8331 27.9624 26.271 29.9054 23.4213 32.3018L24.0365 33.0466ZM101.076 30.8121L101.399 29.873C98.064 28.7396 94.0485 27.6386 89.774 26.6671L89.5473 27.6386C93.7895 28.6101 97.7726 29.7111 101.076 30.8121ZM84.6575 26.6347L84.8518 25.6632C80.901 24.9184 76.8856 24.3032 72.9348 23.8498L72.8377 24.8537C76.7237 25.2747 80.7068 25.8899 84.6575 26.6347ZM39.127 25.9871C42.6891 25.1127 46.6399 24.5298 50.9144 24.2384L50.8496 23.2345C46.5103 23.5584 42.4948 24.1412 38.9003 25.0156L39.127 25.9871ZM67.8507 24.3679L67.9155 23.3641C64.5476 23.105 61.2446 22.9755 58.1034 22.9755C57.2939 22.9755 56.6138 22.9755 55.8366 23.0078L55.869 24.0117C56.6138 24.0117 57.3586 23.9793 58.1034 23.9793C58.1034 23.9793 58.1034 23.9793 58.1358 23.9793C61.2446 23.9793 64.5153 24.1089 67.8507 24.3679Z" fill="#53CAF1" />
	<path d="M429.117 224.211C428.624 228.493 415.716 231.192 395.074 232.938C383.792 233.892 370.244 234.574 355.169 235.092C351.178 235.228 347.089 235.337 342.951 235.447C315.805 236.156 284.817 236.456 253.977 236.865C228.556 237.192 203.184 237.655 180.226 237.874C127.808 238.337 87.6067 237.546 86.178 231.165C81.2022 208.776 72.3344 53.4449 72.3344 26.2292C72.3344 -0.959269 84.0103 0.758755 259.101 0.295161C465.13 -0.250244 431.383 -4.55894 434.979 89.7143C437.295 150.718 433.058 189.305 429.117 224.211Z" fill="#0000EF" />
	<path d="M435.08 41.9904C418.773 44.2265 402.959 47.4989 388.524 52.244C366.354 59.4979 348.963 70.106 338.174 83.0594C327.779 95.5219 322.114 109.184 309.206 121.02C298.368 130.946 283.44 139.7 267.232 146.981C234.963 161.489 195.846 170.242 156.384 176.787C131.652 180.905 106.478 184.177 81.3522 187.504C83.0765 208.557 84.7515 224.946 86.131 231.137C87.5597 237.545 127.76 238.336 180.179 237.845C203.186 237.627 228.509 237.191 253.93 236.836C284.77 236.427 315.758 236.127 342.904 235.418C347.091 235.309 351.131 235.2 355.122 235.064C370.197 234.546 383.745 233.891 395.027 232.909C415.62 231.164 428.577 228.464 429.069 224.183C433.011 189.304 437.297 150.717 434.932 89.7133C434.193 69.6697 435.129 54.0983 435.08 41.9904Z" fill="#03036D" />
	<path d="M168.403 23.4222C253.14 21.9496 337.927 24.1857 422.664 24.0766C426.26 24.0766 429.857 24.0494 433.453 24.0494C426.851 -2.04825 395.617 -0.030255 259.102 0.324258C84.0113 0.787853 72.3353 -0.93017 72.3353 26.2583V26.2855C103.521 22.8222 136.972 23.9676 168.403 23.4222Z" fill="#03036D" />
	<path d="M73.8141 52.6536L73.6663 51.7537C92.0916 50.9083 164.66 49.6538 173.282 49.4902C172.493 41.5818 173.331 23.4744 173.331 23.2835L174.957 23.3108C174.957 23.5017 174.07 42.3181 174.957 49.8993L175.006 50.3629L174.168 50.3901C173.331 50.4174 93.274 51.7537 73.8141 52.6536Z" fill="#FFD939" />
	<path d="M160.819 60.3978H126.875V61.2977H160.819V60.3978Z" fill="#FFD939" />
	<path d="M156.583 68.225H130.423V69.1249H156.583V68.225Z" fill="#FFD939" />
	<path d="M379.213 35.9368C371.873 35.9368 364.581 35.8549 357.388 35.7731C344.973 35.6368 332.164 35.5004 319.7 35.7731L318.764 35.8004L318.863 35.2823C319.158 33.5915 319.01 31.8462 318.863 30.1827C318.715 28.4647 318.567 26.6921 318.863 24.9468L320.488 25.0287C320.193 26.7194 320.341 28.4647 320.488 30.1555C320.636 31.7099 320.784 33.2915 320.587 34.9005C332.805 34.655 345.318 34.7914 357.438 34.9278C369.557 35.0641 382.12 35.2005 394.338 34.955C394.239 33.6733 394.288 31.9008 394.338 30.21C394.387 28.3011 394.436 26.3376 394.338 25.0559L395.963 25.0014C396.111 26.3104 396.062 28.3011 395.963 30.21C395.914 32.1189 395.865 34.0824 395.963 35.3641L396.013 35.8277L395.175 35.8549C389.904 35.9095 384.534 35.9368 379.213 35.9368Z" fill="#FFD939" />
	<path d="M96.774 9.62127C99.7792 7.46692 106.923 7.95779 108.943 10.4121C110.963 12.8937 106.874 16.1661 101.996 16.0025C97.1189 15.8389 93.7688 12.321 96.2814 9.97579" fill="#0000EF" />
	<path d="M121.209 9.62127C124.214 7.46692 131.358 7.95779 133.377 10.4121C135.397 12.8937 131.308 16.1661 126.431 16.0025C121.554 15.8389 118.204 12.321 120.716 9.97579" fill="#0000EF" />
	<path d="M146.874 9.62127C149.879 7.46692 157.023 7.95779 159.043 10.4121C161.062 12.8937 156.973 16.1661 152.096 16.0025C147.219 15.8389 143.869 12.321 146.381 9.97579" fill="#0000EF" />
	<path d="M425.031 99.1498H416.754V98.7135C416.754 98.3045 416.064 56.5537 413.749 39.428C413.699 38.9099 414.143 38.1463 416.705 37.5463C419.168 36.9737 423.75 36.5919 424.834 37.2464C425.178 37.4373 425.228 37.7372 424.932 37.9827C424.242 39.5371 424.784 82.3514 425.031 98.7135V99.1498ZM418.38 98.2499H423.454C423.158 80.6333 422.666 41.6096 423.454 37.819C422.321 37.6827 418.528 37.9009 416.409 38.6099C415.916 38.7735 415.325 39.0462 415.375 39.3462C417.542 55.572 418.281 93.7231 418.38 98.2499ZM423.503 37.5463C423.503 37.5736 423.454 37.5736 423.454 37.6009C423.503 37.5736 423.503 37.5463 423.503 37.5463Z" fill="#FFD939" />
	<path d="M383.72 207.709H282.443V207.273C282.443 206.863 276.197 90.0505 273.881 72.9248C273.832 72.4066 274.275 71.6431 276.837 71.0431C279.301 70.4704 376.882 70.0886 377.966 70.7431C378.311 70.934 378.36 71.234 378.065 71.4794C377.375 73.0338 383.474 190.91 383.72 207.273V207.709ZM284.069 206.809H382.143C381.848 189.192 375.798 75.1064 376.587 71.3158C375.454 71.1795 278.66 71.3976 276.542 72.1066C276.049 72.2703 275.458 72.543 275.507 72.8429C277.675 89.0687 283.97 202.282 284.069 206.809ZM376.636 71.0431C376.636 71.0704 376.587 71.0704 376.587 71.0976C376.636 71.0704 376.636 71.0431 376.636 71.0431Z" fill="#FFD939" />
	<path d="M237.257 213.709H126.98V213.273C126.98 212.864 113.734 96.051 111.418 78.9252C111.369 78.4071 111.812 77.6435 114.374 77.0436C116.838 76.4709 226.419 76.0891 227.503 76.7436C227.848 76.9345 227.897 77.2345 227.602 77.4799C226.912 79.0343 237.011 196.911 237.257 213.273V213.709ZM128.606 212.809H235.68C235.385 195.193 225.335 81.1069 226.124 77.3163C224.991 77.1799 116.197 77.3981 114.079 78.1071C113.586 78.2708 112.995 78.5435 113.044 78.8434C115.212 95.0692 128.507 208.283 128.606 212.809ZM226.173 77.0436C226.173 77.0709 226.124 77.0709 226.124 77.0981C226.173 77.0709 226.173 77.0436 226.173 77.0436Z" fill="#FFD939" />
	<path d="M379.35 85.7773C385.407 94.1052 381.874 169.372 379.35 205.964L288.5 211.39C281.875 169.12 272.601 73.7982 288.5 70.0128C308.373 65.281 371.779 75.3675 379.35 85.7773Z" fill="#D2F1FC" />
	<path d="M222.885 84.5111C228.941 92.839 235.882 174.699 233.358 211.291L134.139 217.906C127.515 175.635 102.071 85.5405 117.97 81.755C137.843 77.0233 215.314 74.1012 222.885 84.5111Z" fill="#D2F1FC" />
	<path d="M228.48 117.107C228.48 117.107 139.141 106.935 122.817 108.42C121.771 102.856 120.681 97.4212 119.729 92.695C137.77 91.8414 225.067 99.0837 225.067 99.0837C225.067 99.0837 225.444 108.198 228.48 117.107Z" fill="white" />
	<path d="M147.119 93.6046C139.334 93.7383 131.719 92.1231 119.73 92.695C120.682 97.4212 121.78 102.83 122.817 108.42C126.65 108.06 130.888 107.95 135.135 107.987C142.079 103.913 142.45 100.081 147.119 93.6046Z" fill="#53CAF1" />
	<path d="M130.79 98.2068C126.31 98.5239 125.399 99.2183 125.502 99.8576C125.63 100.506 128.332 100.689 129.532 100.629C130.731 100.569 137.041 101.06 136.861 99.9628C136.681 98.8655 132.559 98.0782 130.79 98.2068Z" fill="white" />
	<path d="M198.732 104.11C197.204 104.29 193.676 104.825 194.098 105.715C194.511 106.631 202.363 106.505 202.416 105.658C202.495 104.82 202.712 103.654 198.732 104.11Z" fill="white" />
	<path d="M241.011 144.801C241.011 144.801 142.305 138.519 126.065 140.739C124.769 135.228 123.435 129.848 122.271 125.169C140.255 123.503 236.789 126.95 236.789 126.95C236.789 126.95 237.576 136.038 241.011 144.801Z" fill="#FFB0D8" />
	<path d="M188.399 125.666C180.627 126.15 134.223 124.057 122.271 125.169C123.436 129.848 124.776 135.202 126.065 140.739C129.877 140.206 134.106 139.905 138.35 139.751C145.104 135.368 184.027 132.346 188.399 125.666Z" fill="#FE7EB2" />
	<path d="M132.463 130.431C128.219 130.983 127.008 131.349 127.399 132.966C127.823 134.564 132.06 134.038 135.955 133.415C139.85 132.791 140.018 131.902 139.688 130.87C139.309 129.711 133.82 130.249 132.463 130.431Z" fill="white" />
	<path d="M201.096 133.358C196.634 133.876 195.756 134.611 195.887 135.245C196.045 135.887 198.752 135.948 199.948 135.834C201.144 135.72 207.469 135.926 207.24 134.838C207.01 133.75 202.858 133.149 201.096 133.358Z" fill="white" />
	<path d="M222.904 133.206C221.386 133.455 217.886 134.149 218.348 135.019C218.802 135.915 226.639 135.435 226.654 134.587C226.695 133.746 226.859 132.571 222.904 133.206Z" fill="white" />
	<path d="M242.834 171.977C242.834 171.977 144.128 165.695 127.888 167.915C126.592 162.403 125.259 157.023 124.095 152.345C142.078 150.678 238.612 154.125 238.612 154.125C238.612 154.125 239.4 163.214 242.834 171.977Z" fill="#FFB0D8" />
	<path d="M174.333 152.566C166.562 153.051 136.046 151.233 124.095 152.345C125.259 157.023 126.6 162.377 127.888 167.915C131.701 167.382 135.93 167.081 140.174 166.926C146.928 162.543 169.961 159.247 174.333 152.566Z" fill="#FE7EB2" />
	<path d="M134.286 157.606C130.043 158.159 128.832 158.524 129.222 160.141C129.647 161.739 133.883 161.213 137.778 160.59C141.673 159.967 144.961 159.278 144.63 158.246C144.251 157.087 135.643 157.425 134.286 157.606Z" fill="white" />
	<path d="M185.868 159.478C181.407 159.997 180.529 160.732 180.66 161.366C180.818 162.008 183.525 162.069 184.721 161.955C185.917 161.841 192.242 162.047 192.012 160.959C191.783 159.871 187.63 159.27 185.868 159.478Z" fill="white" />
	<path d="M203.532 160.184C202.013 160.433 198.513 161.127 198.975 161.997C199.429 162.894 207.267 162.413 207.281 161.565C207.322 160.724 207.487 159.55 203.532 160.184Z" fill="white" />
	<path d="M168.631 198.75C168.631 198.75 144.982 195.251 128.619 196.203C127.754 190.608 126.843 185.14 126.045 180.386C144.104 180.121 165.807 180.625 165.807 180.625C165.807 180.625 165.887 189.747 168.631 198.75Z" fill="#FFB0D8" />
	<path d="M159.447 180.509C151.661 180.389 138.048 180.205 126.046 180.386C126.843 185.14 127.764 190.582 128.619 196.203C132.461 195.968 136.701 195.996 140.944 196.171C148.018 192.326 154.569 186.83 159.447 180.509Z" fill="#FE7EB2" />
	<path d="M135.798 186.423C131.524 186.644 130.289 186.914 130.553 188.557C130.852 190.183 135.116 189.987 139.048 189.668C142.979 189.349 143.216 188.476 142.967 187.421C142.679 186.236 137.165 186.347 135.798 186.423Z" fill="white" />
	<path d="M148.802 186.526C144.314 186.697 145.361 187.639 145.443 188.282C145.551 188.934 148.245 189.205 149.446 189.184C150.647 189.163 151.986 189.165 151.842 188.062C151.698 186.959 150.575 186.455 148.802 186.526Z" fill="white" />
	<path d="M155.51 186.567C153.977 186.698 153.404 187.534 153.797 188.438C154.18 189.367 159.061 189.079 159.141 188.235C159.247 187.4 159.502 186.241 155.51 186.567Z" fill="white" />
	<path d="M389.8 168.442C389.8 168.442 300.488 158.03 284.16 159.472C283.129 153.905 282.055 148.467 281.115 143.738C299.158 142.933 386.436 150.41 386.436 150.41C386.436 150.41 386.788 159.525 389.8 168.442Z" fill="#3DB5C9" />
	<path d="M308.503 144.721C300.717 144.834 293.107 143.198 281.115 143.738C282.055 148.467 283.138 153.879 284.161 159.471C287.994 159.121 292.233 159.023 296.479 159.071C303.435 155.016 303.816 151.185 308.503 144.721Z" fill="#2C8469" />
	<path d="M292.161 149.279C287.68 149.585 286.767 150.276 286.868 150.916C286.995 151.564 289.696 151.755 290.896 151.698C292.096 151.642 298.404 152.15 298.227 151.052C298.05 149.954 293.931 149.156 292.161 149.279Z" fill="white" />
	<path d="M360.087 155.365C358.559 155.541 355.03 156.066 355.449 156.958C355.86 157.875 363.711 157.769 363.767 156.923C363.848 156.085 364.068 154.92 360.087 155.365Z" fill="white" />
	<path d="M395.436 136.7C395.436 136.7 296.747 130.154 280.501 132.33C279.22 126.815 277.901 121.431 276.749 116.75C294.737 115.132 391.262 118.838 391.262 118.838C391.262 118.838 392.025 127.928 395.436 136.7Z" fill="white" />
	<path d="M342.875 117.424C335.102 117.888 288.704 115.67 276.749 116.75C277.901 121.431 279.228 126.789 280.501 132.33C284.315 131.807 288.545 131.517 292.789 131.374C299.555 127.01 338.485 124.093 342.875 117.424Z" fill="#53CAF1" />
	<path d="M286.927 122.039C282.682 122.58 281.47 122.942 281.856 124.56C282.276 126.159 286.514 125.645 290.411 125.032C294.307 124.419 294.478 123.53 294.15 122.497C293.774 121.337 288.284 121.861 286.927 122.039Z" fill="white" />
	<path d="M355.551 125.15C351.089 125.656 350.208 126.389 350.338 127.023C350.494 127.665 353.201 127.733 354.397 127.623C355.593 127.512 361.918 127.735 361.691 126.646C361.465 125.558 357.314 124.946 355.551 125.15Z" fill="white" />
	<path d="M377.36 125.057C375.842 125.302 372.34 125.986 372.799 126.857C373.251 127.755 381.09 127.296 381.106 126.448C381.15 125.607 381.317 124.433 377.36 125.057Z" fill="white" />
	<path d="M392.559 111.011C392.559 111.011 293.87 104.464 277.624 106.641C276.343 101.126 275.024 95.7421 273.872 91.0605C291.86 89.4424 388.384 93.1487 388.384 93.1487C388.384 93.1487 389.148 102.239 392.559 111.011Z" fill="#3DB5C9" />
	<path d="M341.47 90.5486C333.697 91.0125 285.827 89.9805 273.872 91.0605C275.024 95.7421 276.35 101.099 277.624 106.641C281.438 106.118 285.668 105.828 289.912 105.685C296.678 101.32 337.08 97.2176 341.47 90.5486Z" fill="#2C8469" />
	<path d="M284.05 96.3495C279.804 96.8905 278.593 97.2525 278.979 98.8706C279.399 100.47 283.637 99.9552 287.533 99.3424C291.43 98.7295 291.601 97.8404 291.273 96.8078C290.897 95.6476 285.407 96.1716 284.05 96.3495Z" fill="white" />
	<path d="M352.674 99.4603C348.212 99.9671 347.331 100.7 347.461 101.334C347.617 101.976 350.324 102.044 351.52 101.934C352.716 101.823 359.041 102.046 358.814 100.957C358.588 99.8684 354.437 99.2568 352.674 99.4603Z" fill="white" />
	<path d="M374.483 99.3674C372.964 99.6126 369.462 100.297 369.922 101.168C370.373 102.066 378.212 101.606 378.229 100.758C378.272 99.9177 378.44 98.7434 374.483 99.3674Z" fill="white" />
	<path d="M348.072 192.166C348.072 192.166 305.267 189.226 289.021 191.403C287.74 185.888 286.421 180.504 285.269 175.823C303.257 174.204 343.898 174.304 343.898 174.304C343.898 174.304 344.661 183.394 348.072 192.166Z" fill="#3DB5C9" />
	<path d="M328.157 174.272C320.384 174.736 297.224 174.742 285.269 175.823C286.421 180.504 287.747 185.861 289.021 191.403C292.835 190.88 297.065 190.59 301.309 190.447C308.075 186.082 323.767 180.941 328.157 174.272Z" fill="#2C8469" />
	<path d="M295.447 181.112C291.202 181.653 289.99 182.015 290.376 183.633C290.796 185.232 295.034 184.717 298.931 184.104C302.827 183.492 305.992 182.796 305.664 181.763C305.288 180.603 296.804 180.934 295.447 181.112Z" fill="white" />
	<path d="M320.674 180.571C316.211 181.078 317.326 181.939 317.456 182.573C317.612 183.215 320.319 183.283 321.515 183.173C322.711 183.062 324.046 182.963 323.82 181.874C323.594 180.786 322.436 180.367 320.674 180.571Z" fill="white" />
	<path d="M400.774 205.889C403.377 203.764 406.954 202.808 410.627 203.257C414.151 195.498 421.234 189.438 429.516 187.248C438.35 184.927 448.212 187.113 455.263 192.959L454.731 193.608C447.912 187.941 438.337 185.804 429.735 188.056C421.778 190.141 414.942 195.953 411.471 203.379C414.747 203.994 417.648 205.746 419.493 208.211C421.716 211.228 422.273 215.961 419.328 218.371C418.114 219.34 416.506 219.688 414.786 219.305C412.667 218.841 410.748 217.428 409.771 215.56C407.934 212.015 408.838 207.798 409.96 204.884C410.054 204.6 410.192 204.32 410.31 204.016C406.965 203.665 403.689 204.535 401.326 206.503L400.774 205.889ZM418.87 217.721C421.307 215.693 420.839 211.463 418.835 208.758C417.071 206.391 414.316 204.765 411.126 204.203C410.983 204.528 410.837 204.897 410.715 205.246C409.674 208.01 408.795 211.959 410.498 215.244C411.341 216.851 413.09 218.16 414.944 218.555C416.401 218.868 417.778 218.589 418.797 217.782C418.821 217.761 418.846 217.741 418.87 217.721Z" fill="#FE673C" />
</svg>