<svg viewBox="0 0 458 278" fill="none" xmlns="http://www.w3.org/2000/svg">
	<path d="M95.0124 111.282C78.7807 134.171 77.2272 139.339 80.8413 139.371C84.4554 139.402 98.5314 142.129 100.751 139.624C102.97 137.12 99.324 135.503 91.7154 135.788C84.1067 136.042 92.0958 130.335 101.86 119.493C111.625 108.651 95.0124 111.282 95.0124 111.282Z" fill="#F3CF14" />
	<path d="M95.0128 111.282C94.2837 112.297 93.6179 113.248 92.9522 114.199C91.2085 118.922 91.0183 124.185 94.3154 127.419C96.4712 125.2 99.1025 122.537 101.861 119.493C111.625 108.651 95.0128 111.282 95.0128 111.282Z" fill="#DD9903" />
	<path d="M91.6838 135.788C89.4646 135.852 88.577 135.44 88.6721 134.489C86.1041 134.203 83.5679 133.569 81.1902 132.46C78.4004 137.754 78.8125 139.339 80.8098 139.371C84.4239 139.402 98.4999 142.129 100.719 139.624C102.938 137.152 99.2925 135.535 91.6838 135.788Z" fill="#0000EF" />
	<path d="M92.3804 82.4012C83.3452 74.6975 83.6622 60.0825 78.6532 63.6332C73.6441 67.2156 62.9286 78.7554 66.6696 83.5108C70.4105 88.2662 71.203 72.0027 76.3072 73.3342C81.4113 74.6657 81.9502 87.4102 90.8904 90.9926C99.8306 94.575 92.3804 82.4012 92.3804 82.4012Z" fill="#F3CF14" />
	<path d="M81.0306 79.0409C83.1547 83.3525 85.5007 88.837 90.8902 90.9928C97.2941 93.5607 95.2968 88.0445 93.6483 84.7157C89.7172 81.165 85.0886 78.5654 81.0306 79.0409Z" fill="#DD9903" />
	<path d="M75.2617 73.3025C77.1639 70.3858 79.8903 67.913 82.9972 66.3596C81.7608 63.6332 80.6195 62.2065 78.6539 63.6015C73.6449 67.1839 62.9294 78.7236 66.6703 83.479C70.1259 87.9174 71.077 74.2853 75.2617 73.3025Z" fill="#0000EF" />
	<path d="M140.156 89.8195C132.04 91.4998 121.895 94.5432 112.987 91.9119C100.845 88.2978 90.9536 78.248 90.9536 78.248C90.9536 78.248 76.3069 90.9608 75.4827 97.6501C75.4827 97.6501 103.666 117.337 115.079 114.421C135.242 109.222 140.156 89.8195 140.156 89.8195Z" fill="#0000EF" />
	<path d="M169.894 62.27C173.761 67.9765 178.485 73.0489 183.748 77.4873C187.552 80.6893 191.642 83.4157 195.985 85.6983C201.945 81.9574 207.303 77.3922 211.139 71.5272C217.004 62.587 218.462 50.0962 212.312 41.378C206.954 33.7693 196.968 30.4405 187.711 31.0746C178.422 31.6769 171.257 37.32 164.156 43.3435C163.458 43.9142 162.507 44.7067 161.334 45.6578C162.919 51.5862 166.692 57.5146 169.894 62.27Z" fill="#F3CF14" />
	<path d="M209.174 37.7957C203.974 33.1037 196.619 30.8845 189.486 30.9796C192.91 37.1933 202.326 40.11 209.174 37.7957Z" fill="#FE673C" />
	<path d="M205.749 62.714C192.117 63.887 181.433 58.878 171.352 59.8608C175.568 70.5763 180.482 80.9748 185.301 91.4367C185.618 91.3099 185.903 91.1513 186.22 91.0245C195.89 86.4593 205.305 80.4993 211.17 71.5591C213.39 68.1986 214.943 64.3309 215.736 60.3363C213.168 60.2729 210.917 62.2702 205.749 62.714Z" fill="#DD9903" />
	<path d="M204.45 77.2021C204.101 77.2338 203.72 77.2021 203.308 77.107C191.768 74.0952 181.085 68.6741 173.539 59.195C169.45 54.0591 165.677 50.5718 164.124 43.3436C163.775 43.5338 92.5074 99.4574 85.723 109.475C87.8471 113.248 91.588 116.228 95.0436 118.606C98.4992 120.952 102.208 123.044 106.108 124.598C110.451 118.764 114.224 112.646 120.818 108.905C127.697 105.005 135.877 104.561 143.707 103.515C158.386 101.581 172.779 97.365 186.157 91.0244C193.132 87.6957 200.011 83.6694 205.496 78.3117C205.115 77.9946 204.735 77.6142 204.45 77.2021Z" fill="#0000EF" />
	<path d="M186.728 53.4569C188.028 54.3446 189.835 54.5665 191.071 53.6154C193.734 51.523 191.927 47.2115 188.693 47.0847C185.618 46.9578 183.748 51.4596 186.728 53.4569Z" fill="white" />
	<path d="M192.085 49.5575C190.31 50.8573 188.535 52.1571 186.728 53.4569C188.027 54.3129 189.835 54.5665 191.071 53.5837C192.402 52.5376 192.624 50.9207 192.085 49.5575Z" fill="#0000EF" />
	<path d="M203.816 53.6787C205.115 54.5664 206.922 54.7883 208.159 53.8372C210.822 51.7448 209.015 47.4333 205.781 47.3065C202.738 47.1796 200.867 51.6814 203.816 53.6787Z" fill="white" />
	<path d="M209.205 49.7791C207.429 51.0789 205.654 52.3787 203.847 53.6785C205.147 54.5345 206.954 54.7881 208.19 53.8053C209.522 52.7591 209.744 51.1423 209.205 49.7791Z" fill="#0000EF" />
	<path d="M184.857 45.3726L184.128 44.9604C184.921 43.5021 186.474 42.4559 188.123 42.2657C189.771 42.0755 191.515 42.7095 192.656 43.9459L192.054 44.5166C191.103 43.4704 189.645 42.9315 188.25 43.1217C186.855 43.2485 185.555 44.1362 184.857 45.3726Z" fill="white" />
	<path d="M208.856 45.7529C208.254 44.5165 207.017 43.5655 205.654 43.3752C204.291 43.185 202.833 43.724 201.913 44.7385L201.279 44.1995C202.389 42.9631 204.133 42.3291 205.781 42.5827C207.43 42.8363 208.92 43.9142 209.617 45.4359L208.856 45.7529Z" fill="white" />
	<path d="M198.743 61.6043C197.633 61.6043 196.555 61.1922 195.795 60.3996C194.59 59.1632 194.495 57.0391 195.541 55.771L196.175 56.3099C195.382 57.261 195.478 58.8779 196.397 59.8289C197.285 60.7483 198.806 61.0336 200.074 60.4947C200.899 60.146 201.596 59.4168 201.945 58.5608C202.262 57.7683 202.262 56.9757 201.977 56.2782L202.737 55.9612C203.118 56.8489 203.118 57.8951 202.737 58.8779C202.294 59.9875 201.438 60.8434 200.423 61.2873C199.853 61.4775 199.314 61.6043 198.743 61.6043Z" fill="#FE673C" />
	<path d="M160.066 61.8579C159.02 60.2411 159.051 58.0219 160.129 56.4368L160.827 56.9123C159.939 58.2438 159.907 60.0826 160.795 61.4458L160.066 61.8579Z" fill="white" />
	<path d="M146.592 65.9476C145.293 64.0138 145.451 61.1922 146.973 59.4169L147.607 59.9558C146.307 61.4458 146.18 63.8235 147.29 65.4721L146.592 65.9476Z" fill="white" />
	<path d="M212.502 33.2622C213.168 32.8818 213.834 32.4697 214.214 31.8039C214.595 31.1699 214.595 30.2188 214.056 29.7115C213.422 29.1409 212.407 29.3628 211.583 29.6164C208.444 30.5992 205.337 31.6137 202.199 32.5965C203.404 31.6137 204.64 30.6309 205.845 29.6481C206.225 29.3311 206.606 29.0141 206.828 28.6019C207.049 28.1581 207.081 27.5875 206.732 27.2387C206.098 26.573 205.02 27.1753 204.323 27.7777C202.199 29.6164 199.948 31.3918 197.919 33.3573C196.397 34.8474 195.763 36.3374 198.395 36.5276C203.245 36.8763 208.318 35.6399 212.502 33.2622Z" fill="#FE673C" />
	<path d="M156.187 79.5737C182.745 189.789 196.929 220.149 196.929 220.149L320 208.258L304.971 82.8935L156.187 79.5737Z" fill="#03036D" />
	<path d="M308.11 192.988L212.26 202.283C212.26 202.283 204.414 185.625 189.686 129.37C186.91 118.687 183.831 106.494 180.512 92.793L296.4 95.3884L297.728 106.313L308.11 192.988Z" fill="#FFB0D8" />
	<path d="M203.568 209.225C207.975 238.257 207.914 234.454 232.239 234.454C256.624 234.454 369.313 243.931 376.436 231.436C383.498 218.942 386.455 209.225 386.455 209.225L269.178 206.448L203.568 209.225Z" fill="#03036D" />
	<path d="M297.667 106.313L275.455 109.935L270.747 189.608L253.907 160.877C235.679 161.119 217.511 162.567 199.343 164.378C207.793 192.867 212.2 202.283 212.2 202.283L308.049 192.988L297.667 106.313Z" fill="#FE7EB2" />
	<path d="M319.97 206.665L207.895 207.869L207.914 209.62L319.988 208.416L319.97 206.665Z" fill="#0000EF" />
	<path d="M199.163 111.806L203.569 123.395L249.321 116.815L253.124 104.502L199.163 111.806Z" fill="white" />
	<path d="M207.915 130.517L244.311 125.205V130.517L207.915 138.242V130.517Z" fill="white" />
	<path d="M127.317 129.99L108.772 218.48L109.579 218.649L128.123 130.159L127.317 129.99Z" fill="#0000EF" />
	<path d="M73.2101 123.324L41.8474 216.732L42.6288 216.994L73.9915 123.586L73.2101 123.324Z" fill="#0000EF" />
	<path d="M122.763 140.025L65.6033 140.528L65.6105 141.352L122.77 140.85L122.763 140.025Z" fill="#0000EF" />
	<path d="M110.555 201.233C101.552 201.233 90.4877 200.979 79.7405 200.725C67.535 200.44 54.9173 200.155 45.4065 200.25V199.426C54.949 199.33 67.5667 199.616 79.7722 199.901C91.9777 200.186 104.595 200.472 114.106 200.377V201.201C112.965 201.233 111.76 201.233 110.555 201.233Z" fill="#0000EF" />
	<path d="M107.639 172.161C101.52 172.161 95.1165 172.129 88.8711 172.129C77.9336 172.098 66.6158 172.034 57.105 172.129V171.305C66.6158 171.21 77.9336 171.274 88.9028 171.305C99.8402 171.337 111.19 171.4 120.701 171.305V172.129C116.611 172.129 112.204 172.161 107.639 172.161Z" fill="#0000EF" />
	<path d="M126.153 218.923H125.329C125.361 213.406 124.759 199.362 124.188 185.793C123.617 172.193 123.015 158.149 123.047 152.632H123.871C123.839 158.149 124.442 172.193 125.012 185.762C125.583 199.33 126.185 213.375 126.153 218.923Z" fill="#0000EF" />
	<path d="M346.194 89.7097C347.716 91.4851 349.301 93.2921 351.457 94.1481C354.469 95.3211 357.988 94.2749 360.619 92.341C363.219 90.4072 365.121 87.6807 367.055 85.0811C367.499 84.5105 368.101 83.8447 368.798 84.0349C369.337 84.1934 369.623 84.7958 369.845 85.303C371.493 89.5195 373.142 93.8945 373.11 98.4279C373.078 102.866 371.366 107.273 368.355 110.507C365.343 113.74 361.031 115.738 356.593 115.928C353.359 116.055 349.935 115.135 347.684 112.821C345.434 110.475 344.704 106.576 346.543 103.913C341.724 100.615 337.159 95.1943 334.179 91.8338C331.77 89.1391 330.47 88.3465 330.533 86.7614C330.628 85.0177 332.404 76.8067 334.94 77.5676C336.176 77.948 341.249 83.9398 342.105 84.9543C343.468 86.5077 344.831 88.0929 346.194 89.7097Z" fill="#FE673C" />
	<path d="M369.813 85.3028C369.591 84.7639 369.337 84.1615 368.767 84.0347C368.069 83.8445 367.435 84.5103 367.023 85.0809C365.089 87.6805 363.187 90.407 360.587 92.3408C357.988 94.2747 354.469 95.3209 351.425 94.1479C350.474 93.7675 349.65 93.1968 348.857 92.5628C346.828 95.4794 345.021 98.5229 343.5 101.725C344.451 102.454 345.465 103.183 346.511 103.912C344.673 106.575 345.402 110.475 347.653 112.821C349.903 115.167 353.327 116.054 356.561 115.928C360.999 115.737 365.279 113.74 368.323 110.506C371.334 107.273 373.078 102.866 373.078 98.4278C373.11 93.8626 371.461 89.5193 369.813 85.3028Z" fill="#53CAF1" />
	<path d="M343.817 101.027C343.468 101.566 343.119 102.168 343.056 102.802C342.992 103.437 343.246 104.197 343.848 104.451C344.641 104.8 345.497 104.134 346.099 103.5C348.35 101.154 350.221 98.4275 351.584 95.4792C352.598 93.2917 351.52 88.4729 349.174 91.5797C347.145 94.3379 345.624 98.0788 343.817 101.027Z" fill="#53CAF1" />
	<path d="M311.987 111.521C285.991 102.549 288.685 103.088 285.166 108.953C281.647 114.818 277.653 120.429 283.391 123.948C289.129 127.467 326.253 146.489 329.804 140.592C333.354 134.696 339.41 123.917 335.986 121.412C332.594 118.939 321.688 114.85 311.987 111.521Z" fill="#2C8469" />
	<path d="M336.017 121.444C332.594 118.939 321.72 114.882 312.019 111.521C306.788 109.714 302.698 108.287 299.528 107.241C301.366 114.85 305.678 121.729 308.595 129.179C309.641 131.874 310.465 134.601 311.067 137.327C320.166 140.973 328.314 143.255 329.867 140.624C333.354 134.696 339.41 123.949 336.017 121.444Z" fill="#1A5B45" />
	<path d="M322.734 71.7659C325.904 67.9933 326.475 68.342 332.435 70.3076C338.395 72.2414 342.009 71.7025 338.046 80.2622C334.115 88.8219 322.956 119.352 322.956 119.352L302.064 111.394L322.734 71.7659Z" fill="#1A5B45" />
	<path d="M288.115 120.208C286.022 119.003 281.742 116.562 280.569 118.686C279.967 119.764 280.284 121.159 280.981 122.173C281.679 123.188 282.757 123.885 283.803 124.551C295.374 131.906 307.865 137.771 320.927 141.956C323.463 142.78 326.665 143.351 328.377 141.322C329.518 139.99 329.93 137.517 327.299 137.042C314.618 134.727 299.432 126.612 288.115 120.208Z" fill="#D2F1FC" />
	<path d="M322.861 139.292C309.07 136.027 295.723 129.908 284.215 121.634L284.691 120.968C296.104 129.211 309.355 135.266 323.019 138.5L322.861 139.292Z" fill="white" />
	<path d="M391.909 119.098C372.698 141.607 372.064 171.883 377.675 199.56C378.753 204.791 386.774 202.698 385.727 197.467C380.782 173.025 380.623 145.094 397.711 125.058C401.167 121 395.397 115.009 391.909 119.098Z" fill="#2C8469" />
	<path d="M377.675 199.56C375.995 202.349 368.037 200.003 366.072 201.652C364.074 203.3 363.948 204.505 372.063 204.378C387.249 204.156 387.281 206.344 385.727 197.435L377.675 199.56Z" fill="#53CAF1" />
	<path d="M408.775 101.345C408.712 100.425 408.363 99.5059 407.761 98.745C407.729 98.6816 407.697 98.6182 407.666 98.5231C406.144 94.9724 401.959 96.1454 400.532 98.9353C394.541 102.518 388.961 106.702 383.857 111.458C383.445 111.838 383.128 112.282 382.906 112.726C380.94 113.677 379.514 116.023 380.718 118.559C382.62 122.617 385.347 126.865 389.817 128.355C394.477 129.94 399.328 128.133 403.227 125.502C412.104 119.51 411.945 110.285 408.775 101.345Z" fill="#2C8469" />
	<path d="M448.91 159.456C438.861 161.516 426.592 161.136 419.459 152.608C411.818 143.414 410.233 129.243 408.109 117.925C407.126 112.663 399.074 114.787 400.057 120.018C402.593 133.46 404.812 150.389 415.306 160.312C424.848 169.315 438.766 170.013 451.003 167.508C456.234 166.43 454.141 158.378 448.91 159.456Z" fill="#2C8469" />
	<path d="M448.308 159.551C452.747 158.124 457.407 156.222 457.914 159.995C458.422 163.767 456.615 174.673 453.856 176.195C451.098 177.717 450.686 176.861 451.986 173.088C453.286 169.315 451.257 164.655 451.257 164.655L448.308 159.551Z" fill="#53CAF1" />
	<path d="M390.268 126.84L390.184 127.66L396.713 128.33L396.797 127.51L390.268 126.84Z" fill="#D2F1FC" />
	<path d="M373.237 42.5041C366.072 32.0422 350.633 34.4516 341.756 41.1092C340.995 41.6798 340.615 42.4407 340.52 43.2333C334.37 48.7812 331.675 59.3699 336.272 66.2811C342.486 75.6968 358.178 75.6968 366.738 69.9586C375.583 64.0619 379.546 51.7296 373.237 42.5041Z" fill="#FE673C" />
	<path d="M338.396 68.8173C345.909 67.7394 346.163 66.186 353.708 67.359C365.216 69.166 368.418 59.7186 369.243 57.7531C370.796 54.0122 371.081 49.764 371.969 45.8329C372.254 44.5965 372.983 43.8673 373.903 43.5503C373.713 43.2015 373.491 42.8528 373.237 42.5041C366.072 32.0422 350.633 34.4516 341.756 41.1092C340.995 41.6798 340.615 42.4407 340.52 43.2333C334.37 48.7812 331.675 59.3699 336.272 66.2811C336.906 67.2322 337.603 68.0564 338.396 68.8173Z" fill="#E04136" />
	<path d="M364.835 35.1495C351.932 31.5037 336.398 39.3976 327.236 48.2427C325.144 50.2716 323.115 53.1249 324.066 55.883C324.985 58.546 328.409 59.6556 331.167 58.9265C333.894 58.1973 336.081 56.2 338.142 54.2345C335.447 56.739 333.64 60.1629 333.069 63.8087C333.672 67.8349 344.672 61.3359 349.618 55.4709C348.413 57.3731 347.653 59.4971 348.667 61.3676C349.872 63.6185 352.979 64.0306 355.515 63.6502C361.38 62.8259 366.769 59.3069 369.971 54.3296C368.957 55.7562 369.781 58.0071 371.398 58.7363C373.015 59.4654 375.012 58.8314 376.248 57.5633C377.485 56.2952 378.055 54.5198 378.277 52.7762C379.165 44.7871 372.571 37.3053 364.835 35.1495Z" fill="#D2F1FC" />
	<path d="M364.836 35.1492C364.202 34.9589 363.568 34.8321 362.934 34.7053C364.931 37.6537 366.326 41.1727 367.499 44.7234C368.672 48.3692 369.243 51.9199 369.211 55.4072C369.465 55.0584 369.718 54.7097 369.94 54.3293C368.926 55.7559 369.75 58.0068 371.367 58.7359C372.984 59.4651 374.981 58.8311 376.218 57.5629C377.454 56.2948 378.025 54.5195 378.246 52.7758C379.166 44.7868 372.572 37.3049 364.836 35.1492Z" fill="#3DB5C9" />
	<path d="M376.661 71.8925C373.332 69.8952 369.972 67.8663 366.643 65.869C363.441 63.9351 360.429 68.9124 363.631 70.8463C366.96 72.8436 370.321 74.8726 373.649 76.8698C376.883 78.8354 379.863 73.8264 376.661 71.8925Z" fill="#FE673C" />
	<path d="M355.325 69.5148C354.976 69.6733 354.596 69.8001 354.247 70.022C353.93 70.2439 353.645 70.5927 353.645 70.9731C353.645 71.3852 353.898 71.7657 354.247 71.9559C354.596 72.1778 355.008 72.2412 355.42 72.2412C357.037 72.3046 358.686 71.6706 359.827 70.5293C360.239 70.1171 360.619 69.6099 360.778 69.0392C361.095 67.8345 360.017 66.2494 358.717 67.0103C358.21 67.2956 357.83 67.8979 357.386 68.2784C356.752 68.7856 356.054 69.1978 355.325 69.5148Z" fill="white" />
	<path d="M322.956 69.7052C316.616 69.0395 312.209 76.3311 314.714 83.274C317.218 90.2169 321.149 87.6807 321.149 87.6807C321.149 87.6807 323.368 89.1073 323.432 85.9687C323.432 84.8591 322.386 83.0521 321.974 81.5937C321.213 78.9307 320.864 76.6481 320.864 76.6481C320.864 76.6481 325.239 84.7006 327.553 82.5131C329.899 80.3256 324.637 74.4924 324.668 72.3366C324.7 70.1808 324.859 69.7052 324.859 69.7052H322.956Z" fill="#FE673C" />
	<path d="M320.135 87.1101C318.011 85.4616 316.679 82.8937 316.584 80.199L317.408 80.1672C317.503 82.6083 318.708 84.9544 320.642 86.4444L320.135 87.1101Z" fill="#D2F1FC" />
	<path d="M329.392 72.8755C329.36 72.717 329.329 72.5585 329.265 72.4C328.98 71.3855 328.377 70.4661 327.522 69.8955C326.253 69.0395 319.628 68.7859 319.913 70.7197C320.103 72.0829 326.285 74.1436 327.395 74.8094C327.775 75.0313 328.282 75.1581 328.695 74.9679C329.424 74.6192 329.519 73.6681 329.392 72.8755Z" fill="#FE673C" />
	<path d="M321.293 76.3021L320.506 76.5457L321.284 79.0594L322.071 78.8159L321.293 76.3021Z" fill="#D2F1FC" />
	<path d="M411.882 95.3845C409.441 87.1418 395.587 76.2678 388.708 72.8756C385.252 71.1636 381.48 70.5613 377.992 71.1002C377.548 71.1636 377.136 71.2587 376.724 71.3539C375.995 73.2243 374.822 74.9045 373.237 76.1093C371.683 77.2823 369.623 77.631 367.879 76.5848C367.689 76.4897 367.53 76.3629 367.404 76.2361C367.34 76.2995 367.245 76.3946 367.182 76.458C366.96 76.7116 366.801 76.9652 366.643 77.2188C365.248 79.438 364.772 82.5449 365.279 85.4615C365.882 89.0122 367.625 92.3093 369.401 95.4479C372.983 101.82 376.819 108.002 380.909 113.994C381.955 115.484 383.033 117.037 384.428 117.988C386.172 119.193 388.232 119.383 390.071 118.94C391.91 118.496 393.527 117.513 395.112 116.467C398.155 114.501 403.069 112.028 407.444 108.034C411.343 104.483 413.563 101.123 411.882 95.3845Z" fill="#D2F1FC" />
	<path d="M377.993 71.1005C377.961 71.2273 377.961 71.3541 377.929 71.4809C377.612 73.1611 377.264 74.8414 376.471 76.3631C375.678 77.8848 374.379 79.2164 372.73 79.6285C370.923 80.104 368.862 79.3432 367.816 77.7897C367.499 77.3459 367.277 76.8704 367.15 76.4582C369.084 74.1439 372.889 72.5905 375.33 71.7662C376.186 71.4492 377.073 71.259 377.993 71.1005Z" fill="#FE673C" />
	<path d="M338.269 118.02C346.48 121.381 356.974 120.239 362.807 113.55C368.101 107.463 368.45 98.6816 369.211 90.6291C369.401 88.5368 369.972 86.0323 371.937 85.3348C373.871 84.6691 375.837 86.1908 377.2 87.6808C384.777 95.9552 388.708 107.495 387.757 118.686C387.503 121.571 386.933 124.551 385.253 126.929C383.572 129.306 380.624 130.955 377.771 130.384C376.756 134.854 374.6 139.166 371.177 142.241C367.753 145.316 362.997 147.028 358.464 146.267C353.93 145.506 349.809 142.083 348.763 137.613C332.531 135.552 318.106 122.998 313.826 107.178C313.192 104.864 312.812 102.201 314.08 100.14C317.979 93.8945 321.847 104.42 323.749 106.734C327.712 111.49 332.499 115.674 338.269 118.02Z" fill="#FE673C" />
	<path d="M377.2 87.681C375.806 86.1592 373.872 84.6375 371.938 85.335C369.941 86.0325 369.402 88.5369 369.211 90.6293C368.45 98.6818 368.102 107.463 362.807 113.55C358.147 118.908 350.538 120.683 343.469 119.479C342.549 125.09 342.866 130.86 343.564 136.567C345.276 137.042 347.019 137.391 348.795 137.613C349.873 142.083 353.962 145.507 358.496 146.268C363.029 147.028 367.785 145.316 371.209 142.241C374.633 139.166 376.788 134.886 377.803 130.384C380.656 130.955 383.604 129.307 385.285 126.929C386.965 124.551 387.536 121.603 387.789 118.686C388.74 107.495 384.809 95.9871 377.2 87.681Z" fill="#D2F1FC" />
	<path d="M321.562 103.089C316.87 92.912 306.852 89.6783 305.933 95.575C305.933 95.575 300.448 96.6529 302.255 101.884C302.255 101.884 299.751 104.959 303.143 109.461L304.601 106.639C304.601 106.639 305.964 104.642 309.578 110.856C313.193 117.069 330.851 130.448 330.851 130.448L321.562 103.089Z" fill="#FE673C" />
	<path d="M302.604 102.455L301.938 101.947C302.699 100.996 307.042 100.172 308.089 100.299L307.993 101.123C307.042 100.996 303.08 101.852 302.604 102.455Z" fill="#D2F1FC" />
	<path d="M310.023 96.0507C309.23 95.5435 306.884 95.385 306.282 95.9556L305.711 95.3532C306.694 94.4656 309.484 94.7192 310.466 95.3532L310.023 96.0507Z" fill="#D2F1FC" />
	<path d="M315.475 96.3041C314.493 92.4681 310.879 88.7589 315.571 89.9953C320.262 91.2317 322.323 105.308 322.323 105.308L315.475 96.3041Z" fill="#FE673C" />
	<path d="M317.504 97.1918C316.458 96.8114 315.507 96.1139 314.841 95.2262L315.507 94.719C316.077 95.4799 316.902 96.0822 317.789 96.3992L317.504 97.1918Z" fill="#D2F1FC" />
	<path d="M343.025 119.733C342.549 120.969 342.518 122.3 342.486 123.6C342.391 127.753 342.327 131.938 342.232 136.091C342.201 137.106 342.201 138.152 342.549 139.135C342.898 140.086 343.754 140.942 344.768 141.005C345.815 141.068 346.766 140.308 347.241 139.356C347.717 138.405 347.812 137.327 347.875 136.281C348.256 131.241 348.795 126.136 348.89 121.064C348.985 117.291 344.642 115.643 343.025 119.733Z" fill="#D2F1FC" />
	<path d="M370.97 81.4861L369.561 93.2272L370.38 93.3254L371.788 81.5842L370.97 81.4861Z" fill="#F3CF14" />
	<path d="M389.596 119.32L388.772 119.225C389.469 112.758 387.694 106.069 386.109 100.204L382.336 86.2545L383.129 86.0326L386.901 99.9818C388.487 105.942 390.325 112.695 389.596 119.32Z" fill="#F3CF14" />
	<path d="M50.1536 124.534C46.7931 124.502 43.4327 122.949 40.8965 120.254C33.2244 123.963 23.9038 124.09 16.1367 120.476C7.86227 116.608 1.68024 108.619 0 99.6158L0.824271 99.4573C2.44111 108.176 8.43291 115.943 16.4854 119.715C23.9355 123.203 32.9074 123.107 40.3258 119.62C38.2017 117.052 37.0921 113.85 37.2506 110.775C37.4726 107.034 40.0722 103.04 43.8765 103.071C45.4299 103.103 46.8883 103.864 47.9661 105.259C49.2977 106.971 49.8683 109.285 49.4245 111.346C48.5685 115.245 45.1763 117.908 42.4499 119.43C42.1963 119.588 41.9109 119.715 41.6256 119.874C43.9716 122.283 47.0468 123.71 50.1219 123.71L50.1536 124.534ZM43.8131 103.864C40.6428 103.864 38.2968 107.415 38.1066 110.775C37.9481 113.723 39.026 116.735 41.1184 119.208C41.4354 119.05 41.7841 118.859 42.1012 118.669C44.6691 117.211 47.871 114.738 48.6636 111.124C49.044 109.349 48.5368 107.224 47.3638 105.734C46.4444 104.561 45.208 103.896 43.9082 103.864C43.8765 103.864 43.8448 103.864 43.8131 103.864Z" fill="#FE673C" />
	<path d="M305.392 67.1206C300.256 64.9014 296.578 59.0681 296.23 52.6008C295.944 47.4015 297.498 41.8536 300.985 35.6398C304.885 28.697 309.513 24.3854 314.744 22.832C316.71 22.2613 318.897 22.1662 320.989 22.5783C324.128 14.0186 330.722 6.75871 339.06 2.98609C349.046 -1.54739 361.157 -0.881635 370.572 4.72974L370.16 5.4589C360.935 0.00603592 349.173 -0.659716 339.409 3.77866C331.293 7.45617 324.889 14.4625 321.814 22.8003C323.145 23.149 324.413 23.6562 325.586 24.3854C328.123 25.9705 329.771 28.2848 330.215 30.8844C330.564 32.9134 329.93 35.2594 328.598 36.8128C327.584 37.9858 326.284 38.6199 324.889 38.6199C322.701 38.5882 320.577 36.908 319.721 34.4985C318.897 32.216 319.214 29.7431 319.563 27.841C319.848 26.3193 320.229 24.8609 320.736 23.4026C318.802 23.0539 316.836 23.1173 315.029 23.6562C310.02 25.1463 305.55 29.331 301.746 36.052C298.354 42.1072 296.832 47.5283 297.117 52.5691C297.466 58.7194 300.922 64.2674 305.772 66.3597L305.392 67.1206ZM321.528 23.5928C321.021 25.0194 320.641 26.5095 320.355 27.9995C320.007 29.8066 319.721 32.1208 320.482 34.2132C321.085 35.9252 322.733 37.7639 324.889 37.7639C326.347 37.7956 327.362 36.9397 327.964 36.2422C329.137 34.8473 329.708 32.7866 329.391 31.0113C328.979 28.6336 327.457 26.5095 325.143 25.0828C324.033 24.4171 322.797 23.9099 321.528 23.5928Z" fill="#FE673C" />
	<path d="M156.928 74.9703C162.73 74.8435 173.318 76.3335 175.823 81.3742C178.328 86.4149 180.356 87.7148 182.005 85.3688C182.005 85.3688 187.648 90.568 186.792 79.3135C186.792 79.3135 187.585 80.2012 188.346 82.2302C189.582 85.4639 191.452 87.0173 192.404 85.5273C194.306 82.4838 189.519 76.6822 189.519 76.6822C189.519 76.6822 194.369 76.2384 195.225 78.1722C196.271 80.5182 199.283 80.2963 198.49 77.2212C197.254 72.5292 186.285 69.993 178.549 69.771C170.655 69.5491 161.176 70.7538 156.928 74.9703Z" fill="#F3CF14" />
	<path d="M182.132 86.2881L181.308 86.2564C181.435 83.5934 180.642 80.9304 179.089 78.7429L179.755 78.2673C181.435 80.5816 182.291 83.4349 182.132 86.2881Z" fill="#FE673C" />
	<path d="M186.182 77.3371L185.397 77.588L186.526 81.1213L187.311 80.8705L186.182 77.3371Z" fill="#FE673C" />
	<path d="M188.044 73.1922L187.344 73.6279L190.378 78.4984L191.077 78.0627L188.044 73.1922Z" fill="#FE673C" />
	<path d="M218.654 77.9406C222.553 77.9406 220.81 84.3446 226.009 85.2322C230.099 85.9297 224.297 80.8256 226.802 79.0819C227.88 78.321 230.384 78.4161 233.206 80.6987C236.027 82.9496 237.232 87.2295 239.007 86.4686C240.814 85.7078 239.768 82.1571 239.768 82.1571C239.768 82.1571 242.399 86.6271 244.714 86.1199C247.028 85.6127 246.172 83.7739 246.172 83.7739C246.172 83.7739 247.028 85.6127 248.835 84.7567C250.642 83.9007 249.089 78.5113 244.84 75.2459C240.592 71.9805 232.793 68.4932 225.597 71.7903C218.464 75.024 218.654 77.9406 218.654 77.9406Z" fill="#F3CF14" />
	<path d="M240.086 84.8198C239.801 82.2836 238.659 79.8742 236.852 78.0671L237.455 77.4965C239.389 79.4303 240.625 81.9982 240.91 84.7247L240.086 84.8198Z" fill="#FE673C" />
	<path d="M246.49 85.7074C245.571 82.442 244.081 79.3986 242.083 76.6404L242.749 76.1332C244.81 78.9547 246.332 82.0933 247.283 85.4538L246.49 85.7074Z" fill="#FE673C" />
	<path d="M158.847 237.259C161.071 237.174 168.789 229.932 171.472 232.428C174.155 234.924 151.896 245.51 151.896 245.51C151.896 245.51 144.235 221.194 138.479 222.998C132.723 224.803 135.268 240.11 128.742 247.065C122.217 254.019 119.654 254.05 122.081 257.87C124.508 261.689 123.728 270.488 120.26 265.137C116.793 259.786 113.227 253.018 113.227 253.018C113.227 253.018 120.631 248.27 122.649 241.034C124.667 233.798 108.71 181.67 108.71 181.67L148.317 167.417C148.317 167.417 156.623 237.345 158.847 237.259Z" fill="#53CAF1" />
	<path d="M135.546 201.775L136.362 201.438C135.519 193.059 133.831 185.012 131.305 177.546L130.518 178.064C133.026 185.492 134.708 193.467 135.546 201.775Z" fill="white" />
	<path d="M121.706 235.662C121.923 228.536 115.05 204.593 110.721 190.317C128.55 184 133.977 219.173 121.706 235.662Z" fill="#3DB5C9" />
	<path d="M160.254 234.329C160.889 237.776 161.413 239.853 161.811 239.841C164.081 239.75 172.001 231.951 174.724 234.64C177.447 237.33 154.668 248.726 154.668 248.726C154.668 248.726 153.481 244.628 151.652 239.785C154.56 238.252 157.454 236.477 160.254 234.329Z" fill="#3DB5C9" />
	<path d="M121.958 240.092C123.985 241.216 126.028 242.378 128.129 243.368C123.494 247.843 121.849 248.347 123.947 251.595C126.375 255.369 125.618 264.068 122.149 258.78C118.68 253.492 115.109 246.803 115.109 246.803C115.109 246.803 119.079 244.263 121.958 240.092Z" fill="#3DB5C9" />
	<path d="M124.504 187.801C124.927 187.869 125.386 187.832 125.823 187.68C127.257 187.205 128.404 185.792 128.733 184.061C129.021 182.546 128.654 180.851 127.159 180.423C125.55 179.977 123.964 181.096 123.117 182.409C122.145 183.925 122.036 185.617 122.871 186.793C123.274 187.379 123.854 187.696 124.504 187.801ZM126.536 181.326C126.62 181.34 126.705 181.354 126.79 181.367C127.902 181.696 128.17 182.966 127.941 184.119C127.758 185.13 127.088 186.36 125.818 186.787C124.944 187.091 124.058 186.799 123.577 186.09C122.849 185.042 123.181 183.758 123.736 182.881C124.342 181.938 125.406 181.143 126.536 181.326Z" fill="white" />
	<path d="M128.885 178.506L129.446 178.89L126.859 182.21L126.299 181.827L128.885 178.506Z" fill="white" />
	<path d="M126.855 232.06C126.468 233.417 125.39 234.81 124.225 235.025C123.404 235.186 122.719 234.75 122.283 234.099C121.846 233.448 121.646 232.617 121.435 231.819C120.591 228.45 119.747 225.08 118.902 221.71C118.447 219.856 117.775 219.022 119.781 217.594C120.824 216.851 121.905 216.44 122.922 216.674C125.051 217.12 125.937 219.915 126.363 222.128C126.877 224.791 127.741 229.001 126.855 232.06Z" fill="#53CAF1" />
	<path d="M120.954 199.502L120.947 200.153L113.443 202.274L113.451 201.623L120.954 199.502Z" fill="#53CAF1" />
	<path d="M121.607 203.859L121.598 204.514L115.957 206.071L115.967 205.415L121.607 203.859Z" fill="#53CAF1" />
	<path d="M122.52 208.024L122.546 208.674L117.063 210.356L117.038 209.705L122.52 208.024Z" fill="#53CAF1" />
	<path d="M160.839 238.457L161.091 239.047L156.107 241.889L155.855 241.299L160.839 238.457Z" fill="#0000EF" />
	<path d="M120.527 244.918L123.443 247.787L122.621 248.577L119.704 245.708L120.527 244.918Z" fill="#0000EF" />
	<path d="M146.852 220.226L146.911 220.86L136.989 224.294L136.93 223.66L146.852 220.226Z" fill="#3DB5C9" />
	<path d="M123.328 220.642L123.088 221.305L118.239 221.852L118.479 221.19L123.328 220.642Z" fill="white" />
	<path d="M138.382 211.339L138.714 211.876L126.994 220.125L126.662 219.588L138.382 211.339Z" fill="white" />
	<path d="M100.402 218.498C97.7443 218.236 95.0155 218.2 92.2665 218.228C91.3919 218.232 90.4885 218.233 89.5952 218.2C89.5377 218.192 89.4802 218.183 89.3939 218.17C93.8196 200.007 96.5245 190.796 104.795 178.334L113.184 185.388C105.206 193.745 101.009 208.873 100.402 218.498Z" fill="#53CAF1" />
	<path d="M91.78 207.095C93.3378 201.171 94.8631 196.238 96.8161 191.599C101.107 195.761 98.0429 203.797 91.78 207.095Z" fill="#D2F1FC" />
	<path d="M101.397 214.837C100.817 219.654 100.951 223.463 101.856 225.145C104.64 230.459 100.711 229.939 99.9032 227.763C99.0951 225.588 98.3483 224.442 97.0915 227.142C95.8347 229.841 95.2988 236.303 93.4418 235.334C92.3926 234.755 92.4466 233.272 92.6977 232.113C92.1821 233.628 91.2434 235.617 90.3067 234.875C89.2604 234.007 89.6611 231.817 89.9803 230.634C89.5818 231.877 88.6689 234.161 87.9385 233.528C86.9208 232.664 87.0374 228.824 89.1624 220.411C89.6727 218.349 90.1783 216.396 90.6618 214.512C94.2217 214.678 97.8038 214.775 101.397 214.837Z" fill="#3DB5C9" />
	<path d="M92.2934 232.183L93.1253 231.869C92.7917 229.97 93.2508 227.784 94.3757 225.923L93.6904 225.563C92.4384 227.638 91.9108 230.046 92.2934 232.183Z" fill="#0000EF" />
	<path d="M91.179 225.109L90.3253 230.09L89.3457 230.086L90.1994 225.105L91.179 225.109Z" fill="#0000EF" />
	<path d="M164.855 209.078C162.48 211.335 160.146 212.743 157.963 213.506C158.255 208.72 156.963 204.049 155.33 200.328C155.582 199.922 155.704 199.459 155.663 198.857C155.449 194.435 142.758 191.533 142.758 191.533L147.309 173.305C164.727 182.547 176.65 197.856 164.855 209.078Z" fill="#53CAF1" />
	<path d="M156.479 197.392C158.178 200.439 159.205 204.736 159.633 207.805C159.808 209.04 159.873 210.336 159.91 211.626C150.597 215.87 143.448 208.331 143.448 208.331L148.265 199.717C148.293 199.722 155.879 201.223 156.479 197.392Z" fill="#D2F1FC" />
	<path d="M163.038 212.137C161.954 209.303 161.926 206.107 163.915 202.482C164.959 200.608 167.39 196.978 169.664 195.66C171.626 200.508 170.88 205.377 166.246 209.65C165.158 210.659 164.105 211.468 163.038 212.137Z" fill="#D2F1FC" />
	<path d="M142.224 195.511L145.083 179.719L151.932 186.469L165.005 175.996C165.005 175.996 158.902 184.226 151.418 195.4L137.026 210.244L132.582 193.844L142.224 195.511Z" fill="#FE673C" />
	<path d="M151.764 197.343C150.997 197.593 150.276 198.34 149.984 199.232C149.221 201.474 151.635 203.482 153.419 201.856C155.031 200.391 153.493 196.797 151.764 197.343Z" fill="#D2F1FC" />
	<path d="M143.858 192.272C157.787 188.209 154.33 191.325 151.428 201.356C148.527 211.386 149.734 211.288 142.573 212.352C135.411 213.416 135.581 213.972 138.117 204.7C140.624 195.423 139.314 193.595 143.858 192.272Z" fill="#03036D" />
	<path d="M151.698 201.016C147.942 196.754 145.758 195.294 144.975 196.14C144.191 196.985 146.849 201.571 146.849 201.571C146.849 201.571 141.305 200.252 140.427 201.863C139.115 204.261 144.749 205.673 144.749 205.673C145.048 206.622 139.473 204.555 138.84 206.715C138.143 208.981 147.671 215.07 153.713 212.019C157.668 210.024 157.997 201.954 156.055 198.425C155.881 198.122 153.388 202.041 151.698 201.016Z" fill="#D2F1FC" />
	<path d="M145.839 200.077L149.273 203.525L148.426 204.313L144.992 200.865L145.839 200.077Z" fill="#0000EF" />
	<path d="M143.102 204.259L147.241 206.134L146.732 207.206L142.593 205.331L143.102 204.259Z" fill="#0000EF" />
	<path d="M150.763 197.496C150.387 197.654 150.017 197.524 149.815 197.239C149.541 196.906 149.453 196.277 149.6 195.649C149.759 194.987 150.21 194.334 150.682 194.155C152.036 193.536 152.421 196.852 150.763 197.496Z" fill="white" />
	<path d="M157.675 194.896L157.995 195.489L156.118 196.729L155.798 196.136L157.675 194.896Z" fill="#0000EF" />
	<path d="M123.339 134.237C143.999 132.55 145.191 146.888 143.36 170.453L103.637 184.842C103.637 184.842 94.8462 136.593 123.339 134.237Z" fill="#0000EF" />
	<path d="M126.218 133.835C127.181 139.587 126.371 146.01 119.64 148.403C117.812 149.067 116.554 151.603 116.836 153.366C117.799 159.118 117.121 166.043 113.088 171.721C110.255 175.681 106.66 177.636 102.963 178.268C101.37 168.464 97.8602 135.933 121.751 133.941C123.354 133.796 124.858 133.774 126.218 133.835Z" fill="#0000D8" />
	<path d="M121.378 179.867C118.084 180.75 114.749 181.664 111.464 182.884C111.298 177.938 111.558 172.875 112.26 167.734C112.842 163.505 113.811 159.003 116.346 155.351C120.168 149.858 126.798 147.875 131.332 149.838C135.866 151.801 138.491 156.959 139.449 162.666C139.895 164.937 140.376 168.555 140.274 172.228C134.238 176.395 127.717 178.135 121.378 179.867Z" fill="#FFB0D8" />
	<path d="M121.154 177.72C117.916 178.562 114.64 179.434 111.417 180.592C111.169 175.944 111.339 171.184 111.943 166.35C112.445 162.373 113.324 158.138 115.764 154.696C117.323 152.52 119.363 150.939 121.554 149.975C118.908 159.01 120.381 168.732 123.126 177.247C122.474 177.359 121.8 177.537 121.154 177.72Z" fill="#FE7EB2" />
	<path d="M127.519 171.59C150.207 162.778 148.09 164.992 148.582 167.738C149.074 170.485 131.497 176.372 117.112 183.466C102.699 190.556 100.471 188.001 100.564 184.741C100.657 181.482 115.649 176.171 127.519 171.59Z" fill="#D2F1FC" />
	<path d="M131.745 144.446C132.754 143.822 134.001 143.199 134.652 143.944C135.382 144.813 134.549 146.63 133.587 147.749C131.989 149.629 129.953 151.024 127.923 151.67C128.73 150.75 129.929 150.457 130.65 150.987C131.372 151.518 131.582 152.791 131.096 153.913C130.523 155.208 129.303 156.023 128.187 156.518C125.233 157.801 122.151 157.562 119.971 155.931C120.504 157.857 118.705 160.718 116.762 161.19C114.847 161.666 113.268 160.02 113.236 157.838C113.171 153.473 117.507 149.787 120.854 149.581C122.318 149.481 123.308 149.642 124.875 148.771C127.199 147.498 129.487 145.881 131.745 144.446Z" fill="#E56EA4" />
	<path d="M110.866 144.408C110.783 146.827 111.752 148.935 113.41 149.938C112.688 149.97 112.189 149.411 111.645 148.992C111.1 148.573 110.369 148.272 109.666 148.785C108.765 149.452 108.683 150.876 108.999 151.811C109.592 153.527 114.826 156.466 115.448 152.586C115.647 151.254 114.257 149.889 113.646 149.128C112.476 147.725 111.372 146.479 110.866 144.408Z" fill="#E56EA4" />
	<path d="M134.579 166.906C133.495 167.401 132.388 167.148 131.681 166.4C129.711 164.332 132.089 159.615 134.981 160.231C137.444 160.704 137.673 165.544 134.579 166.906Z" fill="white" />
	<path d="M136.468 161.345C137.389 162.968 136.937 165.883 134.651 166.881C133.57 167.371 132.466 167.121 131.76 166.38C131.625 166.248 131.502 166.081 131.407 165.918C133.114 164.422 134.794 162.92 136.468 161.345Z" fill="#0000EF" />
	<path d="M122.351 167.832C121.267 168.327 120.16 168.073 119.453 167.327C117.483 165.259 119.861 160.544 122.752 161.16C125.175 161.663 125.404 166.502 122.351 167.832Z" fill="white" />
	<path d="M124.201 162.294C125.122 163.917 124.67 166.832 122.384 167.831C121.304 168.321 120.199 168.07 119.493 167.33C119.358 167.198 119.235 167.031 119.14 166.868C120.848 165.371 122.539 163.835 124.201 162.294Z" fill="#0000EF" />
	<path d="M135.572 159.788L136.259 158.858C135.121 157.219 133.242 156.592 131.344 157.296L131.343 158.446C132.998 157.835 134.623 158.369 135.572 159.788Z" fill="#0000EF" />
	<path d="M119.322 160.889C120.501 159.173 122.446 158.385 123.794 159.014L124.289 158.02C122.633 157.219 120.229 158.208 118.775 160.317L119.322 160.889Z" fill="#0000EF" />
	<path d="M126.589 171.584C127.211 171.702 127.858 171.731 128.539 171.624L128.668 170.419C127.305 170.632 126.012 170.339 124.95 169.521L124.406 170.647C125.053 171.149 125.789 171.431 126.589 171.584Z" fill="#0000EF" />
	<path d="M140.137 155.817L140.988 155.431C140.129 147.229 134.528 141.452 127.667 141.742L127.459 142.815C133.989 142.509 139.315 147.992 140.137 155.817Z" fill="#53CAF1" />
</svg>