<svg viewBox="0 0 293 315" fill="none" xmlns="http://www.w3.org/2000/svg">
	<path d="M198.671 279.471C209.02 273.454 219.782 265.757 222.732 254.161C224.724 246.335 222.758 238.045 223.741 230.039C225.681 214.129 238.462 202.068 249.897 190.833C261.333 179.573 272.949 165.626 271.474 149.665C270.336 137.269 261.022 126.654 249.82 121.178C238.617 115.677 225.759 115.212 213.289 114.903C135.129 112.862 124.082 162.321 84.7568 180.399C45.4832 198.452 44.3966 248.427 49.0018 269.915C53.3742 290.37 72.0278 309.353 92.803 313.718C112.31 317.824 138.545 306.279 156.319 299.564C170.988 294.038 185.166 287.323 198.671 279.471Z" fill="#0000EF" />
	<path d="M66.0769 221.464C73.0623 221.077 80.0995 220.767 87.0073 219.476C93.4494 218.262 101.082 216.351 106.049 211.831C112.776 205.684 110.706 194.656 112.75 186.572C114.613 179.082 119.528 173.013 125.608 168.442C139.476 158.034 158.052 154.495 174.817 151.913C183.924 150.518 193.056 149.459 202.163 148.09C216.729 145.895 231.476 143.596 246.197 145.688C254.761 146.902 262.936 149.511 271.5 150.131C271.5 149.976 271.474 149.846 271.474 149.691C270.336 137.295 261.022 126.68 249.819 121.205C238.617 115.703 225.758 115.239 213.288 114.929C135.129 112.888 124.082 162.347 84.7564 180.425C65.5336 189.258 55.4694 205.736 50.7349 222.781C55.8058 222.084 60.9543 221.748 66.0769 221.464Z" fill="#0000D8" />
	<path d="M88.5713 192.57L92.4932 189.698L92.08 189.136L88.1581 192.008L88.5713 192.57Z" fill="#03036D" />
	<path d="M91.1832 193.077L91.8609 192.908L90.7876 188.624L90.11 188.793L91.1832 193.077Z" fill="#03036D" />
	<path d="M93.9415 205.658C94.7953 205.658 95.6232 205.942 96.27 206.459C97.2531 207.259 97.7447 208.473 97.5895 209.765C97.4084 211.211 96.4511 212.528 95.0799 213.148C93.8122 213.742 92.2081 213.406 91.1215 212.321C89.9572 211.159 89.6985 209.506 90.4229 207.931C90.9145 206.872 91.8718 206.071 93.0101 205.787C93.2689 205.71 93.6052 205.658 93.9415 205.658ZM93.7087 212.735C94.0709 212.735 94.4331 212.657 94.7435 212.502C95.8819 211.96 96.7098 210.875 96.8651 209.661C96.9944 208.628 96.6063 207.647 95.8043 207.001C95.0799 206.407 94.0709 206.2 93.1395 206.459C92.2081 206.691 91.406 207.363 91.018 208.215C90.4229 209.506 90.6299 210.849 91.5872 211.805C92.1822 212.425 92.9584 212.735 93.7087 212.735Z" fill="#03036D" />
	<path d="M68.2838 203.174L112.229 191.474L112.049 190.8L68.1038 202.501L68.2838 203.174Z" fill="#03036D" />
	<path d="M126.592 280.039C132.154 280.039 137.691 282.131 141.831 285.954C146.332 290.112 148.971 296.336 148.894 302.56L148.195 302.56C148.273 296.517 145.711 290.499 141.365 286.47C136.19 281.692 128.739 279.704 121.857 281.279L121.702 280.608C123.28 280.22 124.936 280.039 126.592 280.039Z" fill="#03036D" />
	<path d="M64.8217 268.279L65.5202 268.305L64.7699 280.702L79.5428 282.122L79.5428 291.549L88.0805 290.593L88.1581 291.291L78.8443 292.324L78.8443 282.768L64.0197 281.347L64.8217 268.279Z" fill="#03036D" />
	<path d="M259.883 172.006C261.643 172.006 263.402 172.135 265.135 172.419L265.032 173.116C261.668 172.6 258.253 172.574 254.916 173.091C250.181 173.814 246.119 175.544 243.17 178.127C239.729 181.123 237.789 185.333 238.021 189.387C238.203 192.719 240.117 196.025 242.834 197.755L242.446 198.349C239.522 196.49 237.504 193.003 237.297 189.439C237.064 185.178 239.082 180.761 242.678 177.61C245.731 174.95 249.923 173.142 254.786 172.419C256.494 172.135 258.176 172.006 259.883 172.006Z" fill="#03036D" />
	<path d="M135.177 43.7104L176.445 45.563C174.92 41.7488 173.585 38.0981 172.441 34.6926C171.079 30.6605 169.962 26.928 169.036 23.577C164.977 9.21937 163.969 1.70001 159.938 6.00458L156.479 11.2627L150.295 20.6619L135.177 43.7104Z" fill="#3CA184" />
	<path d="M196.003 119.285C188.513 120.103 180.967 120.566 173.449 120.838C164.841 121.138 156.261 121.192 147.653 121.247C139.045 121.301 130.465 121.383 121.885 121.656C118.234 121.765 114.584 121.901 110.961 122.037C111.016 121.138 111.07 120.266 111.152 119.394C111.179 118.931 111.207 118.495 111.234 118.059C112.432 100.487 113.25 88.2816 113.277 87.8185C114.584 62.3725 123.219 37.7983 156.642 41.0948C189.657 44.3096 195.431 44.0917 196.902 75.2317C196.93 75.94 196.603 91.6871 196.14 113.346C196.085 115.253 196.058 117.242 196.003 119.285Z" fill="#F3CF14" />
	<path d="M161.082 54.1719C155.389 59.7842 147.517 60.2746 139.971 59.7569C133.951 59.3483 127.496 57.9316 121.83 55.2344C128.231 45.372 138.963 39.3238 156.642 41.0674C161.137 41.5033 165.113 41.8848 168.682 42.2934C166.748 46.6525 164.433 50.8481 161.082 54.1719Z" fill="#DD9903" />
	<path d="M196.003 119.285C188.512 120.103 180.967 120.566 173.449 120.838C164.841 121.138 156.261 121.192 147.653 121.247C139.045 121.301 130.465 121.383 121.884 121.656C118.234 121.765 114.584 121.901 110.961 122.037C111.016 121.138 111.07 120.266 111.152 119.394C111.179 118.931 111.206 118.495 111.234 118.059C111.778 109.968 112.269 102.993 112.596 97.7898C119.351 97.7625 126.106 97.7353 132.889 97.7625C144.793 97.7625 159.257 96.7 170.725 93.5669C182.002 90.4884 191.4 91.1967 196.466 98.934C196.385 103.32 196.276 108.143 196.167 113.346C196.085 115.253 196.058 117.242 196.003 119.285Z" fill="#DD9903" />
	<path d="M181.103 83.432C181.185 80.9256 179.877 78.4191 177.753 77.0842C175.628 75.7492 172.795 75.613 170.561 76.7845C168.328 77.956 166.802 80.3262 166.693 82.8327L167.592 82.8872C167.701 80.6804 169.036 78.6098 170.997 77.5746C172.959 76.5665 175.437 76.6483 177.29 77.847C179.169 79.0185 180.313 81.2253 180.232 83.432H181.103Z" fill="#03036D" />
	<path d="M139.4 80.4898C139.482 77.9834 138.175 75.4769 136.05 74.142C133.925 72.807 131.092 72.6708 128.859 73.8423C126.625 75.0138 125.1 77.384 124.991 79.8905L125.89 79.945C125.999 77.7382 127.333 75.6676 129.295 74.6324C131.256 73.6243 133.735 73.7061 135.587 74.9048C137.439 76.0763 138.611 78.2831 138.529 80.4626L139.4 80.4898Z" fill="#03036D" />
	<path d="M146.073 53.164C144.002 52.946 141.932 52.4012 140.243 51.1752C138.582 49.9492 137.383 47.9059 137.628 45.8353C137.846 43.7648 139.78 41.9122 141.851 42.1301C135.531 43.3834 128.585 40.5227 124.989 35.1829C123.191 32.513 122.265 28.7805 124.09 26.1106C125.234 24.4487 127.223 23.4679 129.239 23.3589C137.274 22.923 143.458 31.1508 155.824 35.0467C158.794 35.973 176.663 39.6509 176.445 43.3561C176.227 46.9796 162.28 48.9412 159.447 50.4396C155.389 52.6191 150.676 53.6544 146.073 53.164Z" fill="#D2F1FC" />
	<path d="M124.092 26.1107C124.664 25.2934 125.454 24.6396 126.325 24.1492C126.135 24.8848 126.026 25.6476 126.08 26.4649C126.189 28.9441 127.279 31.3144 128.722 33.3032C130.003 35.0468 131.61 36.5997 133.489 37.6895C136.023 39.1334 138.91 39.76 141.77 40.087C142.996 40.2232 144.249 40.4139 145.475 40.3594C146.646 40.3322 147.817 40.087 148.989 40.1687C150.215 40.2504 150.378 41.5037 150.896 42.4027C151.495 43.4108 152.639 44.2008 153.592 44.8274C158.196 47.906 164.297 47.7153 169.364 46.0807C171.816 45.2906 174.131 44.2008 176.392 43.0293C176.419 43.1383 176.419 43.2473 176.419 43.329C176.201 46.9525 162.254 48.9141 159.422 50.4125C155.336 52.592 150.65 53.6273 146.047 53.1369C143.977 52.9189 141.906 52.3741 140.218 51.1481C138.556 49.9221 137.357 47.8788 137.603 45.8082C137.766 44.2826 138.883 42.8659 140.272 42.321C134.388 42.8659 128.259 40.0597 124.963 35.1558C123.193 32.5131 122.267 28.7807 124.092 26.1107Z" fill="#A8E4F4" />
	<path d="M168.79 34.5837C169.771 35.0196 170.888 35.1831 171.896 34.9106C172.086 34.8561 172.277 34.8016 172.44 34.7199C171.078 30.6878 169.962 26.9553 169.035 23.6043C167.047 24.4216 165.549 26.3287 165.304 28.481C165.031 30.9602 166.502 33.5484 168.79 34.5837Z" fill="#FFD939" />
	<path d="M150.323 20.7162C151.712 22.4326 154.136 23.3044 156.288 22.7867C161.818 21.479 161.545 13.4965 156.724 11.3987C156.642 11.3714 156.588 11.3442 156.506 11.317L150.323 20.7162Z" fill="#FFD939" />
	<path d="M168.872 8.29289L169.444 8.07494C169.635 7.74801 169.717 7.5573 164.623 3.93384L164.105 4.66943C165.876 5.92266 168.491 7.93872 168.709 8.15667L169.009 7.85699L169.036 7.88423L168.872 8.29289Z" fill="#FFD939" />
	<path d="M163.233 1.87284L169.58 1.91003L169.575 2.8091L163.228 2.7719L163.233 1.87284Z" fill="#FFD939" />
	<path d="M159.449 0.0108432L160.569 2.76129L159.737 3.10032L158.617 0.349876L159.449 0.0108432Z" fill="#FFD939" />
	<path d="M160.188 5.54987L160.735 6.263L157.148 9.01721L156.601 8.30409L160.188 5.54987Z" fill="#FFD939" />
	<path d="M178.733 70.5457L179.523 70.137C177.316 65.9959 172.195 63.653 167.619 64.6882L167.81 65.56C172.005 64.6065 176.717 66.7588 178.733 70.5457Z" fill="#0000EF" />
	<path d="M128.039 64.661C129.047 61.3645 132.861 59.2395 136.211 60.1113L136.429 59.2395C132.643 58.2587 128.339 60.6562 127.195 64.3886L128.039 64.661Z" fill="#0000EF" />
	<path d="M101.592 57.741C107.966 61.201 106.359 66.4319 105.242 68.0393C104.125 69.6195 102.3 70.8999 99.4673 70.6275C93.9649 70.0826 94.1284 66.7861 94.4825 65.2877C95.7355 65.2604 96.9613 65.1242 98.1871 65.3421C98.4867 66.2684 99.3311 67.5762 101.238 66.2412C102.736 65.2059 101.837 63.1899 100.475 62.2636C98.1598 60.6834 92.4123 58.9125 89.77 64.4431C85.4389 73.4881 109.219 80.4899 129.485 85.7207C137.221 87.7095 144.44 89.208 149.452 89.9436C149.043 91.333 149.043 92.8587 149.37 94.3026C143.405 92.9404 118.317 87.1374 101.047 81.8521C97.4788 80.7623 84.3221 76.3215 84.3221 69.1563C84.3221 53.1368 99.3039 56.5151 101.592 57.741Z" fill="#D2F1FC" />
	<path d="M101.592 57.7408C107.966 61.2008 106.359 66.4317 105.242 68.0391C104.125 69.6193 102.3 70.8997 99.4671 70.6273C93.9648 70.0824 94.1282 66.7859 94.4823 65.2874C95.7354 65.2602 96.9611 65.124 98.1869 65.3419C98.4865 66.2682 99.3309 67.5759 101.238 66.241C102.736 65.2057 101.837 63.1896 100.475 62.2633C98.1597 60.6832 92.4121 58.9123 89.7699 64.4429C88.3807 67.3035 89.8516 69.9734 93.1204 72.4526C93.1748 73.8149 93.4745 75.1498 93.992 76.403C94.5096 77.7108 95.245 78.9367 96.0622 80.0537C90.9412 77.9287 84.322 74.2235 84.322 69.1289C84.322 53.1366 99.3037 56.5149 101.592 57.7408Z" fill="#A8E4F4" />
	<path d="M135.069 90.924C134.906 89.5891 134.715 88.2813 134.525 86.9736C140.299 88.3358 145.529 89.3711 149.452 89.9432C149.043 91.3327 149.043 92.8584 149.37 94.3023C147.028 93.7574 141.689 92.5314 135.069 90.924Z" fill="#2C8469" />
	<path d="M152.693 98.0348L153.074 97.2447C151.195 96.3184 149.914 94.3024 149.887 92.2046C149.86 90.1068 151.086 88.0362 152.911 87.0555L152.502 86.2654C150.35 87.4096 148.961 89.7799 148.988 92.2046C149.043 94.6293 150.541 96.9723 152.693 98.0348Z" fill="#E04136" />
	<path d="M74.7337 228.371C80.9716 229.324 88.4625 230.006 96.7978 230.523L112.542 177.942L105.569 128.93C89.661 171.131 78.9831 211.343 74.7337 228.371Z" fill="#03036D" />
	<path d="M103.551 230.877C118.56 231.586 135.694 231.885 152.746 232.294C166.802 232.621 180.83 233.084 193.524 233.302C193.551 231.994 193.578 230.605 193.606 229.106C193.633 228.371 193.633 227.635 193.66 226.845C193.742 223.085 193.823 218.863 193.932 214.313C193.932 213.741 193.96 213.169 193.96 212.569C194.069 207.965 194.178 203.061 194.287 197.885C194.314 197.313 194.314 196.768 194.341 196.196C194.368 195.378 194.368 194.534 194.395 193.689C194.423 192.845 194.423 192 194.45 191.183C194.559 185.652 194.695 179.904 194.831 174.101C194.886 171.921 194.94 169.714 194.967 167.535C195.022 165.274 195.076 163.012 195.104 160.724C195.158 157.809 195.24 154.921 195.294 152.006C195.485 143.451 195.676 134.978 195.839 126.996C195.866 125.797 195.894 124.625 195.921 123.454C196.003 119.967 196.057 116.561 196.139 113.292C190.201 114.327 184.072 114.572 178.024 115.063C166.938 115.989 155.797 116.479 144.656 116.97C133.515 117.46 122.347 117.814 111.206 118.005C111.179 118.441 111.151 118.877 111.124 119.34C110.743 125.143 110.307 131.491 109.844 138.138C109.653 141.081 109.435 144.105 109.217 147.156C109.054 149.608 108.89 152.087 108.7 154.567C108.618 155.738 108.536 156.937 108.455 158.108C108.373 159.443 108.264 160.778 108.182 162.086C108.128 162.74 108.1 163.394 108.046 164.048C107.855 166.799 107.665 169.578 107.474 172.357C107.419 173.147 107.365 173.91 107.311 174.7C107.12 177.452 106.929 180.231 106.738 182.955C106.657 184.017 106.602 185.053 106.521 186.088C106.493 186.306 106.493 186.497 106.466 186.687C106.384 187.941 106.303 189.167 106.221 190.393C106.166 191.183 106.112 191.973 106.058 192.736C105.949 194.098 105.867 195.433 105.785 196.795C105.567 200.119 105.349 203.361 105.131 206.494C105.077 207.502 104.995 208.483 104.941 209.463C104.859 210.717 104.777 211.943 104.696 213.169C104.668 213.577 104.641 213.959 104.614 214.367C104.559 215.157 104.505 215.948 104.45 216.71C104.396 217.5 104.341 218.236 104.287 218.999C104.232 219.762 104.178 220.497 104.124 221.233C104.069 221.968 104.015 222.704 103.987 223.412C103.96 223.821 103.933 224.202 103.906 224.611C103.878 225.156 103.824 225.728 103.797 226.273C103.742 227.908 103.633 229.433 103.551 230.877Z" fill="#03036D" />
	<path d="M205.974 197.34C194.397 176.117 177.1 144.622 177.1 144.622L184.073 118.277C185.953 117.732 187.832 117.16 189.467 116.043C213.165 133.125 237.871 176.961 247.569 198.838C257.811 221.996 271.24 240.44 229.863 242.946C228.746 243.001 218.613 242.32 217.551 242.401C221.664 235.781 225.45 229.052 224.933 220.933C224.252 210.199 214.827 203.17 205.974 197.34Z" fill="#03036D" />
	<path d="M231.307 240.059C229.481 230.578 233.241 221.533 238.688 213.905C241.521 209.927 245.28 206.086 249.639 203.334C259.173 223.958 268.189 239.977 231.96 242.756C231.715 241.884 231.497 240.985 231.307 240.059Z" fill="#00007F" />
	<path d="M175.405 184.162C176.873 174.161 175.066 165.63 175.066 165.63C175.066 165.63 174.162 168.963 171.168 165.687C168.117 162.41 170.829 146.364 170.829 146.364L175.461 144.726L178.229 128.962C178.229 128.962 101.178 128.906 100.839 130.262C100.443 131.618 99.8785 143.765 99.8785 143.765C99.8785 143.765 89.2586 145.178 89.2586 146.195C89.2586 147.212 89.1456 163.992 91.1792 164.67C93.1563 165.291 102.251 166.817 102.251 166.817L103.042 190.715L175.405 184.162Z" fill="#53CAF1" />
	<path d="M143.601 165.687C143.771 165.687 143.94 165.687 144.11 165.687C154.391 168.964 164.276 175.801 171.45 184.501L103.042 190.773L102.251 166.874C102.251 166.874 100.5 166.591 98.4098 166.196C113.436 166.365 128.519 166.648 143.601 165.687Z" fill="#3DB5C9" />
	<path d="M112.647 188.738C92.0288 173.483 81.1264 162.636 77.0027 162.692C70.9018 162.805 42.9397 170.771 42.9397 170.771L75.8729 187.439L112.647 188.738Z" fill="#FFB0D8" />
	<path d="M202.803 184.049C216.191 173.371 231.726 160.093 231.726 160.093C231.726 160.093 184.105 152.296 178.908 154.217C173.711 156.138 141.964 186.252 141.964 186.252L202.803 184.049Z" fill="#DD689D" />
	<path d="M202.803 184.05C120.385 184.163 75.8715 187.383 75.8715 187.383L82.0854 275.803C82.0854 275.803 192.07 279.024 198.284 277.611C204.497 276.199 202.803 184.05 202.803 184.05Z" fill="#FE7EB2" />
	<path d="M146.256 184.671C162.469 184.332 181.336 184.106 202.802 184.05C202.802 184.05 203.536 226.141 202.124 253.882C172.806 241.113 147.725 217.723 146.256 184.671Z" fill="#DD689D" />
	<path d="M199.96 183.644L199.978 185.452L143.099 186.034L143.081 184.227L199.96 183.644Z" fill="#FFB0D8" />
	<path d="M97.1118 165.63H163.091V167.438H97.1118V165.63Z" fill="#CC332F" />
	<path d="M173.486 147.607L173.599 145.799C145.862 143.596 117.731 143.144 89.938 144.443L89.9945 146.251C117.787 145.008 145.862 145.46 173.486 147.607Z" fill="#CC332F" />
	<path d="M178.86 128.93L178.886 130.738L100.995 131.853L100.969 130.045L178.86 128.93Z" fill="#0000EF" />
	<path d="M121.662 157.45L121.693 159.257L103.901 159.561L103.87 157.754L121.662 157.45Z" fill="#D2F1FC" />
	<path d="M98.9855 151.651L145.434 153.604L145.358 155.41L98.9096 153.457L98.9855 151.651Z" fill="#D2F1FC" />
	<path d="M178.408 222.187C205.73 220.252 217.17 216.411 225.696 211.916C228.066 214.994 223.626 224.502 226.05 227.554C229.755 232.294 233.378 237.117 236.946 241.966C233.514 242.565 229.591 243.029 225.179 243.274C207.5 244.336 193.254 244.609 181.977 244.554C180.342 237.144 178.899 230.197 178.408 222.187Z" fill="#03036D" />
	<path d="M141.525 221.206C151.549 225.184 153.347 227.2 171.761 222.623C174.021 222.078 176.282 222.35 178.407 222.187C179.633 229.761 181.676 237.198 183.855 244.582C167.647 244.527 157.351 243.737 151.93 243.383C142.805 242.783 140.299 241.53 140.953 236.081C135.614 228.262 145.393 231.096 146.128 230.278C136.022 225.919 137.248 219.517 141.525 221.206Z" fill="#FFB0D8" />
	<path d="M174.24 224.203C162.364 215.812 153.157 213.115 151.931 215.594C150.705 218.073 162.2 224.857 162.772 228.262C163.344 231.668 174.24 224.203 174.24 224.203Z" fill="#FFB0D8" />
	<path d="M152.231 238.696C152.994 238.696 153.784 238.669 154.546 238.615L154.465 237.716C149.643 238.097 144.795 237.225 140.409 235.182L140.028 235.999C143.868 237.77 148.036 238.696 152.231 238.696Z" fill="#E04136" />
	<path d="M152.421 231.722C153.238 231.722 154.083 231.668 154.9 231.586L154.818 230.687C151.713 231.014 148.471 230.687 145.475 229.761L145.203 230.605C147.518 231.341 149.97 231.722 152.421 231.722Z" fill="#E04136" />
	<path d="M160.105 224.138L161.69 225.553L161.092 226.224L159.507 224.809L160.105 224.138Z" fill="#E04136" />
	<path d="M247.117 178.194C246.451 178.009 245.79 177.803 245.14 177.555L245.365 176.988C253.184 179.944 262.553 178.365 268.662 173.006C275.001 167.464 277.529 158.191 274.808 150.45C272.981 145.226 268.756 141.043 263.742 138.978C261.532 141.038 258.951 142.658 256.128 143.695C254.105 144.436 251.519 144.617 250.374 142.84C249.446 141.414 250.147 139.452 251.301 138.447C252.305 137.579 253.686 137.131 255.63 136.997C258.353 136.809 261.068 137.293 263.597 138.286C267.417 134.629 270.101 129.645 270.967 124.179C272.268 116.093 269.601 107.266 263.893 100.583C258.587 94.3935 250.83 90.0846 242.064 88.4388C230.166 86.1935 217.261 89.1951 207.53 96.4469L207.17 95.9652C217.019 88.6113 230.093 85.5667 242.164 87.8374C251.075 89.5237 258.946 93.909 264.339 100.19C270.19 107.003 272.873 116.014 271.568 124.278C270.691 129.786 268.016 134.817 264.199 138.543C269.253 140.709 273.496 144.987 275.353 150.264C278.153 158.207 275.55 167.751 269.048 173.473C263.278 178.499 254.701 180.298 247.117 178.194ZM261.512 138.202C259.616 137.676 257.639 137.442 255.667 137.591C253.859 137.719 252.579 138.127 251.694 138.892C250.723 139.724 250.14 141.337 250.877 142.485C251.835 143.964 254.106 143.785 255.913 143.096C258.561 142.123 260.998 140.62 263.099 138.71C262.589 138.523 262.053 138.352 261.512 138.202Z" fill="#3DB5C9" />
	<path d="M68.2036 264.516C65.4811 269.404 59.3087 272.478 52.839 272.177C47.6373 271.94 42.2729 269.839 36.4398 265.747C29.9225 261.171 26.0964 256.134 25.0748 250.774C24.7039 248.761 24.8285 246.575 25.4482 244.534C17.2459 240.554 10.6832 233.266 7.76488 224.592C4.2547 214.202 6.13039 202.219 12.6569 193.413L13.3411 193.896C6.99137 202.529 5.15061 214.164 8.5884 224.324C11.4343 232.768 17.7638 239.841 25.7515 243.736C26.2319 242.447 26.8636 241.236 27.7067 240.142C29.5379 237.777 32.0057 236.369 34.6367 236.187C36.6904 236.044 38.9611 236.91 40.3733 238.39C41.4388 239.517 41.9394 240.874 41.7997 242.262C41.549 244.435 39.6644 246.38 37.1813 246.99C34.8276 247.582 32.399 247.019 30.5414 246.481C29.0559 246.045 27.643 245.52 26.2429 244.869C25.7021 246.758 25.5683 248.72 25.9235 250.572C26.9042 255.706 30.6201 260.572 36.9261 265.031C42.611 269.013 47.8524 271.07 52.8964 271.291C59.0507 271.56 64.9169 268.678 67.4847 264.061L68.2036 264.516ZM26.5115 244.1C27.8802 244.747 29.3246 245.275 30.7785 245.708C32.5415 246.236 34.8156 246.752 36.9737 246.205C38.7374 245.777 40.732 244.321 40.948 242.176C41.1256 240.728 40.3756 239.633 39.742 238.964C38.4716 237.657 36.4785 236.883 34.6803 237.02C32.2733 237.192 30.0074 238.493 28.3561 240.653C27.5826 241.69 26.954 242.87 26.5115 244.1Z" fill="#FE673C" />
</svg>