<svg viewBox="0 0 458 333" fill="none" xmlns="http://www.w3.org/2000/svg">
	<path d="M327.862 192.968C326.217 182.281 324.616 171.593 323.448 160.862C322.539 152.337 321.76 143.77 320.679 135.245H292.423C137.514 137.019 131.413 133.817 131.413 146.106C131.413 158.395 134.225 234.379 138.639 235.504C141.841 236.326 267.239 233.513 334.309 231.955C332.059 218.974 329.852 205.993 327.862 192.968Z" fill="#FFD939" />
	<path d="M327.861 192.969C326.216 182.281 324.615 171.593 323.447 160.862C322.538 152.337 321.759 143.77 320.678 135.245H292.422C282.297 135.375 272.82 135.462 263.95 135.548C260.185 143.38 255.079 150.606 249.238 157.184C230.242 178.646 205.534 194.137 187.144 216.291C182.255 222.176 177.841 228.58 174.163 235.331C217.044 234.638 288.96 233.037 334.265 231.955C332.058 218.974 329.851 205.993 327.861 192.969Z" fill="#F4A914" />
	<path d="M222.886 201.233L222.583 201.017C222.41 200.887 203.068 188.815 137.599 143.554L138.248 142.645C199.174 184.747 220.117 198.118 222.886 199.849L310.293 135.202L310.942 136.111L222.886 201.233Z" fill="white" />
	<path d="M140.499 171.593C145.476 168.478 151.058 166.098 155.644 162.376C160.274 158.569 163.693 153.506 166.332 148.184C168.279 144.289 169.837 140.265 171.351 136.198C133.749 136.803 131.413 138.491 131.413 146.063C131.413 150.52 131.802 163.328 132.451 177.911C134.831 175.617 137.514 173.497 140.499 171.593Z" fill="#F4A914" />
	<path d="M106.628 135.909C108.705 135.26 111.258 136.385 112.037 138.462C110.392 136.514 108.748 134.524 107.926 132.101C107.104 129.678 107.363 126.735 109.224 125.004C111.95 122.408 116.407 123.577 119.825 125.134C125.71 127.86 131.292 131.279 136.355 135.346C138.908 137.423 141.59 140.236 141.028 143.481C140.465 146.77 136.874 148.587 133.629 149.409C125.753 151.486 116.623 151.27 108.964 148.371C104.507 146.726 99.8342 138.029 106.628 135.909Z" fill="#FFB0D8" />
	<path d="M145.734 128.928C146.47 130.14 148.114 130.832 149.672 130.745C151.273 130.659 152.744 129.837 153.523 128.668C154.388 127.457 154.518 125.899 153.826 124.644C153.134 123.389 151.576 122.481 149.932 122.437C146.47 122.394 144.22 126.418 145.734 128.928Z" fill="#53CAF1" />
	<path d="M158.283 127.63C159.019 128.842 160.663 129.534 162.221 129.447C163.779 129.361 165.293 128.539 166.072 127.37C166.937 126.159 167.067 124.601 166.375 123.346C165.682 122.091 164.125 121.183 162.48 121.139C159.019 121.139 156.769 125.12 158.283 127.63Z" fill="#53CAF1" />
	<path d="M170.875 126.894C171.611 128.106 173.255 128.798 174.813 128.712C176.414 128.625 177.885 127.803 178.664 126.635C179.529 125.423 179.659 123.865 178.967 122.61C178.275 121.356 176.717 120.447 175.072 120.404C171.611 120.404 169.361 124.428 170.875 126.894Z" fill="#53CAF1" />
	<path d="M139.417 233.037L138.508 232.345C153.74 212.267 171.697 194.483 191.948 179.425L192.597 180.334C172.476 195.305 154.562 213.046 139.417 233.037Z" fill="white" />
	<path d="M216.785 218.369C216.958 215.556 217.087 212.743 217.261 209.974C208.52 209.931 199.822 209.844 191.082 209.801C186.625 209.758 177.322 207.551 176.543 214.215C175.764 220.878 186.192 218.325 190.303 218.325C199.13 218.325 207.957 218.325 216.785 218.369Z" fill="white" />
	<path d="M424.899 263.357C418.86 257.154 401.658 252.86 393.792 261.807C389.859 266.26 391.011 274.094 393.236 279.541C373.411 256.12 359.904 229.916 321.049 198.224C281.242 165.698 224.271 185.023 210.208 207.131C205.48 214.567 205.48 224.906 216.763 236.318C226.814 246.458 233.29 259.341 242.904 269.242C226.496 259.341 144.735 263.198 183.192 312.068C189.549 320.18 198.527 326.224 207.665 329.723C216.008 332.944 224.947 332.904 233.727 332.825C284.579 332.506 335.431 332.149 386.323 331.83C398.957 331.751 411.59 331.671 424.224 331.592C433.163 331.552 443.532 333.023 451.755 327.934C465.025 319.742 457.635 296.997 424.899 263.357Z" fill="#FFCCE8" />
	<path d="M260.623 244.947C250.016 247.094 240.283 257.234 239.329 269.839C238.534 280.456 243.898 290.715 251.208 297.037C258.518 303.36 267.457 306.342 276.356 308.489C287.241 311.153 298.286 312.744 309.37 313.301C333.048 314.454 337.895 287.335 317.832 275.167C299.954 264.391 282.514 240.493 260.623 244.947Z" fill="#FE7EB2" />
	<path d="M290.816 245.623C293.995 247.77 298.206 249.877 301.066 247.174C302.854 245.503 303.331 242.362 302.695 239.777C302.059 237.193 300.51 235.046 298.842 233.177C293.955 227.809 275.879 216.516 270.118 225.82C265.47 233.376 286.645 242.8 290.816 245.623Z" fill="#FE7EB2" />
	<path d="M219.602 80.4706C223.995 77.7984 228.94 66.9866 228.295 61.3043C227.65 55.6219 228.172 55.7448 229.339 55.9905C230.506 56.267 230.783 62.625 231.305 62.7172C231.827 62.8093 234.714 66.188 234.192 68.6759C233.67 71.1639 234.806 86.0608 220.37 89.4087C205.903 92.7567 219.602 80.4706 219.602 80.4706Z" fill="#F4A914" />
	<path d="M230.076 65.7892C229.646 60.9054 232.164 59.2775 233.147 60.414C234.099 61.5505 232.594 64.4377 232.687 66.1578C232.779 67.8778 230.229 67.6628 230.076 65.7892Z" fill="#FFD939" />
	<path d="M205.442 99.0536C210.878 97.7329 216.346 96.4428 221.813 95.1528C221.936 91.4362 222.243 87.7197 222.151 84.0031C222.028 78.5358 220.922 72.8228 217.482 68.5533C214.042 64.2839 207.838 61.9188 202.862 64.2225C198.316 66.3418 196.074 71.4713 194.722 76.2936C193.156 81.8531 192.265 87.5968 191.989 93.3713C191.896 95.7671 191.436 99.5144 191.958 102.617C196.319 100.958 201.05 100.129 205.442 99.0536Z" fill="#FFD939" />
	<path d="M200.927 92.2348C197.517 89.1325 212.568 74.4813 220.093 72.9763C219.417 71.3791 218.588 69.8741 217.513 68.5226C214.073 64.2532 207.868 61.8881 202.892 64.1917C198.346 66.3111 196.104 71.4405 194.753 76.2628C193.186 81.8223 192.296 87.5661 192.019 93.3405C191.927 95.7363 191.466 99.4836 191.988 102.586C193.801 101.879 211.37 96.7192 213.274 96.2278C213.489 91.3133 204.766 95.7363 200.927 92.2348Z" fill="#F4A914" />
	<path d="M200.927 92.2347C200.834 92.1425 200.773 92.0504 200.712 91.9582C197.855 91.989 194.999 91.8968 192.111 91.7125C192.081 92.2654 192.05 92.7876 192.019 93.3404C191.927 95.7362 191.466 99.4835 191.988 102.586C193.801 101.879 211.37 96.7191 213.274 96.2277C213.489 91.3132 204.766 95.7362 200.927 92.2347Z" fill="#03036D" />
	<path d="M205.104 60.5981C197.609 61.3045 191.743 67.1097 191.159 75.4643C190.545 84.2181 196.135 85.9382 199.053 85.416C205.073 84.3717 205.749 79.4265 206.947 73.9899C206.947 73.9899 222.581 71.1334 224.178 70.5498C225.775 69.9662 218.987 68.6148 218.987 68.6148C218.987 68.6148 216.776 59.4616 205.104 60.5981Z" fill="#0000EF" />
	<path d="M203.752 60.7823C196.903 62.011 191.712 67.6011 191.159 75.4643C190.545 84.2181 196.135 85.9382 199.053 85.416C200.466 85.1703 201.572 84.7096 202.462 84.0953C199.759 77.1843 200.65 68.1847 203.752 60.7823Z" fill="#0000D8" />
	<path d="M199.391 81.4844C200.65 81.4536 202.37 80.5015 202.8 79.3036C204.275 75.0649 198.838 72.7612 196.627 75.0341C194.446 77.2764 196.227 81.5765 199.391 81.4844Z" fill="#F4A914" />
	<path d="M216.776 80.3787C217.298 80.348 218.004 79.9794 218.158 79.488C218.742 77.7679 216.53 76.8158 215.639 77.7372C214.779 78.6587 215.486 80.4094 216.776 80.3787Z" fill="#03036D" />
	<path d="M214.472 77.2763L213.704 77.0305C214.042 76.0169 214.872 75.1569 215.916 74.8498C216.929 74.5426 218.097 74.7576 218.957 75.4333L218.465 76.0477C217.82 75.5255 216.929 75.3719 216.162 75.6176C215.394 75.8634 214.718 76.5084 214.472 77.2763Z" fill="#E04136" />
	<path d="M218.711 87.0745C218.22 87.0745 217.697 86.9516 217.267 86.7366C216.377 86.2759 215.701 85.4159 215.517 84.433L216.315 84.2794C216.438 85.0166 216.96 85.6923 217.636 86.0302C218.312 86.3681 219.141 86.3681 219.817 86.0302L220.155 86.7366C219.694 86.9516 219.202 87.0745 218.711 87.0745Z" fill="white" />
	<path d="M213.889 68.6761C212.752 66.1267 210.51 64.1302 207.838 63.3623C205.165 62.5637 202.186 63.0245 199.852 64.5295L199.422 63.8538C201.94 62.1951 205.165 61.7344 208.053 62.5637C210.94 63.4238 213.397 65.5738 214.626 68.3382L213.889 68.6761Z" fill="#A8E4F4" />
	<path d="M198.224 72.915C196.35 72.1778 194.169 72.27 192.357 73.0993C191.589 73.4372 190.883 73.9286 190.422 74.6351C189.961 75.3108 189.746 76.2323 190.023 77.0001C190.483 78.2902 191.988 78.8123 193.34 79.0581C194.845 79.3345 196.381 79.4881 197.916 79.4881C199.452 79.4881 202.278 79.1502 202.37 77.0923C202.432 75.2494 199.637 73.4679 198.224 72.915Z" fill="#F4A914" />
	<path d="M183.728 126.266C196.045 143.743 202.372 150.071 203.785 148.627C205.228 147.183 256.953 94.1074 256.953 94.1074L183.728 126.266Z" fill="#3DB5C9" />
	<path d="M275.474 82.9581C220.125 89.8384 168.769 104.49 166.496 107.623C164.223 110.786 155.899 144.02 157.067 144.327C158.203 144.604 270.59 91.0055 275.474 88.1183C280.358 85.2618 275.474 82.9581 275.474 82.9581Z" fill="#A8E4F4" />
	<path d="M198.716 109.465C203.815 109.957 215.425 103.752 220.094 101.909C227.312 99.1141 236.988 98.4998 236.097 89.1624C222.736 91.681 210.419 94.384 200.006 96.964C197.856 100.404 193.464 108.974 198.716 109.465Z" fill="#48C6D3" />
	<path d="M175.588 129C173.53 129 171.841 128.324 170.582 126.942C167.787 123.963 167.326 120.492 169.169 116.284C171.411 111.154 176.97 107.407 182.376 107.407C184.404 107.407 186.246 108.39 187.137 109.926C188.397 112.137 187.506 114.779 186.584 117.082C186.093 118.311 185.479 119.632 184.189 120.123C183.083 120.523 181.731 120.062 181.117 119.048C181.056 118.956 181.025 118.864 180.994 118.772C179.919 120.523 178.445 122.028 176.694 123.103C175.373 123.932 173.592 124.423 172.425 123.379C171.35 122.396 171.534 120.707 172.148 119.447C173.807 116.192 178.107 114.564 181.516 115.885L181.578 115.67L182.1 115.762L182.223 115.946C182.376 116.192 182.253 116.468 182.069 116.96C181.885 117.451 181.578 118.28 181.793 118.618C182.192 119.294 183.144 119.632 183.912 119.355C184.895 118.987 185.417 117.881 185.847 116.775C186.707 114.625 187.506 112.199 186.431 110.294C185.694 109.004 184.096 108.175 182.376 108.175C177.278 108.175 172.025 111.707 169.906 116.56C168.217 120.43 168.616 123.625 171.165 126.358C172.486 127.741 174.298 128.324 176.571 128.109C182.069 127.526 188.489 122.365 189.994 119.847L190.669 120.246C189.042 122.949 182.499 128.263 176.663 128.877C176.295 128.969 175.926 129 175.588 129ZM178.998 116.222C176.51 116.222 174.022 117.574 172.885 119.816C172.394 120.799 172.21 122.12 172.977 122.795C173.807 123.563 175.25 123.103 176.295 122.458C178.506 121.075 180.226 119.017 181.24 116.622C180.503 116.345 179.766 116.222 178.998 116.222Z" fill="white" />
	<path d="M237.387 87.9343C232.534 86.5214 224.087 90.4837 218.896 89.3779C216.132 88.7943 212.784 87.8421 210.296 87.105C207.961 89.1936 205.811 91.528 203.661 93.8009C217.299 100.835 231.059 95.7667 233.271 95.8281C236.035 95.8896 235.881 94.1695 235.636 93.8009C235.636 93.8009 238.369 92.603 237.141 90.7601C237.11 90.7601 239.506 88.5486 237.387 87.9343Z" fill="#FFD939" />
	<path d="M219.787 89.8078C217.145 89.8078 214.473 89.3778 211.893 88.5178L212.139 87.7499C215.18 88.7635 218.435 89.1935 221.538 88.9478L221.599 89.7464C221.016 89.8078 220.401 89.8078 219.787 89.8078Z" fill="#E04136" />
	<path d="M209.682 87.2275C207.163 86.2139 204.245 86.7975 202.341 88.794C201.081 90.1147 200.16 91.6505 200.037 93.002C199.761 95.5821 204.276 95.1521 204.276 95.1521L211.525 87.9954L209.682 87.2275Z" fill="#03036D" />
	<path d="M234.96 93.9852C233.946 93.3708 232.595 93.3401 231.55 93.9237L231.182 93.2173C232.472 92.5108 234.1 92.5723 235.359 93.3094L234.96 93.9852Z" fill="#E04136" />
	<path d="M236.772 91.0673C235.421 90.3608 233.731 90.3608 232.349 91.0366L231.98 90.3301C233.578 89.5008 235.543 89.5315 237.141 90.3608L236.772 91.0673Z" fill="#E04136" />
	<path d="M75.9859 229.284C71.6412 229.284 67.6069 228.586 63.9604 227.19C61.1674 226.103 58.6459 224.59 56.4735 222.767C41.1507 227.5 23.0348 223.582 11.7852 212.022C-2.37393 197.436 -4.0032 172.299 8.1387 155.967L8.95333 156.588C-2.91702 172.532 -1.32655 197.087 12.4834 211.324C23.3452 222.496 40.724 226.336 55.5813 221.991C52.0513 218.694 49.5686 214.543 48.7539 210.16C47.2023 201.936 51.9349 193.208 59.2666 190.725C63.107 189.406 67.762 190.143 71.4861 192.587C74.861 194.837 76.9169 198.212 77.1497 201.781C77.654 209.5 70.7102 215.242 67.7232 217.336C64.6199 219.509 61.2062 221.216 57.6373 222.418C59.6157 224.009 61.9044 225.328 64.3483 226.297C70.8266 228.78 78.6626 229.013 87.0417 226.918C94.5673 225.056 101.705 221.604 108.61 218.306L109.037 219.198C102.093 222.535 94.9164 225.987 87.2744 227.888C83.3564 228.78 79.5548 229.284 75.9859 229.284ZM63.2621 191.035C61.982 191.035 60.7407 191.229 59.5769 191.617C52.7107 193.945 48.2884 202.169 49.7625 209.927C50.5772 214.272 53.0986 218.423 56.7063 221.604C60.3915 220.401 63.9216 218.694 67.1026 216.444C69.9732 214.427 76.5678 208.996 76.1023 201.781C75.9083 198.522 73.9687 195.458 70.8654 193.363C68.5767 191.85 65.8612 191.035 63.2621 191.035Z" fill="#FE7EB2" />
	<path d="M257.881 139.054C247.407 139.054 236.895 134.166 230.688 125.593L231.503 125.011C240.037 136.882 257.144 141.42 270.45 135.369L270.877 136.3C266.803 138.162 262.342 139.054 257.881 139.054Z" fill="#FE7EB2" />
	<path d="M54.8178 118.224C53.5585 116.842 52.0841 115.552 50.2719 115.091C48.4597 114.63 46.2789 115.214 45.3575 116.842C44.436 118.47 45.4804 120.989 47.354 121.081C42.2552 117.026 36.5115 113.801 30.3684 111.62C26.8669 110.361 22.2903 109.747 20.0481 112.695C18.4816 114.753 18.8809 117.825 20.3245 120.006C21.7681 122.186 24.0104 123.63 26.2219 125.012C28.4334 126.394 30.737 127.777 32.2728 129.865C30.9213 128.944 29.447 127.992 27.819 128.114C26.1911 128.237 24.6861 130.08 25.5461 131.493C26.2219 132.568 27.7269 132.66 28.9862 132.599C37.5865 132.261 46.5247 132.568 55.0635 131.555C63.7252 130.541 58.5958 122.371 54.8178 118.224Z" fill="#FFCCE8" />
	<path d="M112.383 183.096C111.492 179.963 110.079 176.83 110.509 173.636C111.185 168.537 116.529 164.821 121.659 164.944C142.668 165.466 149.088 178.735 149.088 178.735C149.088 178.735 142.484 180.7 138.675 182.39C141.501 186.782 144.357 195.014 142.054 199.682C139.75 204.351 134.866 207.699 129.676 208.129C125.283 208.498 115.639 206.686 113.304 202.232C112.106 199.928 113.366 196.857 113.55 194.461C113.826 190.683 113.458 186.782 112.383 183.096Z" fill="#3CA184" />
	<path d="M138.675 182.42C138.767 182.39 138.89 182.328 138.982 182.298C138.153 182.144 137.324 181.96 136.495 181.745C131.857 185.369 125.591 187.151 120.676 183.188C116.867 180.117 115.854 174.404 117.666 170.011C116.837 168.967 116.069 167.831 115.393 166.663C112.813 168.199 110.847 170.687 110.479 173.636C110.049 176.861 111.462 179.994 112.352 183.096C113.427 186.782 113.796 190.652 113.519 194.461C113.335 196.857 112.076 199.959 113.274 202.232C115.639 206.685 125.253 208.498 129.645 208.129C134.836 207.699 139.72 204.351 142.023 199.682C144.388 195.044 141.501 186.813 138.675 182.42Z" fill="#2C8469" />
	<path d="M140.365 192.587C138.337 192.894 136.31 193.355 134.252 193.447C132.532 193.539 130.751 192.679 130.474 190.775C130.106 188.349 127.894 186.475 125.376 186.782C122.058 187.181 122.028 190.376 122.12 193.017C122.181 194.338 121.751 196.089 120.246 196.55C118.096 197.225 115.977 197.747 113.796 198.27C113.489 198.331 113.182 198.362 112.905 198.362C112.721 199.744 112.69 201.095 113.304 202.263C115.67 206.716 125.283 208.528 129.676 208.16C134.867 207.73 139.75 204.382 142.054 199.713C143.068 197.686 143.068 194.983 142.576 192.219C141.839 192.342 141.102 192.464 140.365 192.587Z" fill="#0000EF" />
	<path d="M121.72 177.076C122.703 178.612 124.7 179.441 126.481 179.042C128.263 178.642 129.706 177.014 129.891 175.202C130.075 173.39 128.969 171.486 127.311 170.779C123.441 169.059 119.386 173.39 121.72 177.076Z" fill="white" />
	<path d="M127.403 178.673C128.724 177.997 129.737 176.677 129.891 175.172C130.075 173.359 128.969 171.455 127.311 170.749C126.604 170.442 125.929 170.349 125.253 170.38C125.959 173.144 126.666 175.94 127.403 178.673Z" fill="#0000EF" />
	<path d="M124.393 171.67C125.468 171.455 126.573 171.24 127.648 171.025C128.416 170.871 129.184 170.718 129.86 170.319C130.536 169.919 131.119 169.274 131.15 168.476C131.242 167.37 130.29 166.418 129.215 166.111C127.648 165.681 125.867 166.172 124.331 166.479C123.287 166.663 122.028 166.878 121.229 167.677C120.492 168.414 120.461 169.458 120.891 170.411C121.628 171.885 122.949 171.946 124.393 171.67Z" fill="#03036D" />
	<path d="M130.597 196.887C129.952 195.106 129.368 193.324 128.908 191.481C128.539 190.069 127.311 188.994 125.744 189.239C124.393 189.485 122.857 190.161 123.686 193.079C124.331 195.352 124.823 196.949 125.621 199.16C126.113 200.542 127.986 201.095 129.246 200.512C130.689 199.867 131.089 198.3 130.597 196.887Z" fill="#3CA184" />
	<path d="M137.569 184.263C136.494 183.25 135.911 181.806 135.941 180.332C135.972 178.888 136.679 177.444 137.784 176.492L138.306 177.107C137.354 177.905 136.771 179.134 136.74 180.362C136.709 181.591 137.231 182.85 138.122 183.68L137.569 184.263Z" fill="#2C8469" />
	<path d="M151.975 179.932C152.835 176.984 153.879 174.895 156.183 174.004C158.486 173.114 158.578 174.741 157.38 175.724C156.183 176.707 155.108 177.997 155.108 177.997L151.975 179.932Z" fill="#2C8469" />
	<path d="M147.306 196.795C154.862 182.174 148.228 179.901 155.784 176.891C161.589 174.588 159.439 179.134 159.439 179.134C159.439 179.134 162.387 180.331 160.176 182.574C160.176 182.574 161.865 184.447 159.285 186.075C156.705 187.672 158.548 190.068 155.108 195.781C151.606 201.464 147.306 196.795 147.306 196.795Z" fill="#2C8469" />
	<path d="M161.466 171.516C167.425 171.608 174.735 169.274 174.858 169.95C175.012 170.902 179.404 183.833 170.742 185.092C162.08 186.321 162.019 179.042 161.743 177.537C161.466 176.031 160.821 171.486 161.466 171.516Z" fill="#0000EF" />
	<path d="M161.22 172.038C161.067 173.267 161.497 176.339 161.712 177.536C161.988 179.042 162.08 186.321 170.711 185.092C172.647 184.816 173.906 183.956 174.735 182.789C169.299 181.376 164.169 177.014 161.22 172.038Z" fill="#0000D8" />
	<path d="M162.141 184.294C161.281 184.294 160.421 184.202 159.561 183.987C157.503 183.434 155.2 181.775 154.77 179.287C154.37 177.076 155.691 174.619 157.811 173.544C159.776 172.561 162.356 172.745 164.353 174.004L163.923 174.68C162.141 173.574 159.869 173.421 158.148 174.281C156.336 175.202 155.2 177.291 155.538 179.164C155.906 181.315 157.933 182.758 159.746 183.25C161.896 183.833 164.199 183.434 166.134 183.004L166.319 183.772C165.121 184.018 163.646 184.294 162.141 184.294Z" fill="#0000EF" />
	<path d="M160.145 182.574L156.091 177.444C153.726 179.011 153.511 181.161 154.309 181.99C154.831 182.543 155.446 182.236 155.999 181.836C155.415 182.359 154.985 183.065 155.999 183.71C157.473 184.662 160.575 185.092 160.637 184.447C160.698 183.802 160.145 182.574 160.145 182.574Z" fill="#2C8469" />
	<path d="M154.862 182.727C154.678 182.727 154.493 182.697 154.309 182.635C153.633 182.42 153.111 181.775 153.08 181.069C153.019 180.362 153.818 179.042 156.183 177.475L156.613 178.151C154.309 179.687 153.848 180.762 153.879 181.038C153.91 181.407 154.186 181.775 154.555 181.898C155.046 182.052 155.63 181.806 155.998 181.591C156.92 181.13 157.78 180.485 158.486 179.748L159.07 180.301C158.271 181.13 157.381 181.806 156.367 182.328C155.968 182.512 155.415 182.727 154.862 182.727Z" fill="#F3CF14" />
	<path d="M155.845 185.062C155.63 185.062 155.446 185.031 155.262 184.969C154.832 184.847 154.463 184.539 154.248 184.14C154.064 183.802 154.033 183.434 154.125 183.127L154.893 183.372C154.832 183.526 154.893 183.679 154.955 183.772C155.077 183.987 155.262 184.14 155.477 184.202C155.845 184.324 156.337 184.232 156.92 183.987C157.75 183.618 158.456 183.034 159.04 182.359L159.654 182.85C159.009 183.649 158.18 184.294 157.258 184.724C156.705 184.939 156.245 185.062 155.845 185.062Z" fill="#F3CF14" />
	<path d="M157.964 187.028C157.503 186.997 157.012 186.966 156.551 186.751C156.06 186.505 155.599 185.983 155.661 185.307L156.459 185.4C156.428 185.645 156.674 185.922 156.889 186.014C157.196 186.168 157.626 186.198 157.995 186.229L157.964 187.028Z" fill="#F3CF14" />
	<path d="M174.827 169.95C174.52 168.66 169.82 169.458 166.779 170.011C163.739 170.564 161.681 171.117 161.435 171.486C161.189 171.854 161.957 173.605 167.117 172.561C172.308 171.516 175.103 171.148 174.827 169.95Z" fill="#0000EF" />
	<path d="M173.875 171.455C174.09 169.52 169.913 170.257 167.21 170.779C164.476 171.301 162.602 171.885 162.265 172.407C161.927 172.96 161.927 175.509 166.595 174.496C171.264 173.482 173.691 173.237 173.875 171.455Z" fill="#FE673C" />
	<path d="M171.971 173.237C173.138 172.837 173.783 172.315 173.875 171.455C174.09 169.52 169.913 170.257 167.21 170.779C167.087 170.81 166.995 170.81 166.903 170.841C168.684 171.394 170.404 172.161 171.971 173.237Z" fill="#E04136" />
	<path d="M110.08 233.562C141.717 219.002 152.037 207.454 158.364 215.224C164.692 222.995 140.027 236.664 137.754 241.732C135.451 246.8 133.485 266.273 106.578 268.423C79.6719 270.573 91.4973 239.674 91.4973 239.674L110.08 233.562Z" fill="#FFB0D8" />
	<path d="M197.895 185.308C170.712 205.58 123.717 247.906 121.106 249.687C118.496 251.468 109.128 233.93 102.37 223.917C95.6435 213.873 197.895 185.308 197.895 185.308Z" fill="#3DB5C9" />
	<path d="M166.442 199.529C165.029 197.594 156.46 200.696 153.02 201.925C133.608 208.866 114.656 214.856 98.1622 227.203C96.5036 228.432 94.9064 229.691 93.3399 231.012C90.6063 233.039 49.8471 257.489 40.6325 269.775C37.1616 274.382 37.991 289.463 55.8673 296.559C100.282 314.128 108.943 278.559 120.646 270.358C144.051 279.204 148.627 255.677 148.627 255.677C148.627 255.677 155.446 250.179 155.631 241.24C155.815 231.626 150.931 223.18 130.72 225.883C136.925 221.183 154.003 215.409 161.159 212.337C163.77 211.17 171.08 205.887 166.442 199.529Z" fill="#FE7EB2" />
	<path d="M126.635 262.28C126.083 263.14 125.069 264.983 124.424 265.782C122.212 268.516 119.755 270.973 120.677 270.328C134.161 275.427 141.409 269.775 145.095 264.062C138.645 265.413 131.734 265.075 126.635 262.28Z" fill="#E56EA4" />
	<path d="M49.2636 271.464C59.9832 269.437 70.365 265.874 79.9482 260.652C96.7801 251.499 107.868 236.295 112.66 218.112C107.653 220.753 102.831 223.702 98.1623 227.173C96.5037 228.401 94.9065 229.661 93.34 230.982C90.6064 233.009 49.8472 257.458 40.6326 269.744C40.0797 270.481 39.619 271.526 39.3425 272.724C42.6598 272.478 45.977 272.079 49.2636 271.464Z" fill="#E56EA4" />
	<path d="M82.3437 208.744C71.7162 222.965 63.6074 239.367 61.5495 242.807C58.8465 247.291 67.3546 242.684 87.2582 234.882C107.162 227.081 198.448 186.813 200.321 185.062C202.195 183.311 192.243 182.82 172.77 188.134C153.296 193.447 85.2002 204.966 82.3437 208.744Z" fill="#A8E4F4" />
	<path d="M116.253 212.307C102.094 215.286 86.9817 225.299 72.2691 223.856C66.8018 232.886 62.9009 240.595 61.5495 242.807C58.8465 247.291 67.3546 242.684 87.2582 234.882C96.5035 231.258 121.168 220.63 145.095 210.095C135.573 208.467 124.27 210.617 116.253 212.307Z" fill="#D2F1FC" />
	<path d="M121.813 269.56L121.322 268.915C123.902 266.98 125.898 264.215 126.973 261.205L127.711 261.482C126.605 264.645 124.485 267.502 121.813 269.56Z" fill="#E04136" />
	<path d="M135.911 263.847C133.147 263.847 130.075 263.233 127.219 262.035L127.526 261.297C130.935 262.71 134.652 263.294 137.723 262.925L137.816 263.724C137.201 263.785 136.556 263.847 135.911 263.847Z" fill="#E04136" />
	<path d="M149.119 254.694L148.351 254.479C149.181 251.591 148.106 247.445 146.078 245.755C143.836 243.882 130.506 243.237 127.25 243.544L127.158 242.745C130.168 242.469 143.99 242.96 146.57 245.141C148.843 247.015 150.041 251.469 149.119 254.694Z" fill="#E04136" />
	<path d="M118.368 242.267L118.007 242.979L121.046 244.523L121.408 243.812L118.368 242.267Z" fill="#E04136" />
	<path d="M119.624 227.263L119.387 228.026L122.731 229.064L122.968 228.301L119.624 227.263Z" fill="#E04136" />
	<path d="M161.681 208.774C160.084 208.774 158.518 208.098 157.473 206.901L158.088 206.378C159.378 207.853 161.743 208.406 163.555 207.607C165.367 206.808 166.565 204.72 166.35 202.754L167.149 202.662C167.394 204.996 166.012 207.361 163.862 208.313C163.156 208.621 162.419 208.774 161.681 208.774Z" fill="#E04136" />
	<path d="M349.85 54.0504C374.975 57.1527 389.718 45.2044 396.476 42.5322C404.738 39.2456 410.605 36.1434 410.451 38.3856C410.298 40.8121 405.475 42.9622 405.475 42.9622C405.475 42.9622 407.717 48.1224 402.25 50.0881C402.25 50.0881 385.848 65.1386 370.798 67.5037C355.747 69.8688 347.884 65.3536 347.823 64.2479C347.761 63.1729 349.85 54.0504 349.85 54.0504Z" fill="#53CAF1" />
	<path d="M395.709 52.9451L395.586 52.1465C396.63 51.9622 397.244 50.9179 397.981 49.5971C398.719 48.3071 399.579 46.8327 401.084 45.6041C402.835 44.2219 403.357 42.7169 403.019 42.1947C402.773 41.7954 401.759 41.7033 399.732 42.7783C399.149 43.0855 398.688 43.4541 398.258 43.7919C397.582 44.3141 396.876 44.867 395.77 45.1434L395.586 44.3755C396.507 44.1298 397.091 43.6998 397.766 43.1469C398.227 42.7783 398.719 42.4097 399.364 42.0719C402.282 40.5361 403.326 41.2118 403.695 41.7647C404.37 42.8398 403.48 44.7441 401.575 46.2184C400.162 47.3242 399.364 48.7371 398.657 49.9657C397.859 51.44 397.152 52.6994 395.709 52.9451Z" fill="#FFD939" />
	<path d="M403.971 49.1978L403.326 48.7371C404.063 47.7235 404.033 46.372 403.695 45.4506C403.51 44.9284 403.203 44.5905 402.927 44.5291L403.08 43.7612C403.633 43.8841 404.125 44.4063 404.432 45.1741C404.862 46.2799 404.893 47.9385 403.971 49.1978Z" fill="#FFD939" />
	<path d="M401.729 50.7025L401.176 50.119C401.698 49.6275 401.391 47.4774 400.838 46.8017L401.452 46.2795C402.128 47.0781 402.712 49.7504 401.729 50.7025Z" fill="#FFD939" />
	<path d="M257.52 107.618C278.283 116.587 300.214 121.041 300.214 121.041L279.942 96.5607L263.57 101.506L257.52 107.618Z" fill="#48C6D3" />
	<path d="M268.946 94.9017C261.635 99.8776 243.329 116.065 243.575 117.201C244.22 120.18 265.69 102.765 275.887 98.9254C285.501 95.301 445.589 44.8051 445.589 44.8051C404.124 49.1973 276.256 89.9258 268.946 94.9017Z" fill="#D2F1FC" />
	<path d="M352.183 53.7438C354.118 56.1396 356.944 57.921 359.954 58.5661C361.981 55.2795 365.575 49.075 367.571 45.7578C363.486 44.8978 355.838 46.9864 350.309 46.2799C349.941 48.86 350.34 51.4708 352.183 53.7438Z" fill="#25ACBA" />
	<path d="M352.306 45.6959C344.197 44.5901 336.273 43.7915 336.273 43.7915C310.41 60.1628 295.268 94.9017 295.268 94.9017L352.644 84.1821C352.644 84.1821 361.674 60.9614 366.834 50.7639C359.524 50.426 354.917 50.3953 352.306 45.6959Z" fill="#03036D" />
	<path d="M357.067 47.0164C373.069 47.1392 385.202 44.3441 388.704 42.0712C393.649 38.9075 393.127 32.4573 389.932 28.2493C388.304 26.13 384.711 23.9492 375.68 26.0071C377.4 18.5433 372.517 10.4652 365.452 7.48579C358.388 4.47569 349.941 6.07289 343.614 10.4345C327.949 21.277 352.859 46.9857 357.067 47.0164Z" fill="#53CAF1" />
	<path d="M353.412 39.8904C350.279 33.6859 350.525 24.4099 353.872 18.359C355.654 15.1339 358.511 13.1988 361.951 12.0317C364.377 11.2023 367.08 10.8952 369.384 9.82015C368.186 8.86798 366.896 8.1001 365.514 7.48579C358.48 4.47569 350.002 6.07289 343.675 10.4345C327.98 21.2462 320.731 43.7913 343.767 46.2485C349.357 46.8321 354.702 47.0471 359.616 47.0164C357.005 45.1427 354.855 42.7469 353.412 39.8904Z" fill="#3DB5C9" />
	<path d="M344.259 31.444C350.279 27.6353 351.569 22.4751 351.999 15.8099C352.122 13.967 353.412 12.6463 355.285 12.5234C360.169 12.247 364.561 11.3255 368.677 9.329C367.664 8.62255 366.619 7.97753 365.483 7.5168C358.449 4.5067 349.972 6.10389 343.644 10.4655C335.904 15.8099 330.222 23.9802 329.208 31.1983C334.061 33.6555 339.098 34.6998 344.259 31.444Z" fill="#E04136" />
	<path d="M360.937 26.6524C362.166 27.9732 364.193 28.4339 365.913 27.9117C368.186 27.236 369.845 24.8095 369.63 22.4444C369.415 20.0793 367.357 17.96 364.992 17.745C362.903 17.5607 360.415 19.0043 359.709 21.0315C359.156 22.6594 359.831 25.4852 360.937 26.6524Z" fill="white" />
	<path d="M365.514 17.8677C365.698 21.2156 365.759 24.5943 365.852 27.9423C365.882 27.9423 365.913 27.9423 365.913 27.9116C368.186 27.2358 369.845 24.8093 369.63 22.4443C369.445 20.2635 367.664 18.3284 365.514 17.8677Z" fill="#03036D" />
	<path d="M370.274 34.6076C369.322 34.4233 368.278 34.239 367.356 34.6076C365.882 35.1912 365.206 37.0648 365.667 38.5698C366.128 40.0749 367.479 41.1806 368.953 41.7335C370.428 42.2864 372.056 42.3478 373.622 42.3785C375.465 42.4093 377.369 42.3478 379.028 41.5799C381.24 40.5663 383.298 37.6177 380.349 36.4812C377.37 35.314 373.438 35.1912 370.274 34.6076Z" fill="#E04136" />
	<path d="M376.479 39.3684C374.144 38.8462 368.585 38.1705 366.803 40.3513C367.418 40.9656 368.186 41.4263 368.984 41.7335C370.459 42.2863 372.087 42.3478 373.653 42.3785C375.496 42.4092 377.4 42.3478 379.059 41.5799C379.612 41.3342 380.165 40.9656 380.625 40.5049C379.12 40.0134 377.646 39.6448 376.479 39.3684Z" fill="#FE7EB2" />
	<path d="M359.647 19.5263C360.139 19.7106 360.691 19.6798 361.214 19.6184C363.517 19.4341 365.821 19.2806 368.094 19.0963C368.647 19.0655 369.261 19.0041 369.691 18.6048C370.398 17.9598 370.213 16.8233 369.967 15.9019C369.722 14.919 369.384 13.8439 368.493 13.3832C367.848 13.0146 367.05 13.1068 366.312 13.1682C364.807 13.3218 363.272 13.4754 361.767 13.6597C360.814 13.7518 359.616 13.9054 358.879 14.5811C357.559 15.779 357.989 18.8813 359.647 19.5263Z" fill="#E04136" />
	<path d="M374.053 6.13446C374.944 5.213 375.742 3.98439 375.527 2.72506C375.251 0.912862 373.101 -0.0700271 371.288 0.267841C369.507 0.605709 368.033 1.83432 366.65 3.0015C367.203 1.86503 366.251 0.452133 365.053 0.114265C363.855 -0.223604 362.565 0.237124 361.49 0.85143C359.217 2.17219 357.436 4.29154 356.514 6.74876C356.176 7.67022 355.992 8.83741 356.668 9.54386C357.067 9.97387 357.712 10.1274 358.296 10.2196C363.825 11.1718 369.968 10.3117 374.053 6.13446Z" fill="#E04136" />
	<path d="M293.211 124.542C316.739 134.893 328.135 151.418 331.36 153.138C334.585 154.858 366.59 116.003 382.962 101.505C395.616 90.2944 439.017 49.8116 439.017 49.8116L293.211 124.542Z" fill="#25ACBA" />
	<path d="M372.978 103.379C370.091 107.925 368.003 112.901 366.436 118.03C372.518 111.549 378.354 105.56 382.961 101.475C386.37 98.4339 392.053 93.2737 398.503 87.3456C388.705 86.7313 377.616 96.1302 372.978 103.379Z" fill="#53CAF1" />
	<path d="M445.589 44.8358C441.811 42.6243 292.596 86.455 275.887 98.9561C274.167 100.246 272.539 112.532 270.144 125.771C268.792 133.327 267.164 141.159 266.458 146.503C272.017 144.63 277.792 143.401 283.597 142.418C293.364 134.893 306.142 124.573 319.687 115.327C344.536 98.3418 449.367 47.0473 445.589 44.8358Z" fill="#A8E4F4" />
	<path d="M320.793 80.7727C320.609 81.6328 320.425 82.5235 320.333 83.4143C319.841 87.008 320.21 90.9395 323.158 93.4274C326.967 96.6218 331.329 97.574 336.95 95.6082C346.932 92.1374 344.782 86.9772 375.743 76.2576C383.145 73.6775 376.173 69.6538 378.507 62.4664C359.187 68.2409 338.547 74.7525 320.793 80.7727Z" fill="#D2F1FC" />
	<path d="M283.597 142.449C278.806 138.395 263.049 137.627 263.294 139.162C263.54 140.668 266.458 146.534 266.458 146.534L283.597 142.449Z" fill="#D2F1FC" />
	<path d="M382.04 64.8313C380.012 63.5106 368.433 65.7221 365.453 66.1521C362.474 66.5821 358.665 65.1692 353.536 62.7427C348.928 62.7427 344.997 64.0941 342.14 69.3465C358.634 79.1754 369.17 76.2881 373.685 75.9195C379.521 75.4281 380.596 74.7216 380.473 72.5716C380.473 72.5716 384.159 71.4351 381.794 68.3636C381.794 68.3636 384.067 66.1521 382.04 64.8313Z" fill="#53CAF1" />
	<path d="M379.828 72.6944C377.77 71.9265 375.374 71.9265 373.286 72.6944L373.009 71.9572C375.251 71.1279 377.832 71.1279 380.105 71.9572L379.828 72.6944Z" fill="#FFD939" />
	<path d="M381.886 68.732C379.552 67.8105 377.678 67.6877 375.651 68.3941L375.405 67.6262C377.617 66.8891 379.644 66.9812 382.193 67.9948L381.886 68.732Z" fill="#FFD939" />
	<path d="M376.142 62.5274C376.542 62.2202 377.002 61.9131 377.494 61.7902C377.985 61.6674 378.599 61.7902 378.907 62.1895C379.183 62.5581 379.214 63.0496 379.06 63.4796C378.907 63.9096 378.599 64.2782 378.292 64.5853C377.432 65.4146 372.579 68.0561 371.381 67.0733C369.784 65.7525 375.252 63.2031 376.142 62.5274Z" fill="#53CAF1" />
	<path d="M375.897 65.1383L375.559 64.4012C376.235 64.094 377.893 63.8176 378.6 63.8483L378.569 64.6469C377.985 64.6469 376.45 64.8926 375.897 65.1383Z" fill="#FFD939" />
	<path d="M338.946 73.8L338.823 73.6464C336.182 70.7284 333.878 67.534 331.943 64.1246L332.65 63.7253C334.523 67.0426 336.765 70.1448 339.284 72.9706C340.236 72.8478 342.018 72.1106 343.246 71.3427L343.676 72.0185C342.386 72.8171 340.267 73.7078 339.161 73.7692L338.946 73.8Z" fill="#A8E4F4" />
	<path d="M354.734 62.2204C351.478 60.439 348.499 58.166 345.918 55.4938L346.502 54.9409C349.051 57.5517 351.939 59.7632 355.133 61.514L354.734 62.2204Z" fill="#A8E4F4" />
	<path d="M151.549 97.4018C147.218 90.9823 142.488 90.583 138.771 92.3338C137.911 92.7331 136.99 93.5624 137.266 94.4532C130.754 87.1736 120.065 89.2623 115.704 93.2246C113.861 94.8832 112.909 96.9104 112.54 98.569C112.264 99.8591 112.786 101.211 113.646 102.193C114.506 103.176 115.704 103.791 116.932 104.251C120.373 105.541 124.151 105.541 127.806 105.234C134.225 104.681 142.15 103.821 148.17 101.487C155.265 107.753 158.613 111.684 159.627 111.654C160.272 111.654 158.337 107.476 151.549 97.4018Z" fill="#FFCCE8" />
	<path d="M74.9141 64.0756C70.5525 64.4442 66.1909 65.3349 62.3208 67.4235C58.4814 69.4815 55.1641 72.8294 53.8127 76.976C51.5705 83.8869 55.1641 91.6886 60.8772 96.1423C66.5902 100.596 73.9619 102.347 81.18 103.238C90.1182 104.343 99.2099 104.282 108.117 103.145C113.062 102.5 130.14 101.456 129.925 94.6987C129.741 89.0471 121.294 81.6754 117.332 78.266C111.803 73.5052 105.384 69.7579 98.5034 67.27C91.0089 64.567 82.9001 63.3998 74.9141 64.0756Z" fill="#FFCCE8" />
	<path d="M79.951 77.7133C77.0331 77.744 74.0537 78.0512 71.5043 79.4334C68.9549 80.8156 66.9277 83.4878 66.9892 86.4057C67.0506 89.1087 68.9242 91.5045 71.1972 92.9481C73.4701 94.3917 76.1423 95.0367 78.7838 95.6818C85.6948 97.3711 92.6364 99.0297 99.5474 100.719C103.571 101.702 108.608 102.347 111.158 99.0912C112.694 97.1254 112.694 94.2689 111.772 91.9345C107.533 81.1534 90.1178 77.6519 79.951 77.7133Z" fill="#FFB0D8" />
</svg>