<svg fill="none" viewBox="0 0 458 333" xmlns="http://www.w3.org/2000/svg"><path d="m327.862 192.968c-1.645-10.687-3.246-21.375-4.414-32.106-.909-8.525-1.688-17.092-2.769-25.617h-28.256c-154.909 1.774-161.01-1.428-161.01 10.861s2.812 88.273 7.226 89.398c3.202.822 128.6-1.991 195.67-3.549-2.25-12.981-4.457-25.962-6.447-38.987z" fill="#ffd939"/><path d="m327.861 192.969c-1.645-10.688-3.246-21.376-4.414-32.107-.909-8.525-1.688-17.092-2.769-25.617h-28.256c-10.125.13-19.602.217-28.472.303-3.765 7.832-8.871 15.058-14.712 21.636-18.996 21.462-43.704 36.953-62.094 59.107-4.889 5.885-9.303 12.289-12.981 19.04 42.881-.693 114.797-2.294 160.102-3.376-2.207-12.981-4.414-25.962-6.404-38.986z" fill="#f4a914"/><path d="m222.886 201.233-.303-.216c-.173-.13-19.515-12.202-84.984-57.463l.649-.909c60.926 42.102 81.869 55.473 84.638 57.204l87.407-64.647.649.909z" fill="#fff"/><path d="m140.499 171.593c4.977-3.115 10.559-5.495 15.145-9.217 4.63-3.807 8.049-8.87 10.688-14.192 1.947-3.895 3.505-7.919 5.019-11.986-37.602.605-39.938 2.293-39.938 9.865 0 4.457.389 17.265 1.038 31.848 2.38-2.294 5.063-4.414 8.048-6.318z" fill="#f4a914"/><path d="m106.628 135.909c2.077-.649 4.63.476 5.409 2.553-1.645-1.948-3.289-3.938-4.111-6.361s-.563-5.366 1.298-7.097c2.726-2.596 7.183-1.427 10.601.13 5.885 2.726 11.467 6.145 16.53 10.212 2.553 2.077 5.235 4.89 4.673 8.135-.563 3.289-4.154 5.106-7.399 5.928-7.876 2.077-17.006 1.861-24.665-1.038-4.457-1.645-9.1298-10.342-2.336-12.462z" fill="#ffb0d8"/><path d="m145.734 128.928c.736 1.212 2.38 1.904 3.938 1.817 1.601-.086 3.072-.908 3.851-2.077.865-1.211.995-2.769.303-4.024s-2.25-2.163-3.894-2.207c-3.462-.043-5.712 3.981-4.198 6.491z" fill="#53caf1"/><path d="m158.283 127.63c.736 1.212 2.38 1.904 3.938 1.817 1.558-.086 3.072-.908 3.851-2.077.865-1.211.995-2.769.303-4.024-.693-1.255-2.25-2.163-3.895-2.207-3.461 0-5.711 3.981-4.197 6.491z" fill="#53caf1"/><path d="m170.875 126.894c.736 1.212 2.38 1.904 3.938 1.818 1.601-.087 3.072-.909 3.851-2.077.865-1.212.995-2.77.303-4.025-.692-1.254-2.25-2.163-3.895-2.206-3.461 0-5.711 4.024-4.197 6.49z" fill="#53caf1"/><path d="m139.417 233.037-.909-.692c15.232-20.078 33.189-37.862 53.44-52.92l.649.909c-20.121 14.971-38.035 32.712-53.18 52.703z" fill="#fff"/><path d="m216.785 218.369c.173-2.813.302-5.626.476-8.395-8.741-.043-17.439-.13-26.179-.173-4.457-.043-13.76-2.25-14.539 4.414-.779 6.663 9.649 4.11 13.76 4.11 8.827 0 17.654 0 26.482.044z" fill="#fff"/><path d="m424.899 263.357c-6.039-6.203-23.241-10.497-31.107-1.55-3.933 4.453-2.781 12.287-.556 17.734-19.825-23.421-33.332-49.625-72.187-81.317-39.807-32.526-96.778-13.201-110.841 8.907-4.728 7.436-4.728 17.775 6.555 29.187 10.051 10.14 16.527 23.023 26.141 32.924-16.408-9.901-98.169-6.044-59.712 42.826 6.357 8.112 15.335 14.156 24.473 17.655 8.343 3.221 17.282 3.181 26.062 3.102 50.852-.319 101.704-.676 152.596-.995 12.634-.079 25.267-.159 37.901-.238 8.939-.04 19.308 1.431 27.531-3.658 13.27-8.192 5.88-30.937-26.856-64.577z" fill="#ffcce8"/><path d="m260.623 244.947c-10.607 2.147-20.34 12.287-21.294 24.892-.795 10.617 4.569 20.876 11.879 27.198 7.31 6.323 16.249 9.305 25.148 11.452 10.885 2.664 21.93 4.255 33.014 4.812 23.678 1.153 28.525-25.966 8.462-38.134-17.878-10.776-35.318-34.674-57.209-30.22z" fill="#fe7eb2"/><path d="m290.816 245.623c3.179 2.147 7.39 4.254 10.25 1.551 1.788-1.671 2.265-4.812 1.629-7.397-.636-2.584-2.185-4.731-3.853-6.6-4.887-5.368-22.963-16.661-28.724-7.357-4.648 7.556 16.527 16.98 20.698 19.803z" fill="#fe7eb2"/><path d="m219.602 80.4706c4.393-2.6722 9.338-13.484 8.693-19.1663-.645-5.6824-.123-5.5595 1.044-5.3138 1.167.2765 1.444 6.6345 1.966 6.7267.522.0921 3.409 3.4708 2.887 5.9587-.522 2.488.614 17.3849-13.822 20.7328-14.467 3.348-.768-8.9381-.768-8.9381z" fill="#f4a914"/><path d="m230.076 65.7892c-.43-4.8838 2.088-6.5117 3.071-5.3752.952 1.1365-.553 4.0237-.46 5.7438.092 1.72-2.458 1.505-2.611-.3686z" fill="#ffd939"/><path d="m205.442 99.0536c5.436-1.3207 10.904-2.6108 16.371-3.9008.123-3.7166.43-7.4331.338-11.1497-.123-5.4673-1.229-11.1803-4.669-15.4498-3.44-4.2694-9.644-6.6345-14.62-4.3308-4.546 2.1193-6.788 7.2488-8.14 12.0711-1.566 5.5595-2.457 11.3032-2.733 17.0777-.093 2.3958-.553 6.1431-.031 9.2457 4.361-1.659 9.092-2.488 13.484-3.5634z" fill="#ffd939"/><path d="m200.927 92.2348c-3.41-3.1023 11.641-17.7535 19.166-19.2585-.676-1.5972-1.505-3.1022-2.58-4.4537-3.44-4.2694-9.645-6.6345-14.621-4.3309-4.546 2.1194-6.788 7.2488-8.139 12.0711-1.567 5.5595-2.457 11.3033-2.734 17.0777-.092 2.3958-.553 6.1431-.031 9.2455 1.813-.707 19.382-5.8668 21.286-6.3582.215-4.9145-8.508-.4915-12.347-3.993z" fill="#f4a914"/><path d="m200.927 92.2347c-.093-.0922-.154-.1843-.215-.2765-2.857.0308-5.713-.0614-8.601-.2457-.03.5529-.061 1.0751-.092 1.6279-.092 2.3958-.553 6.1431-.031 9.2456 1.813-.707 19.382-5.8669 21.286-6.3583.215-4.9145-8.508-.4915-12.347-3.993z" fill="#03036d"/><path d="m205.104 60.5981c-7.495.7064-13.361 6.5116-13.945 14.8662-.614 8.7538 4.976 10.4739 7.894 9.9517 6.02-1.0443 6.696-5.9895 7.894-11.4261 0 0 15.634-2.8565 17.231-3.4401s-5.191-1.935-5.191-1.935-2.211-9.1532-13.883-8.0167z" fill="#0000ef"/><path d="m203.752 60.7823c-6.849 1.2287-12.04 6.8188-12.593 14.682-.614 8.7538 4.976 10.4739 7.894 9.9517 1.413-.2457 2.519-.7064 3.409-1.3207-2.703-6.911-1.812-15.9106 1.29-23.313z" fill="#0000d8"/><path d="m199.391 81.4844c1.259-.0308 2.979-.9829 3.409-2.1808 1.475-4.2387-3.962-6.5424-6.173-4.2695-2.181 2.2423-.4 6.5424 2.764 6.4503z" fill="#f4a914"/><path d="m216.776 80.3787c.522-.0307 1.228-.3993 1.382-.8907.584-1.7201-1.628-2.6722-2.519-1.7508-.86.9215-.153 2.6722 1.137 2.6415z" fill="#03036d"/><path d="m214.472 77.2763-.768-.2458c.338-1.0136 1.168-1.8736 2.212-2.1807 1.013-.3072 2.181-.0922 3.041.5835l-.492.6144c-.645-.5222-1.536-.6758-2.303-.4301-.768.2458-1.444.8908-1.69 1.6587z" fill="#e04136"/><path d="m218.711 87.0745c-.491 0-1.014-.1229-1.444-.3379-.89-.4607-1.566-1.3207-1.75-2.3036l.798-.1536c.123.7372.645 1.4129 1.321 1.7508s1.505.3379 2.181 0l.338.7064c-.461.215-.953.3379-1.444.3379z" fill="#fff"/><path d="m213.889 68.6761c-1.137-2.5494-3.379-4.5459-6.051-5.3138-2.673-.7986-5.652-.3378-7.986 1.1672l-.43-.6757c2.518-1.6587 5.743-2.1194 8.631-1.2901 2.887.8601 5.344 3.0101 6.573 5.7745z" fill="#a8e4f4"/><path d="m198.224 72.915c-1.874-.7372-4.055-.645-5.867.1843-.768.3379-1.474.8293-1.935 1.5358-.461.6757-.676 1.5972-.399 2.365.46 1.2901 1.965 1.8122 3.317 2.058 1.505.2764 3.041.43 4.576.43 1.536 0 4.362-.3379 4.454-2.3958.062-1.8429-2.733-3.6244-4.146-4.1773z" fill="#f4a914"/><path d="m183.728 126.266c12.317 17.477 18.644 23.805 20.057 22.361 1.443-1.444 53.168-54.5196 53.168-54.5196z" fill="#3db5c9"/><path d="m275.474 82.9581c-55.349 6.8803-106.705 21.5319-108.978 24.6649-2.273 3.163-10.597 36.397-9.429 36.704 1.136.277 113.523-53.3215 118.407-56.2087 4.884-2.8565 0-5.1602 0-5.1602z" fill="#a8e4f4"/><path d="m198.716 109.465c5.099.492 16.709-5.713 21.378-7.556 7.218-2.7949 16.894-3.4092 16.003-12.7466-13.361 2.5186-25.678 5.2216-36.091 7.8016-2.15 3.44-6.542 12.01-1.29 12.501z" fill="#48c6d3"/><path d="m175.588 129c-2.058 0-3.747-.676-5.006-2.058-2.795-2.979-3.256-6.45-1.413-10.658 2.242-5.13 7.801-8.877 13.207-8.877 2.028 0 3.87.983 4.761 2.519 1.26 2.211.369 4.853-.553 7.156-.491 1.229-1.105 2.55-2.395 3.041-1.106.4-2.458-.061-3.072-1.075-.061-.092-.092-.184-.123-.276-1.075 1.751-2.549 3.256-4.3 4.331-1.321.829-3.102 1.32-4.269.276-1.075-.983-.891-2.672-.277-3.932 1.659-3.255 5.959-4.883 9.368-3.562l.062-.215.522.092.123.184c.153.246.03.522-.154 1.014-.184.491-.491 1.32-.276 1.658.399.676 1.351 1.014 2.119.737.983-.368 1.505-1.474 1.935-2.58.86-2.15 1.659-4.576.584-6.481-.737-1.29-2.335-2.119-4.055-2.119-5.098 0-10.351 3.532-12.47 8.385-1.689 3.87-1.29 7.065 1.259 9.798 1.321 1.383 3.133 1.966 5.406 1.751 5.498-.583 11.918-5.744 13.423-8.262l.675.399c-1.627 2.703-8.17 8.017-14.006 8.631-.368.092-.737.123-1.075.123zm3.41-12.778c-2.488 0-4.976 1.352-6.113 3.594-.491.983-.675 2.304.092 2.979.83.768 2.273.308 3.318-.337 2.211-1.383 3.931-3.441 4.945-5.836-.737-.277-1.474-.4-2.242-.4z" fill="#fff"/><path d="m237.387 87.9343c-4.853-1.4129-13.3 2.5494-18.491 1.4436-2.764-.5836-6.112-1.5358-8.6-2.2729-2.335 2.0886-4.485 4.423-6.635 6.6959 13.638 7.0341 27.398 1.9658 29.61 2.0272 2.764.0615 2.61-1.6586 2.365-2.0272 0 0 2.733-1.1979 1.505-3.0408-.031 0 2.365-2.2115.246-2.8258z" fill="#ffd939"/><path d="m219.787 89.8078c-2.642 0-5.314-.43-7.894-1.29l.246-.7679c3.041 1.0136 6.296 1.4436 9.399 1.1979l.061.7986c-.583.0614-1.198.0614-1.812.0614z" fill="#e04136"/><path d="m209.682 87.2275c-2.519-1.0136-5.437-.43-7.341 1.5665-1.26 1.3207-2.181 2.8565-2.304 4.208-.276 2.5801 4.239 2.1501 4.239 2.1501l7.249-7.1567z" fill="#03036d"/><path d="m234.96 93.9852c-1.014-.6144-2.365-.6451-3.41-.0615l-.368-.7064c1.29-.7065 2.918-.645 4.177.0921z" fill="#e04136"/><path d="m236.772 91.0673c-1.351-.7065-3.041-.7065-4.423-.0307l-.369-.7065c1.598-.8293 3.563-.7986 5.161.0307z" fill="#e04136"/><path d="m75.9859 229.284c-4.3447 0-8.379-.698-12.0255-2.094-2.793-1.087-5.3145-2.6-7.4869-4.423-15.3228 4.733-33.4387.815-44.6883-10.745-14.15913-14.586-15.7884-39.723-3.6465-56.055l.81463.621c-11.87035 15.944-10.27988 40.499 3.53007 54.736 10.8618 11.172 28.2406 15.012 43.0979 10.667-3.53-3.297-6.0127-7.448-6.8274-11.831-1.5516-8.224 3.181-16.952 10.5127-19.435 3.8404-1.319 8.4954-.582 12.2195 1.862 3.3749 2.25 5.4308 5.625 5.6636 9.194.5043 7.719-6.4395 13.461-9.4265 15.555-3.1033 2.173-6.517 3.88-10.0859 5.082 1.9784 1.591 4.2671 2.91 6.711 3.879 6.4783 2.483 14.3143 2.716 22.6934.621 7.5256-1.862 14.6633-5.314 21.5683-8.612l.427.892c-6.944 3.337-14.1206 6.789-21.7626 8.69-3.918.892-7.7196 1.396-11.2885 1.396zm-12.7238-38.249c-1.2801 0-2.5214.194-3.6852.582-6.8662 2.328-11.2885 10.552-9.8144 18.31.8147 4.345 3.3361 8.496 6.9438 11.677 3.6852-1.203 7.2153-2.91 10.3963-5.16 2.8706-2.017 9.4652-7.448 8.9997-14.663-.194-3.259-2.1336-6.323-5.2369-8.418-2.2887-1.513-5.0042-2.328-7.6033-2.328z" fill="#fe7eb2"/><path d="m257.881 139.054c-10.474 0-20.986-4.888-27.193-13.461l.815-.582c8.534 11.871 25.641 16.409 38.947 10.358l.427.931c-4.074 1.862-8.535 2.754-12.996 2.754z" fill="#fe7eb2"/><path d="m54.8178 118.224c-1.2593-1.382-2.7337-2.672-4.5459-3.133s-3.993.123-4.9144 1.751c-.9215 1.628.1229 4.147 1.9965 4.239-5.0988-4.055-10.8425-7.28-16.9856-9.461-3.5015-1.259-8.0781-1.873-10.3203 1.075-1.5665 2.058-1.1672 5.13.2764 7.311 1.4436 2.18 3.6859 3.624 5.8974 5.006s4.5151 2.765 6.0509 4.853c-1.3515-.921-2.8258-1.873-4.4538-1.751-1.6279.123-3.1329 1.966-2.2729 3.379.6758 1.075 2.1808 1.167 3.4401 1.106 8.6003-.338 17.5385-.031 26.0773-1.044 8.6617-1.014 3.5323-9.184-.2457-13.331z" fill="#ffcce8"/><path d="m112.383 183.096c-.891-3.133-2.304-6.266-1.874-9.46.676-5.099 6.02-8.815 11.15-8.692 21.009.522 27.429 13.791 27.429 13.791s-6.604 1.965-10.413 3.655c2.826 4.392 5.682 12.624 3.379 17.292-2.304 4.669-7.188 8.017-12.378 8.447-4.393.369-14.037-1.443-16.372-5.897-1.198-2.304.062-5.375.246-7.771.276-3.778-.092-7.679-1.167-11.365z" fill="#3ca184"/><path d="m138.675 182.42c.092-.03.215-.092.307-.122-.829-.154-1.658-.338-2.487-.553-4.638 3.624-10.904 5.406-15.819 1.443-3.809-3.071-4.822-8.784-3.01-13.177-.829-1.044-1.597-2.18-2.273-3.348-2.58 1.536-4.546 4.024-4.914 6.973-.43 3.225.983 6.358 1.873 9.46 1.075 3.686 1.444 7.556 1.167 11.365-.184 2.396-1.443 5.498-.245 7.771 2.365 4.453 11.979 6.266 16.371 5.897 5.191-.43 10.075-3.778 12.378-8.447 2.365-4.638-.522-12.869-3.348-17.262z" fill="#2c8469"/><path d="m140.365 192.587c-2.028.307-4.055.768-6.113.86-1.72.092-3.501-.768-3.778-2.672-.368-2.426-2.58-4.3-5.098-3.993-3.318.399-3.348 3.594-3.256 6.235.061 1.321-.369 3.072-1.874 3.533-2.15.675-4.269 1.197-6.45 1.72-.307.061-.614.092-.891.092-.184 1.382-.215 2.733.399 3.901 2.366 4.453 11.979 6.265 16.372 5.897 5.191-.43 10.074-3.778 12.378-8.447 1.014-2.027 1.014-4.73.522-7.494-.737.123-1.474.245-2.211.368z" fill="#0000ef"/><path d="m121.72 177.076c.983 1.536 2.98 2.365 4.761 1.966 1.782-.4 3.225-2.028 3.41-3.84.184-1.812-.922-3.716-2.58-4.423-3.87-1.72-7.925 2.611-5.591 6.297z" fill="#fff"/><path d="m127.403 178.673c1.321-.676 2.334-1.996 2.488-3.501.184-1.813-.922-3.717-2.58-4.423-.707-.307-1.382-.4-2.058-.369.706 2.764 1.413 5.56 2.15 8.293z" fill="#0000ef"/><path d="m124.393 171.67c1.075-.215 2.18-.43 3.255-.645.768-.154 1.536-.307 2.212-.706.676-.4 1.259-1.045 1.29-1.843.092-1.106-.86-2.058-1.935-2.365-1.567-.43-3.348.061-4.884.368-1.044.184-2.303.399-3.102 1.198-.737.737-.768 1.781-.338 2.734.737 1.474 2.058 1.535 3.502 1.259z" fill="#03036d"/><path d="m130.597 196.887c-.645-1.781-1.229-3.563-1.689-5.406-.369-1.412-1.597-2.487-3.164-2.242-1.351.246-2.887.922-2.058 3.84.645 2.273 1.137 3.87 1.935 6.081.492 1.382 2.365 1.935 3.625 1.352 1.443-.645 1.843-2.212 1.351-3.625z" fill="#3ca184"/><path d="m137.569 184.263c-1.075-1.013-1.658-2.457-1.628-3.931.031-1.444.738-2.888 1.843-3.84l.522.615c-.952.798-1.535 2.027-1.566 3.255-.031 1.229.491 2.488 1.382 3.318z" fill="#2c8469"/><path d="m151.975 179.932c.86-2.948 1.904-5.037 4.208-5.928 2.303-.89 2.395.737 1.197 1.72-1.197.983-2.272 2.273-2.272 2.273z" fill="#2c8469"/><path d="m147.306 196.795c7.556-14.621.922-16.894 8.478-19.904 5.805-2.303 3.655 2.243 3.655 2.243s2.948 1.197.737 3.44c0 0 1.689 1.873-.891 3.501-2.58 1.597-.737 3.993-4.177 9.706-3.502 5.683-7.802 1.014-7.802 1.014z" fill="#2c8469"/><path d="m161.466 171.516c5.959.092 13.269-2.242 13.392-1.566.154.952 4.546 13.883-4.116 15.142-8.662 1.229-8.723-6.05-8.999-7.555-.277-1.506-.922-6.051-.277-6.021z" fill="#0000ef"/><path d="m161.22 172.038c-.153 1.229.277 4.301.492 5.498.276 1.506.368 8.785 8.999 7.556 1.936-.276 3.195-1.136 4.024-2.303-5.436-1.413-10.566-5.775-13.515-10.751z" fill="#0000d8"/><path d="m162.141 184.294c-.86 0-1.72-.092-2.58-.307-2.058-.553-4.361-2.212-4.791-4.7-.4-2.211.921-4.668 3.041-5.743 1.965-.983 4.545-.799 6.542.46l-.43.676c-1.782-1.106-4.054-1.259-5.775-.399-1.812.921-2.948 3.01-2.61 4.883.368 2.151 2.395 3.594 4.208 4.086 2.15.583 4.453.184 6.388-.246l.185.768c-1.198.246-2.673.522-4.178.522z" fill="#0000ef"/><path d="m160.145 182.574-4.054-5.13c-2.365 1.567-2.58 3.717-1.782 4.546.522.553 1.137.246 1.69-.154-.584.523-1.014 1.229 0 1.874 1.474.952 4.576 1.382 4.638.737.061-.645-.492-1.873-.492-1.873z" fill="#2c8469"/><path d="m154.862 182.727c-.184 0-.369-.03-.553-.092-.676-.215-1.198-.86-1.229-1.566-.061-.707.738-2.027 3.103-3.594l.43.676c-2.304 1.536-2.765 2.611-2.734 2.887.031.369.307.737.676.86.491.154 1.075-.092 1.443-.307.922-.461 1.782-1.106 2.488-1.843l.584.553c-.799.829-1.689 1.505-2.703 2.027-.399.184-.952.399-1.505.399z" fill="#f3cf14"/><path d="m155.845 185.062c-.215 0-.399-.031-.583-.093-.43-.122-.799-.43-1.014-.829-.184-.338-.215-.706-.123-1.013l.768.245c-.061.154 0 .307.062.4.122.215.307.368.522.43.368.122.86.03 1.443-.215.83-.369 1.536-.953 2.12-1.628l.614.491c-.645.799-1.474 1.444-2.396 1.874-.553.215-1.013.338-1.413.338z" fill="#f3cf14"/><path d="m157.964 187.028c-.461-.031-.952-.062-1.413-.277-.491-.246-.952-.768-.89-1.444l.798.093c-.031.245.215.522.43.614.307.154.737.184 1.106.215z" fill="#f3cf14"/><path d="m174.827 169.95c-.307-1.29-5.007-.492-8.048.061-3.04.553-5.098 1.106-5.344 1.475-.246.368.522 2.119 5.682 1.075 5.191-1.045 7.986-1.413 7.71-2.611z" fill="#0000ef"/><path d="m173.875 171.455c.215-1.935-3.962-1.198-6.665-.676-2.734.522-4.608 1.106-4.945 1.628-.338.553-.338 3.102 4.33 2.089 4.669-1.014 7.096-1.259 7.28-3.041z" fill="#fe673c"/><path d="m171.971 173.237c1.167-.4 1.812-.922 1.904-1.782.215-1.935-3.962-1.198-6.665-.676-.123.031-.215.031-.307.062 1.781.553 3.501 1.32 5.068 2.396z" fill="#e04136"/><path d="m110.08 233.562c31.637-14.56 41.957-26.108 48.284-18.338 6.328 7.771-18.337 21.44-20.61 26.508-2.303 5.068-4.269 24.541-31.176 26.691-26.9061 2.15-15.0807-28.749-15.0807-28.749z" fill="#ffb0d8"/><path d="m197.895 185.308c-27.183 20.272-74.178 62.598-76.789 64.379-2.61 1.781-11.978-15.757-18.736-25.77-6.7265-10.044 95.525-38.609 95.525-38.609z" fill="#3db5c9"/><path d="m166.442 199.529c-1.413-1.935-9.982 1.167-13.422 2.396-19.412 6.941-38.364 12.931-54.8578 25.278-1.6586 1.229-3.2558 2.488-4.8223 3.809-2.7336 2.027-43.4928 26.477-52.7074 38.763-3.4709 4.607-2.6415 19.688 15.2348 26.784 44.4147 17.569 53.0757-18 64.7787-26.201 23.405 8.846 27.981-14.681 27.981-14.681s6.819-5.498 7.004-14.437c.184-9.614-4.7-18.06-24.911-15.357 6.205-4.7 23.283-10.474 30.439-13.546 2.611-1.167 9.921-6.45 5.283-12.808z" fill="#fe7eb2"/><path d="m126.635 262.28c-.552.86-1.566 2.703-2.211 3.502-2.212 2.734-4.669 5.191-3.747 4.546 13.484 5.099 20.732-.553 24.418-6.266-6.45 1.351-13.361 1.013-18.46-1.782z" fill="#e56ea4"/><path d="m49.2636 271.464c10.7196-2.027 21.1014-5.59 30.6846-10.812 16.8319-9.153 27.9198-24.357 32.7118-42.54-5.007 2.641-9.829 5.59-14.4977 9.061-1.6586 1.228-3.2558 2.488-4.8223 3.809-2.7336 2.027-43.4928 26.476-52.7074 38.762-.5529.737-1.0136 1.782-1.2901 2.98 3.3173-.246 6.6345-.645 9.9211-1.26z" fill="#e56ea4"/><path d="m82.3437 208.744c-10.6275 14.221-18.7363 30.623-20.7942 34.063-2.703 4.484 5.8051-.123 25.7087-7.925 19.9038-7.801 111.1898-48.069 113.0628-49.82 1.874-1.751-8.078-2.242-27.551 3.072-19.474 5.313-87.5698 16.832-90.4263 20.61z" fill="#a8e4f4"/><path d="m116.253 212.307c-14.159 2.979-29.2713 12.992-43.9839 11.549-5.4673 9.03-9.3682 16.739-10.7196 18.951-2.703 4.484 5.8051-.123 25.7087-7.925 9.2453-3.624 33.9098-14.252 57.8368-24.787-9.522-1.628-20.825.522-28.842 2.212z" fill="#d2f1fc"/><g fill="#e04136"><path d="m121.813 269.56-.491-.645c2.58-1.935 4.576-4.7 5.651-7.71l.738.277c-1.106 3.163-3.226 6.02-5.898 8.078z"/><path d="m135.911 263.847c-2.764 0-5.836-.614-8.692-1.812l.307-.738c3.409 1.413 7.126 1.997 10.197 1.628l.093.799c-.615.061-1.26.123-1.905.123z"/><path d="m149.119 254.694-.768-.215c.83-2.888-.245-7.034-2.273-8.724-2.242-1.873-15.572-2.518-18.828-2.211l-.092-.799c3.01-.276 16.832.215 19.412 2.396 2.273 1.874 3.471 6.328 2.549 9.553z"/><path d="m118.368 242.267-.361.712 3.039 1.544.362-.711z"/><path d="m119.624 227.263-.237.763 3.344 1.038.237-.763z"/><path d="m161.681 208.774c-1.597 0-3.163-.676-4.208-1.873l.615-.523c1.29 1.475 3.655 2.028 5.467 1.229s3.01-2.887 2.795-4.853l.799-.092c.245 2.334-1.137 4.699-3.287 5.651-.706.308-1.443.461-2.181.461z"/></g><path d="m349.85 54.0504c25.125 3.1023 39.868-8.846 46.626-11.5182 8.262-3.2866 14.129-6.3888 13.975-4.1466-.153 2.4265-4.976 4.5766-4.976 4.5766s2.242 5.1602-3.225 7.1259c0 0-16.402 15.0505-31.452 17.4156-15.051 2.3651-22.914-2.1501-22.975-3.2558-.062-1.075 2.027-10.1975 2.027-10.1975z" fill="#53caf1"/><path d="m395.709 52.9451-.123-.7986c1.044-.1843 1.658-1.2286 2.395-2.5494.738-1.29 1.598-2.7644 3.103-3.993 1.751-1.3822 2.273-2.8872 1.935-3.4094-.246-.3993-1.26-.4914-3.287.5836-.583.3072-1.044.6758-1.474 1.0136-.676.5222-1.382 1.0751-2.488 1.3515l-.184-.7679c.921-.2457 1.505-.6757 2.18-1.2286.461-.3686.953-.7372 1.598-1.075 2.918-1.5358 3.962-.8601 4.331-.3072.675 1.0751-.215 2.9794-2.12 4.4537-1.413 1.1058-2.211 2.5187-2.918 3.7473-.798 1.4743-1.505 2.7337-2.948 2.9794z" fill="#ffd939"/><path d="m403.971 49.1978-.645-.4607c.737-1.0136.707-2.3651.369-3.2865-.185-.5222-.492-.8601-.768-.9215l.153-.7679c.553.1229 1.045.6451 1.352 1.4129.43 1.1058.461 2.7644-.461 4.0237z" fill="#ffd939"/><path d="m401.729 50.7025-.553-.5835c.522-.4915.215-2.6416-.338-3.3173l.614-.5222c.676.7986 1.26 3.4709.277 4.423z" fill="#ffd939"/><path d="m257.52 107.618c20.763 8.969 42.694 13.423 42.694 13.423l-20.272-24.4803-16.372 4.9453z" fill="#48c6d3"/><path d="m268.946 94.9017c-7.311 4.9759-25.617 21.1633-25.371 22.2993.645 2.979 22.115-14.436 32.312-18.2756 9.614-3.6244 169.702-54.1203 169.702-54.1203-41.465 4.3922-169.333 45.1207-176.643 50.0966z" fill="#d2f1fc"/><path d="m352.183 53.7438c1.935 2.3958 4.761 4.1772 7.771 4.8223 2.027-3.2866 5.621-9.4911 7.617-12.8083-4.085-.86-11.733 1.2286-17.262.5221-.368 2.5801.031 5.1909 1.874 7.4639z" fill="#25acba"/><path d="m352.306 45.6959c-8.109-1.1058-16.033-1.9044-16.033-1.9044-25.863 16.3713-41.005 51.1102-41.005 51.1102l57.376-10.7196s9.03-23.2207 14.19-33.4182c-7.31-.3379-11.917-.3686-14.528-5.068z" fill="#03036d"/><path d="m357.067 47.0164c16.002.1228 28.135-2.6723 31.637-4.9452 4.945-3.1637 4.423-9.6139 1.228-13.8219-1.628-2.1193-5.221-4.3001-14.252-2.2422 1.72-7.4638-3.163-15.5419-10.228-18.52131-7.064-3.0101-15.511-1.4129-21.838 2.94871-15.665 10.8425 9.245 36.5512 13.453 36.5819z" fill="#53caf1"/><path d="m353.412 39.8904c-3.133-6.2045-2.887-15.4805.46-21.5314 1.782-3.2251 4.639-5.1602 8.079-6.3273 2.426-.8294 5.129-1.1365 7.433-2.21155-1.198-.95217-2.488-1.72005-3.87-2.33436-7.034-3.0101-15.512-1.4129-21.839 2.94871-15.695 10.8117-22.944 33.3568.092 35.814 5.59.5836 10.935.7986 15.849.7679-2.611-1.8737-4.761-4.2695-6.204-7.126z" fill="#3db5c9"/><path d="m344.259 31.444c6.02-3.8087 7.31-8.9689 7.74-15.6341.123-1.8429 1.413-3.1636 3.286-3.2865 4.884-.2764 9.276-1.1979 13.392-3.1944-1.013-.70645-2.058-1.35147-3.194-1.8122-7.034-3.0101-15.511-1.41291-21.839 2.9487-7.74 5.3444-13.422 13.5147-14.436 20.7328 4.853 2.4572 9.89 3.5015 15.051.2457z" fill="#e04136"/><path d="m360.937 26.6524c1.229 1.3208 3.256 1.7815 4.976 1.2593 2.273-.6757 3.932-3.1022 3.717-5.4673s-2.273-4.4844-4.638-4.6994c-2.089-.1843-4.577 1.2593-5.283 3.2865-.553 1.6279.122 4.4537 1.228 5.6209z" fill="#fff"/><path d="m365.514 17.8677c.184 3.3479.245 6.7266.338 10.0746.03 0 .061 0 .061-.0307 2.273-.6758 3.932-3.1023 3.717-5.4673-.185-2.1808-1.966-4.1159-4.116-4.5766z" fill="#03036d"/><path d="m370.274 34.6076c-.952-.1843-1.996-.3686-2.918 0-1.474.5836-2.15 2.4572-1.689 3.9622.461 1.5051 1.812 2.6108 3.286 3.1637 1.475.5529 3.103.6143 4.669.645 1.843.0308 3.747-.0307 5.406-.7986 2.212-1.0136 4.27-3.9622 1.321-5.0987-2.979-1.1672-6.911-1.29-10.075-1.8736z" fill="#e04136"/><path d="m376.479 39.3684c-2.335-.5222-7.894-1.1979-9.676.9829.615.6143 1.383 1.075 2.181 1.3822 1.475.5528 3.103.6143 4.669.645 1.843.0307 3.747-.0307 5.406-.7986.553-.2457 1.106-.6143 1.566-1.075-1.505-.4915-2.979-.8601-4.146-1.1365z" fill="#fe7eb2"/><path d="m359.647 19.5263c.492.1843 1.044.1535 1.567.0921 2.303-.1843 4.607-.3378 6.88-.5221.553-.0308 1.167-.0922 1.597-.4915.707-.645.522-1.7815.276-2.7029-.245-.9829-.583-2.058-1.474-2.5187-.645-.3686-1.443-.2764-2.181-.215-1.505.1536-3.04.3072-4.545.4915-.953.0921-2.151.2457-2.888.9214-1.32 1.1979-.89 4.3002.768 4.9452z" fill="#e04136"/><path d="m374.053 6.13446c.891-.92146 1.689-2.15007 1.474-3.4094-.276-1.812198-2.426-2.7950871-4.239-2.457219-1.781.337868-3.255 1.566479-4.638 2.733659.553-1.13647-.399-2.549367-1.597-2.887235-1.198-.337869-2.488.122859-3.563.737165-2.273 1.32076-4.054 3.44011-4.976 5.89733-.338.92146-.522 2.08865.154 2.7951.399.43001 1.044.58354 1.628.67574 5.529.9522 11.672.0921 15.757-4.08514z" fill="#e04136"/><path d="m293.211 124.542c23.528 10.351 34.924 26.876 38.149 28.596s35.23-37.135 51.602-51.633c12.654-11.2106 56.055-51.6934 56.055-51.6934z" fill="#25acba"/><path d="m372.978 103.379c-2.887 4.546-4.975 9.522-6.542 14.651 6.082-6.481 11.918-12.47 16.525-16.555 3.409-3.0411 9.092-8.2013 15.542-14.1294-9.798-.6143-20.887 8.7846-25.525 16.0334z" fill="#53caf1"/><path d="m445.589 44.8358c-3.778-2.2115-152.993 41.6192-169.702 54.1203-1.72 1.2899-3.348 13.5759-5.743 26.8149-1.352 7.556-2.98 15.388-3.686 20.732 5.559-1.873 11.334-3.102 17.139-4.085 9.767-7.525 22.545-17.845 36.09-27.091 24.849-16.9852 129.68-68.2797 125.902-70.4912z" fill="#a8e4f4"/><path d="m320.793 80.7727c-.184.8601-.368 1.7508-.46 2.6416-.492 3.5937-.123 7.5252 2.825 10.0131 3.809 3.1944 8.171 4.1466 13.792 2.1808 9.982-3.4708 7.832-8.631 38.793-19.3506 7.402-2.5801.43-6.6038 2.764-13.7912-19.32 5.7745-39.96 12.2861-57.714 18.3063z" fill="#d2f1fc"/><path d="m283.597 142.449c-4.791-4.054-20.548-4.822-20.303-3.287.246 1.506 3.164 7.372 3.164 7.372z" fill="#d2f1fc"/><path d="m382.04 64.8313c-2.028-1.3207-13.607.8908-16.587 1.3208-2.979.43-6.788-.9829-11.917-3.4094-4.608 0-8.539 1.3514-11.396 6.6038 16.494 9.8289 27.03 6.9416 31.545 6.573 5.836-.4914 6.911-1.1979 6.788-3.3479 0 0 3.686-1.1365 1.321-4.208 0 0 2.273-2.2115.246-3.5323z" fill="#53caf1"/><path d="m379.828 72.6944c-2.058-.7679-4.454-.7679-6.542 0l-.277-.7372c2.242-.8293 4.823-.8293 7.096 0z" fill="#ffd939"/><path d="m381.886 68.732c-2.334-.9215-4.208-1.0443-6.235-.3379l-.246-.7679c2.212-.7371 4.239-.645 6.788.3686z" fill="#ffd939"/><path d="m376.142 62.5274c.4-.3072.86-.6143 1.352-.7372.491-.1228 1.105 0 1.413.3993.276.3686.307.8601.153 1.2901-.153.43-.461.7986-.768 1.1057-.86.8293-5.713 3.4708-6.911 2.488-1.597-1.3208 3.871-3.8702 4.761-4.5459z" fill="#53caf1"/><path d="m375.897 65.1383-.338-.7371c.676-.3072 2.334-.5836 3.041-.5529l-.031.7986c-.584 0-2.119.2457-2.672.4914z" fill="#ffd939"/><path d="m338.946 73.8-.123-.1536c-2.641-2.918-4.945-6.1124-6.88-9.5218l.707-.3993c1.873 3.3173 4.115 6.4195 6.634 9.2453.952-.1228 2.734-.86 3.962-1.6279l.43.6758c-1.29.7986-3.409 1.6893-4.515 1.7507z" fill="#a8e4f4"/><path d="m354.734 62.2204c-3.256-1.7814-6.235-4.0544-8.816-6.7266l.584-.5529c2.549 2.6108 5.437 4.8223 8.631 6.5731z" fill="#a8e4f4"/><path d="m151.549 97.4018c-4.331-6.4195-9.061-6.8188-12.778-5.068-.86.3993-1.781 1.2286-1.505 2.1194-6.512-7.2796-17.201-5.1909-21.562-1.2286-1.843 1.6586-2.795 3.6858-3.164 5.3444-.276 1.2901.246 2.642 1.106 3.624.86.983 2.058 1.598 3.286 2.058 3.441 1.29 7.219 1.29 10.874.983 6.419-.553 14.344-1.413 20.364-3.747 7.095 6.266 10.443 10.197 11.457 10.167.645 0-1.29-4.178-8.078-14.2522z" fill="#ffcce8"/><path d="m74.9141 64.0756c-4.3616.3686-8.7232 1.2593-12.5933 3.3479-3.8394 2.058-7.1567 5.4059-8.5081 9.5525-2.2422 6.9109 1.3514 14.7126 7.0645 19.1663 5.713 4.4537 13.0847 6.2047 20.3028 7.0957 8.9382 1.105 18.0299 1.044 26.937-.093 4.945-.645 22.023-1.689 21.808-8.4463-.184-5.6516-8.631-13.0233-12.593-16.4327-5.529-4.7608-11.948-8.5081-18.8286-10.996-7.4945-2.703-15.6033-3.8702-23.5893-3.1944z" fill="#ffcce8"/><path d="m79.951 77.7133c-2.9179.0307-5.8973.3379-8.4467 1.7201s-4.5766 4.0544-4.5151 6.9723c.0614 2.703 1.935 5.0988 4.208 6.5424 2.2729 1.4436 4.9451 2.0886 7.5866 2.7337 6.911 1.6893 13.8526 3.3479 20.7636 5.0372 4.0236.983 9.0606 1.628 11.6106-1.6278 1.536-1.9658 1.536-4.8223.614-7.1567-4.239-10.7811-21.6542-14.2826-31.821-14.2212z" fill="#ffb0d8"/></svg>