<?xml version="1.0" standalone="no"?>
<!DOCTYPE svg PUBLIC "-//W3C//DTD SVG 20010904//EN"
 "http://www.w3.org/TR/2001/REC-SVG-20010904/DTD/svg10.dtd">
<svg version="1.0" xmlns="http://www.w3.org/2000/svg"
 width="221.000000pt" height="221.000000pt" viewBox="0 0 221.000000 221.000000"
 preserveAspectRatio="xMidYMid meet">
<metadata>
Created by potrace 1.14, written by Peter Selinger 2001-2017
</metadata>
<g transform="translate(0.000000,221.000000) scale(0.100000,-0.100000)"
fill="#000000" stroke="none">
<path d="M961 2129 c-424 -84 -755 -421 -825 -842 l-12 -72 -48 -3 c-26 -2
-46 -6 -44 -11 12 -29 163 -281 168 -281 5 0 156 253 168 282 2 4 -21 8 -51 8
l-54 0 9 52 c63 346 301 610 644 714 80 25 104 27 244 27 140 0 164 -2 243
-26 312 -96 530 -313 623 -624 36 -120 42 -308 13 -433 -41 -174 -117 -315
-234 -434 -120 -122 -235 -192 -401 -242 -80 -25 -104 -27 -244 -27 -140 0
-164 2 -243 26 -48 15 -119 43 -157 62 -94 47 -129 46 -155 -4 -27 -52 21 -96
168 -155 132 -53 220 -69 372 -70 160 -1 204 5 318 40 112 36 179 67 272 129
234 155 395 400 449 685 21 110 14 332 -13 430 -70 248 -192 431 -381 575 -78
60 -86 65 -175 108 -205 99 -435 130 -654 86z"/>
<path d="M985 1509 c-42 -7 -65 -30 -65 -66 0 -27 32 -63 58 -64 131 -6 534 1
551 10 40 22 39 91 -2 112 -23 13 -474 19 -542 8z"/>
<path d="M943 1254 c-31 -31 -29 -67 4 -94 26 -20 35 -21 250 -18 209 3 223 4
237 23 20 26 20 64 0 90 -14 19 -27 20 -241 21 -224 1 -227 1 -250 -22z"/>
<path d="M940 1018 c-25 -27 -26 -59 -1 -89 l19 -23 262 0 262 0 19 23 c25 30
24 62 -1 89 -20 22 -26 22 -280 22 -254 0 -260 0 -280 -22z"/>
<path d="M961 799 c-42 -16 -53 -72 -21 -107 19 -20 31 -22 120 -22 89 0 101
2 120 22 26 28 26 70 0 93 -16 15 -38 19 -110 20 -49 0 -98 -2 -109 -6z"/>
</g>
</svg>
