<?xml version="1.0" standalone="no"?>
<!DOCTYPE svg PUBLIC "-//W3C//DTD SVG 20010904//EN"
 "http://www.w3.org/TR/2001/REC-SVG-20010904/DTD/svg10.dtd">
<svg version="1.0" xmlns="http://www.w3.org/2000/svg"
 width="92.000000pt" height="92.000000pt" viewBox="0 0 92.000000 92.000000"
 preserveAspectRatio="xMidYMid meet">
<metadata>
Created by potrace 1.14, written by Peter Selinger 2001-2017
</metadata>
<g transform="translate(0.000000,92.000000) scale(0.100000,-0.100000)"
fill="#000000" stroke="none">
<path d="M328 901 c-220 -70 -354 -280 -321 -506 46 -318 391 -491 676 -337
52 28 53 29 32 56 -14 19 -16 19 -68 -7 -78 -38 -139 -51 -215 -44 -88 8 -146
29 -207 75 -267 202 -195 612 124 706 97 29 230 13 309 -36 l35 -21 19 23 c19
23 19 23 -9 42 -94 62 -263 84 -375 49z"/>
<path d="M314 642 c-19 -18 -18 -39 4 -50 9 -5 81 -9 160 -8 115 1 145 4 152
16 12 19 12 21 1 39 -13 21 -297 24 -317 3z"/>
<path d="M309 514 c-9 -11 -10 -20 -2 -32 9 -14 33 -17 161 -20 144 -2 152 -2
162 18 23 43 1 50 -160 50 -122 0 -150 -3 -161 -16z"/>
<path d="M316 398 c-19 -11 -21 -32 -3 -50 20 -20 305 -18 317 2 13 21 12 26
-6 45 -13 13 -39 15 -154 14 -76 -1 -145 -6 -154 -11z"/>
<path d="M314 273 c-33 -34 -7 -63 56 -63 49 0 70 13 70 42 0 22 -11 27 -69
31 -27 2 -48 -2 -57 -10z"/>
</g>
</svg>
