<svg fill="#fff" viewBox="0 0 406 52" xmlns="http://www.w3.org/2000/svg"><path d="m92.1293 25.5455c0-6.1861-3.8409-9.7131-8.8544-9.7131-5.0412 0-8.8544 3.527-8.8544 9.7131 0 6.1583 3.8132 9.713 8.8544 9.713 5.0135 0 8.8544-3.527 8.8544-9.713zm-4.0533 0c0 4.0071-1.902 6.1768-4.8011 6.1768-2.9084 0-4.8012-2.1697-4.8012-6.1768s1.8928-6.1769 4.8012-6.1769c2.8991 0 4.8011 2.1698 4.8011 6.1769zm9.2247 9.4545h3.9983v-6.1307h3.36c4.349 0 6.879-2.5944 6.879-6.3707 0-3.7578-2.484-6.4077-6.777-6.4077h-7.4603zm3.9983-9.3345v-6.3061h2.696c2.308 0 3.425 1.2557 3.425 3.1392 0 1.8743-1.117 3.1669-3.407 3.1669zm15.046 9.3345h12.778v-3.2962h-8.78v-4.5149h8.088v-3.2961h-8.088v-4.5057h8.743v-3.2962h-12.741zm33.946-18.9091h-3.98v11.8921h-.166l-8.162-11.8921h-3.508v18.9091h3.998v-11.9013h.138l8.227 11.9013h3.453zm13.02 3.2962h5.789v15.6129h3.952v-15.6129h5.789v-3.2962h-15.53zm20.298 15.6129h12.778v-3.2962h-8.781v-4.5149h8.088v-3.2961h-8.088v-4.5057h8.744v-3.2962h-12.741zm18.129 0h3.998v-6.7031h2.918l3.582 6.7031h4.414l-4.017-7.3494c2.152-.9233 3.343-2.7976 3.343-5.3828 0-3.7579-2.484-6.1769-6.777-6.1769h-7.461zm3.998-9.9162v-5.7244h2.696c2.309 0 3.426 1.0248 3.426 2.9084 0 1.8742-1.117 2.816-3.407 2.816zm15.275-8.9929v18.9091h3.878v-12.3537h.157l4.893 12.2614h2.641l4.893-12.2152h.157v12.3075h3.878v-18.9091h-4.93l-5.208 12.7046h-.221l-5.208-12.7046zm36.259 5.4382h3.831c-.055-3.37-2.825-5.6967-7.035-5.6967-4.146 0-7.183 2.2898-7.165 5.7244-.009 2.7884 1.958 4.3857 5.152 5.152l2.059.5171c2.059.4985 3.204 1.0894 3.213 2.3636-.009 1.3849-1.32 2.3267-3.351 2.3267-2.078 0-3.574-.9602-3.703-2.853h-3.868c.101 4.0902 3.028 6.2046 7.617 6.2046 4.616 0 7.331-2.2067 7.34-5.6691-.009-3.1484-2.382-4.8196-5.669-5.5582l-1.699-.4063c-1.643-.3785-3.019-.9879-2.991-2.3451 0-1.2188 1.08-2.1144 3.037-2.1144 1.911 0 3.084.8679 3.232 2.3544zm20.476 13.4709 1.403-4.3118h6.823l1.404 4.3118h4.284l-6.519-18.9091h-5.151l-6.528 18.9091zm2.419-7.4325 2.327-7.1556h.147l2.327 7.1556zm15.981 7.4325h3.998v-6.7031h2.917l3.583 6.7031h4.413l-4.016-7.3494c2.151-.9233 3.342-2.7976 3.342-5.3828 0-3.7579-2.484-6.1769-6.777-6.1769h-7.46zm3.998-9.9162v-5.7244h2.696c2.308 0 3.425 1.0248 3.425 2.9084 0 1.8742-1.117 2.816-3.407 2.816zm31.958-2.3729c-.526-4.3671-3.831-6.8785-8.208-6.8785-4.995 0-8.808 3.527-8.808 9.7131 0 6.1676 3.749 9.713 8.808 9.713 4.848 0 7.774-3.2223 8.208-6.7031l-4.044-.0185c-.378 2.022-1.966 3.1854-4.099 3.1854-2.872 0-4.82-2.1328-4.82-6.1768 0-3.9333 1.921-6.1769 4.848-6.1769 2.188 0 3.767 1.2649 4.071 3.3423zm5.077 12.2891h3.998v-7.8111h8.116v7.8111h3.988v-18.9091h-3.988v7.8019h-8.116v-7.8019h-3.998zm25.606-18.9091h-3.997v18.9091h3.997zm8.916 0h-4.441l6.528 18.9091h5.152l6.518-18.9091h-4.432l-4.579 14.3665h-.176zm18.243 18.9091h12.778v-3.2962h-8.78v-4.5149h8.088v-3.2961h-8.088v-4.5057h8.743v-3.2962h-12.741z"/><path d="m5 31-4.330127-7.5h8.660257z"/><path d="m4.75899 25.1462c-.96149-.0339-1.71951-.842-1.62137-1.799.5269-5.138 2.57454-10.0174 5.90017-14.0035 3.69861-4.43316 8.76761-7.50916 14.40761-8.743017 5.6401-1.233856 11.5304-.5553717 16.7422 1.928477 5.2119 2.48385 9.4487 6.63175 12.0426 11.78974 2.5939 5.1579 3.3972 11.0325 2.2832 16.6975-1.1139 5.665-4.0817 10.7981-8.4353 14.5899-4.3537 3.7918-9.8457 6.0267-15.6099 6.3523-5.183.2928-10.321-.9731-14.7597-3.6139-.8268-.4919-1.0235-1.5823-.4773-2.3743.5461-.7921 1.628-.9849 2.4598-.5016 3.7976 2.2064 8.1704 3.2605 12.5807 3.0114 4.9918-.282 9.7479-2.2174 13.5182-5.5011 3.7703-3.2838 6.3403-7.729 7.305-12.6349s.269-9.9933-1.9773-14.4601c-2.2463-4.4667-5.9154-8.05884-10.4288-10.20985-4.5135-2.15101-9.6145-2.73858-14.4988-1.67006s-9.274 3.73234-12.477 7.57141c-2.82988 3.3919-4.5912 7.5307-5.08454 11.895-.10806.956-.90799 1.7094-1.86947 1.6756z"/><path d="m23.002 17.6315c0-.9302.754-1.6842 1.6842-1.6842h12.6315c.9302 0 1.6843.754 1.6843 1.6842 0 .9301-.7541 1.6842-1.6843 1.6842h-12.6315c-.9302 0-1.6842-.7541-1.6842-1.6842z"/><path d="m23.002 23.5262c0-.9302.754-1.6842 1.6842-1.6842h9.9255c.9302 0 1.6842.754 1.6842 1.6842s-.754 1.6842-1.6842 1.6842h-9.9255c-.9302 0-1.6842-.754-1.6842-1.6842z"/><path d="m23.002 29.421c0-.9302.754-1.6843 1.6842-1.6843h11.6315c.9302 0 1.6843.7541 1.6843 1.6843 0 .9301-.7541 1.6842-1.6843 1.6842h-11.6315c-.9302 0-1.6842-.7541-1.6842-1.6842z"/><path d="m23.002 35.3157c0-.9302.754-1.6842 1.6842-1.6842h3.6514c.9302 0 1.6843.754 1.6843 1.6842s-.7541 1.6842-1.6843 1.6842h-3.6514c-.9302 0-1.6842-.754-1.6842-1.6842z"/></svg>