<svg fill="#fff" viewBox="0 0 206 94" xmlns="http://www.w3.org/2000/svg"><path d="m92.2386 12.5455c0-6.18612-3.8409-9.71311-8.8544-9.71311-5.0412 0-8.8544 3.52699-8.8544 9.71311 0 6.1583 3.8132 9.713 8.8544 9.713 5.0135 0 8.8544-3.527 8.8544-9.713zm-4.0532 0c0 4.0071-1.902 6.1768-4.8012 6.1768-2.9083 0-4.8011-2.1697-4.8011-6.1768 0-4.00715 1.8928-6.17689 4.8011-6.17689 2.8992 0 4.8012 2.16974 4.8012 6.17689zm9.2247 9.4545h3.9979v-6.1307h3.361c4.348 0 6.878-2.5944 6.878-6.37072 0-3.75781-2.483-6.40767-6.777-6.40767h-7.4599zm3.9979-9.3345v-6.30612h2.696c2.308 0 3.425 1.25568 3.425 3.1392 0 1.87432-1.117 3.16692-3.407 3.16692zm15.046 9.3345h12.778v-3.2962h-8.78v-4.5149h8.088v-3.2961h-8.088v-4.50573h8.744v-3.29616h-12.742zm33.946-18.90909h-3.979v11.89209h-.167l-8.161-11.89209h-3.509v18.90909h3.998v-11.9013h.138l8.227 11.9013h3.453zm-76.258 37.29619h5.7891v15.6129h3.9517v-15.6129h5.7891v-3.2962h-15.5299zm20.2974 15.6129h12.7786v-3.2962h-8.7807v-4.5149h8.0877v-3.2961h-8.0877v-4.5057h8.7437v-3.2962h-12.7416zm18.1296 0h3.998v-6.7031h2.918l3.582 6.7031h4.414l-4.017-7.3494c2.151-.9233 3.343-2.7976 3.343-5.3828 0-3.7579-2.484-6.1769-6.777-6.1769h-7.461zm3.998-9.9162v-5.7244h2.696c2.308 0 3.426 1.0248 3.426 2.9084 0 1.8742-1.118 2.816-3.407 2.816zm15.275-8.9929v18.9091h3.878v-12.3537h.157l4.893 12.2614h2.641l4.893-12.2152h.157v12.3075h3.878v-18.9091h-4.93l-5.208 12.7046h-.221l-5.208-12.7046zm36.259 5.4382h3.831c-.055-3.37-2.825-5.6967-7.035-5.6967-4.146 0-7.183 2.2898-7.165 5.7244-.009 2.7884 1.957 4.3857 5.152 5.152l2.059.5171c2.059.4985 3.204 1.0894 3.213 2.3636-.009 1.3849-1.32 2.3267-3.352 2.3267-2.077 0-3.573-.9602-3.702-2.853h-3.869c.102 4.0902 3.029 6.2046 7.618 6.2046 4.616 0 7.331-2.2067 7.34-5.6691-.009-3.1484-2.382-4.8196-5.669-5.5582l-1.699-.4063c-1.644-.3785-3.019-.9879-2.992-2.3451 0-1.2188 1.081-2.1144 3.038-2.1144 1.911 0 3.084.8679 3.232 2.3544zm-89.9796 47.4709 1.4035-4.3118h6.8231l1.4034 4.3118h4.2841l-6.5185-18.9091h-5.1519l-6.5277 18.9091zm2.4191-7.4325 2.3267-7.1556h.1477l2.3267 7.1556zm15.9809 7.4325h3.9976v-6.7031h2.918l3.582 6.7031h4.414l-4.017-7.3494c2.152-.9233 3.343-2.7976 3.343-5.3828 0-3.7579-2.484-6.1769-6.777-6.1769h-7.4606zm3.9976-9.9162v-5.7244h2.696c2.309 0 3.426 1.0248 3.426 2.9084 0 1.8742-1.117 2.816-3.407 2.816zm31.959-2.3729c-.526-4.3671-3.832-6.8785-8.208-6.8785-4.995 0-8.808 3.527-8.808 9.7131 0 6.1676 3.748 9.713 8.808 9.713 4.847 0 7.774-3.2223 8.208-6.7031l-4.044-.0185c-.379 2.022-1.967 3.1854-4.1 3.1854-2.871 0-4.819-2.1328-4.819-6.1768 0-3.9333 1.92-6.1769 4.847-6.1769 2.188 0 3.767 1.2649 4.072 3.3423zm5.077 12.2891h3.998v-7.8111h8.115v7.8111h3.989v-18.9091h-3.989v7.8019h-8.115v-7.8019h-3.998zm25.606-18.9091h-3.998v18.9091h3.998zm8.915 0h-4.441l6.528 18.9091h5.152l6.519-18.9091h-4.432l-4.58 14.3665h-.175zm18.243 18.9091h12.779v-3.2962h-8.781v-4.5149h8.088v-3.2961h-8.088v-4.5057h8.744v-3.2962h-12.742z"/><path d="m5.10938 31-4.330132-7.5h8.660252z"/><path d="m4.86836 25.1462c-.96148-.0339-1.71951-.842-1.62136-1.799.5269-5.138 2.57454-10.0174 5.90017-14.0035 3.69863-4.43316 8.76763-7.50916 14.40763-8.743017 5.6401-1.233856 11.5304-.5553717 16.7422 1.928477 5.2119 2.48385 9.4487 6.63175 12.0426 11.78974 2.5938 5.1579 3.3971 11.0325 2.2832 16.6975s-4.0817 10.7981-8.4354 14.5899-9.8456 6.0267-15.6099 6.3523c-5.1829.2928-10.3209-.9731-14.7597-3.6139-.8268-.4919-1.0234-1.5823-.4773-2.3743.5462-.7921 1.628-.9849 2.4599-.5016 3.7976 2.2064 8.1703 3.2605 12.5807 3.0114 4.9918-.282 9.7478-2.2174 13.5181-5.5011 3.7703-3.2838 6.3404-7.729 7.3051-12.6349.9646-4.9059.269-9.9933-1.9773-14.4601-2.2463-4.4667-5.9154-8.05884-10.4289-10.20985-4.5134-2.15101-9.6144-2.73858-14.4987-1.67006s-9.274 3.73234-12.477 7.57141c-2.82991 3.3919-4.59123 7.5307-5.08456 11.895-.10807.956-.90799 1.7094-1.86948 1.6756z"/><path d="m23.1113 17.6315c0-.9302.7541-1.6842 1.6842-1.6842h12.6316c.9302 0 1.6842.754 1.6842 1.6842 0 .9301-.754 1.6842-1.6842 1.6842h-12.6316c-.9301 0-1.6842-.7541-1.6842-1.6842z"/><path d="m23.1113 23.5262c0-.9302.7541-1.6842 1.6842-1.6842h9.9256c.9301 0 1.6842.754 1.6842 1.6842s-.7541 1.6842-1.6842 1.6842h-9.9256c-.9301 0-1.6842-.754-1.6842-1.6842z"/><path d="m23.1113 29.421c0-.9302.7541-1.6843 1.6842-1.6843h11.6316c.9302 0 1.6842.7541 1.6842 1.6843 0 .9301-.754 1.6842-1.6842 1.6842h-11.6316c-.9301 0-1.6842-.7541-1.6842-1.6842z"/><path d="m23.1113 35.3157c0-.9302.7541-1.6842 1.6842-1.6842h3.6515c.9302 0 1.6842.754 1.6842 1.6842s-.754 1.6842-1.6842 1.6842h-3.6515c-.9301 0-1.6842-.754-1.6842-1.6842z"/></svg>