<svg aria-hidden="true" id="svgdefs" version="2" xmlns="http://www.w3.org/2000/svg">
  <defs>
    <symbol id="logo-main" viewBox="0 0 406 52">
      <path
        d="m92.1293 25.5455c0-6.1861-3.8409-9.7131-8.8544-9.7131-5.0412 0-8.8544 3.527-8.8544 9.7131 0 6.1583 3.8132 9.713 8.8544 9.713 5.0135 0 8.8544-3.527 8.8544-9.713zm-4.0533 0c0 4.0071-1.902 6.1768-4.8011 6.1768-2.9084 0-4.8012-2.1697-4.8012-6.1768s1.8928-6.1769 4.8012-6.1769c2.8991 0 4.8011 2.1698 4.8011 6.1769zm9.2247 9.4545h3.9983v-6.1307h3.36c4.349 0 6.879-2.5944 6.879-6.3707 0-3.7578-2.484-6.4077-6.777-6.4077h-7.4603zm3.9983-9.3345v-6.3061h2.696c2.308 0 3.425 1.2557 3.425 3.1392 0 1.8743-1.117 3.1669-3.407 3.1669zm15.046 9.3345h12.778v-3.2962h-8.78v-4.5149h8.088v-3.2961h-8.088v-4.5057h8.743v-3.2962h-12.741zm33.946-18.9091h-3.98v11.8921h-.166l-8.162-11.8921h-3.508v18.9091h3.998v-11.9013h.138l8.227 11.9013h3.453zm13.02 3.2962h5.789v15.6129h3.952v-15.6129h5.789v-3.2962h-15.53zm20.298 15.6129h12.778v-3.2962h-8.781v-4.5149h8.088v-3.2961h-8.088v-4.5057h8.744v-3.2962h-12.741zm18.129 0h3.998v-6.7031h2.918l3.582 6.7031h4.414l-4.017-7.3494c2.152-.9233 3.343-2.7976 3.343-5.3828 0-3.7579-2.484-6.1769-6.777-6.1769h-7.461zm3.998-9.9162v-5.7244h2.696c2.309 0 3.426 1.0248 3.426 2.9084 0 1.8742-1.117 2.816-3.407 2.816zm15.275-8.9929v18.9091h3.878v-12.3537h.157l4.893 12.2614h2.641l4.893-12.2152h.157v12.3075h3.878v-18.9091h-4.93l-5.208 12.7046h-.221l-5.208-12.7046zm36.259 5.4382h3.831c-.055-3.37-2.825-5.6967-7.035-5.6967-4.146 0-7.183 2.2898-7.165 5.7244-.009 2.7884 1.958 4.3857 5.152 5.152l2.059.5171c2.059.4985 3.204 1.0894 3.213 2.3636-.009 1.3849-1.32 2.3267-3.351 2.3267-2.078 0-3.574-.9602-3.703-2.853h-3.868c.101 4.0902 3.028 6.2046 7.617 6.2046 4.616 0 7.331-2.2067 7.34-5.6691-.009-3.1484-2.382-4.8196-5.669-5.5582l-1.699-.4063c-1.643-.3785-3.019-.9879-2.991-2.3451 0-1.2188 1.08-2.1144 3.037-2.1144 1.911 0 3.084.8679 3.232 2.3544zm20.476 13.4709 1.403-4.3118h6.823l1.404 4.3118h4.284l-6.519-18.9091h-5.151l-6.528 18.9091zm2.419-7.4325 2.327-7.1556h.147l2.327 7.1556zm15.981 7.4325h3.998v-6.7031h2.917l3.583 6.7031h4.413l-4.016-7.3494c2.151-.9233 3.342-2.7976 3.342-5.3828 0-3.7579-2.484-6.1769-6.777-6.1769h-7.46zm3.998-9.9162v-5.7244h2.696c2.308 0 3.425 1.0248 3.425 2.9084 0 1.8742-1.117 2.816-3.407 2.816zm31.958-2.3729c-.526-4.3671-3.831-6.8785-8.208-6.8785-4.995 0-8.808 3.527-8.808 9.7131 0 6.1676 3.749 9.713 8.808 9.713 4.848 0 7.774-3.2223 8.208-6.7031l-4.044-.0185c-.378 2.022-1.966 3.1854-4.099 3.1854-2.872 0-4.82-2.1328-4.82-6.1768 0-3.9333 1.921-6.1769 4.848-6.1769 2.188 0 3.767 1.2649 4.071 3.3423zm5.077 12.2891h3.998v-7.8111h8.116v7.8111h3.988v-18.9091h-3.988v7.8019h-8.116v-7.8019h-3.998zm25.606-18.9091h-3.997v18.9091h3.997zm8.916 0h-4.441l6.528 18.9091h5.152l6.518-18.9091h-4.432l-4.579 14.3665h-.176zm18.243 18.9091h12.778v-3.2962h-8.78v-4.5149h8.088v-3.2961h-8.088v-4.5057h8.743v-3.2962h-12.741z" />
      <path d="m5 31-4.330127-7.5h8.660257z" />
      <path
        d="m4.75899 25.1462c-.96149-.0339-1.71951-.842-1.62137-1.799.5269-5.138 2.57454-10.0174 5.90017-14.0035 3.69861-4.43316 8.76761-7.50916 14.40761-8.743017 5.6401-1.233856 11.5304-.5553717 16.7422 1.928477 5.2119 2.48385 9.4487 6.63175 12.0426 11.78974 2.5939 5.1579 3.3972 11.0325 2.2832 16.6975-1.1139 5.665-4.0817 10.7981-8.4353 14.5899-4.3537 3.7918-9.8457 6.0267-15.6099 6.3523-5.183.2928-10.321-.9731-14.7597-3.6139-.8268-.4919-1.0235-1.5823-.4773-2.3743.5461-.7921 1.628-.9849 2.4598-.5016 3.7976 2.2064 8.1704 3.2605 12.5807 3.0114 4.9918-.282 9.7479-2.2174 13.5182-5.5011 3.7703-3.2838 6.3403-7.729 7.305-12.6349s.269-9.9933-1.9773-14.4601c-2.2463-4.4667-5.9154-8.05884-10.4288-10.20985-4.5135-2.15101-9.6145-2.73858-14.4988-1.67006s-9.274 3.73234-12.477 7.57141c-2.82988 3.3919-4.5912 7.5307-5.08454 11.895-.10806.956-.90799 1.7094-1.86947 1.6756z" />
      <path
        d="m23.002 17.6315c0-.9302.754-1.6842 1.6842-1.6842h12.6315c.9302 0 1.6843.754 1.6843 1.6842 0 .9301-.7541 1.6842-1.6843 1.6842h-12.6315c-.9302 0-1.6842-.7541-1.6842-1.6842z" />
      <path
        d="m23.002 23.5262c0-.9302.754-1.6842 1.6842-1.6842h9.9255c.9302 0 1.6842.754 1.6842 1.6842s-.754 1.6842-1.6842 1.6842h-9.9255c-.9302 0-1.6842-.754-1.6842-1.6842z" />
      <path
        d="m23.002 29.421c0-.9302.754-1.6843 1.6842-1.6843h11.6315c.9302 0 1.6843.7541 1.6843 1.6843 0 .9301-.7541 1.6842-1.6843 1.6842h-11.6315c-.9302 0-1.6842-.7541-1.6842-1.6842z" />
      <path
        d="m23.002 35.3157c0-.9302.754-1.6842 1.6842-1.6842h3.6514c.9302 0 1.6843.754 1.6843 1.6842s-.7541 1.6842-1.6843 1.6842h-3.6514c-.9302 0-1.6842-.754-1.6842-1.6842z" />
    </symbol>
    <symbol id="logo-alternative" viewBox="0 0 206 94">
      <path
        d="m92.1293 12.5455c0-6.18612-3.8409-9.71311-8.8544-9.71311-5.0412 0-8.8544 3.52699-8.8544 9.71311 0 6.1583 3.8132 9.713 8.8544 9.713 5.0135 0 8.8544-3.527 8.8544-9.713zm-4.0533 0c0 4.0071-1.902 6.1768-4.8011 6.1768-2.9084 0-4.8012-2.1697-4.8012-6.1768 0-4.00715 1.8928-6.17689 4.8012-6.17689 2.8991 0 4.8011 2.16974 4.8011 6.17689zm9.2247 9.4545h3.9983v-6.1307h3.36c4.349 0 6.879-2.5944 6.879-6.37072 0-3.75781-2.484-6.40767-6.777-6.40767h-7.4603zm3.9983-9.3345v-6.30612h2.696c2.308 0 3.425 1.25568 3.425 3.1392 0 1.87432-1.117 3.16692-3.407 3.16692zm15.046 9.3345h12.778v-3.2962h-8.78v-4.5149h8.088v-3.2961h-8.088v-4.50573h8.743v-3.29616h-12.741zm33.946-18.90909h-3.98v11.89209h-.166l-8.162-11.89209h-3.508v18.90909h3.998v-11.9013h.138l8.227 11.9013h3.453zm-76.2583 37.29619h5.789v15.6129h3.9517v-15.6129h5.7891v-3.2962h-15.5298zm20.2973 15.6129h12.778v-3.2962h-8.7801v-4.5149h8.0881v-3.2961h-8.0881v-4.5057h8.7441v-3.2962h-12.742zm18.13 0h3.998v-6.7031h2.917l3.583 6.7031h4.413l-4.016-7.3494c2.151-.9233 3.342-2.7976 3.342-5.3828 0-3.7579-2.484-6.1769-6.777-6.1769h-7.46zm3.998-9.9162v-5.7244h2.696c2.308 0 3.425 1.0248 3.425 2.9084 0 1.8742-1.117 2.816-3.407 2.816zm15.274-8.9929v18.9091h3.878v-12.3537h.157l4.894 12.2614h2.64l4.894-12.2152h.157v12.3075h3.878v-18.9091h-4.931l-5.207 12.7046h-.222l-5.207-12.7046zm36.259 5.4382h3.832c-.055-3.37-2.825-5.6967-7.036-5.6967-4.145 0-7.183 2.2898-7.164 5.7244-.01 2.7884 1.957 4.3857 5.152 5.152l2.059.5171c2.059.4985 3.203 1.0894 3.213 2.3636-.01 1.3849-1.321 2.3267-3.352 2.3267-2.077 0-3.573-.9602-3.702-2.853h-3.869c.102 4.0902 3.028 6.2046 7.617 6.2046 4.617 0 7.331-2.2067 7.34-5.6691-.009-3.1484-2.382-4.8196-5.669-5.5582l-1.698-.4063c-1.644-.3785-3.02-.9879-2.992-2.3451 0-1.2188 1.08-2.1144 3.038-2.1144 1.911 0 3.084.8679 3.231 2.3544zm-89.9789 47.4709 1.4034-4.3118h6.8231l1.4034 4.3118h4.2841l-6.5184-18.9091h-5.152l-6.5277 18.9091zm2.419-7.4325 2.3267-7.1556h.1477l2.3267 7.1556zm15.981 7.4325h3.9979v-6.7031h2.918l3.582 6.7031h4.413l-4.016-7.3494c2.151-.9233 3.342-2.7976 3.342-5.3828 0-3.7579-2.483-6.1769-6.777-6.1769h-7.4599zm3.9979-9.9162v-5.7244h2.696c2.308 0 3.425 1.0248 3.425 2.9084 0 1.8742-1.117 2.816-3.407 2.816zm31.959-2.3729c-.527-4.3671-3.832-6.8785-8.209-6.8785-4.995 0-8.808 3.527-8.808 9.7131 0 6.1676 3.749 9.713 8.808 9.713 4.848 0 7.775-3.2223 8.209-6.7031l-4.045-.0185c-.378 2.022-1.966 3.1854-4.099 3.1854-2.871 0-4.82-2.1328-4.82-6.1768 0-3.9333 1.921-6.1769 4.848-6.1769 2.188 0 3.767 1.2649 4.071 3.3423zm5.076 12.2891h3.998v-7.8111h8.116v7.8111h3.989v-18.9091h-3.989v7.8019h-8.116v-7.8019h-3.998zm25.607-18.9091h-3.998v18.9091h3.998zm8.915 0h-4.441l6.528 18.9091h5.152l6.518-18.9091h-4.432l-4.579 14.3665h-.176zm18.243 18.9091h12.779v-3.2962h-8.781v-4.5149h8.088v-3.2961h-8.088v-4.5057h8.744v-3.2962h-12.742z" />
      <path d="m5 31-4.330127-7.5h8.660257z" />
      <path
        d="m4.75899 25.1462c-.96149-.0339-1.71951-.842-1.62137-1.799.5269-5.138 2.57454-10.0174 5.90017-14.0035 3.69861-4.43316 8.76761-7.50916 14.40761-8.743017 5.6401-1.233856 11.5304-.5553717 16.7422 1.928477 5.2119 2.48385 9.4487 6.63175 12.0426 11.78974 2.5939 5.1579 3.3972 11.0325 2.2832 16.6975-1.1139 5.665-4.0817 10.7981-8.4353 14.5899-4.3537 3.7918-9.8457 6.0267-15.6099 6.3523-5.183.2928-10.321-.9731-14.7597-3.6139-.8268-.4919-1.0235-1.5823-.4773-2.3743.5461-.7921 1.628-.9849 2.4598-.5016 3.7976 2.2064 8.1704 3.2605 12.5807 3.0114 4.9918-.282 9.7479-2.2174 13.5182-5.5011 3.7703-3.2838 6.3403-7.729 7.305-12.6349s.269-9.9933-1.9773-14.4601c-2.2463-4.4667-5.9154-8.05884-10.4288-10.20985-4.5135-2.15101-9.6145-2.73858-14.4988-1.67006s-9.274 3.73234-12.477 7.57141c-2.82988 3.3919-4.5912 7.5307-5.08454 11.895-.10806.956-.90799 1.7094-1.86947 1.6756z" />
      <path
        d="m23.002 17.6315c0-.9302.754-1.6842 1.6842-1.6842h12.6315c.9302 0 1.6843.754 1.6843 1.6842 0 .9301-.7541 1.6842-1.6843 1.6842h-12.6315c-.9302 0-1.6842-.7541-1.6842-1.6842z" />
      <path
        d="m23.002 23.5262c0-.9302.754-1.6842 1.6842-1.6842h9.9255c.9302 0 1.6842.754 1.6842 1.6842s-.754 1.6842-1.6842 1.6842h-9.9255c-.9302 0-1.6842-.754-1.6842-1.6842z" />
      <path
        d="m23.002 29.421c0-.9302.754-1.6843 1.6842-1.6843h11.6315c.9302 0 1.6843.7541 1.6843 1.6843 0 .9301-.7541 1.6842-1.6843 1.6842h-11.6315c-.9302 0-1.6842-.7541-1.6842-1.6842z" />
      <path
        d="m23.002 35.3157c0-.9302.754-1.6842 1.6842-1.6842h3.6514c.9302 0 1.6843.754 1.6843 1.6842s-.7541 1.6842-1.6843 1.6842h-3.6514c-.9302 0-1.6842-.754-1.6842-1.6842z" />
    </symbol>
    <symbol id="mastodon" fill="var(--svgfill)" viewBox="0 0 24 24">
      <path
        d="M23.268 5.313c-.35-2.578-2.617-4.61-5.304-5.004C17.51.242 15.792 0 11.813 0h-.03c-3.98 0-4.835.242-5.288.309C3.882.692 1.496 2.518.917 5.127.64 6.412.61 7.837.661 9.143c.074 1.874.088 3.745.26 5.611.118 1.24.325 2.47.62 3.68.55 2.237 2.777 4.098 4.96 4.857 2.336.792 4.849.923 7.256.38.265-.061.527-.132.786-.213.585-.184 1.27-.39 1.774-.753a.057.057 0 0 0 .023-.043v-1.809a.052.052 0 0 0-.02-.041.053.053 0 0 0-.046-.01 20.282 20.282 0 0 1-4.709.545c-2.73 0-3.463-1.284-3.674-1.818a5.593 5.593 0 0 1-.319-1.433.053.053 0 0 1 .066-.054c1.517.363 3.072.546 4.632.546.376 0 .75 0 1.125-.01 1.57-.044 3.224-.124 4.768-.422.038-.008.077-.015.11-.024 2.435-.464 4.753-1.92 4.989-5.604.008-.145.03-1.52.03-1.67.002-.512.167-3.63-.024-5.545zm-3.748 9.195h-2.561V8.29c0-1.309-.55-1.976-1.67-1.976-1.23 0-1.846.79-1.846 2.35v3.403h-2.546V8.663c0-1.56-.617-2.35-1.848-2.35-1.112 0-1.668.668-1.67 1.977v6.218H4.822V8.102c0-1.31.337-2.35 1.011-3.12.696-.77 1.608-1.164 2.74-1.164 1.311 0 2.302.5 2.962 1.498l.638 1.06.638-1.06c.66-.999 1.65-1.498 2.96-1.498 1.13 0 2.043.395 2.74 1.164.675.77 1.012 1.81 1.012 3.12z" />
    </symbol>
  </defs>
</svg>
