<?xml version="1.0" standalone="no"?>
<!DOCTYPE svg PUBLIC "-//W3C//DTD SVG 20010904//EN"
 "http://www.w3.org/TR/2001/REC-SVG-20010904/DTD/svg10.dtd">
<svg version="1.0" xmlns="http://www.w3.org/2000/svg"
 width="140.000000pt" height="140.000000pt" viewBox="0 0 140.000000 140.000000"
 preserveAspectRatio="xMidYMid meet">
<metadata>
Created by potrace 1.14, written by Peter Selinger 2001-2017
</metadata>
<g transform="translate(0.000000,140.000000) scale(0.100000,-0.100000)"
fill="#000000" stroke="none">
<path d="M0 700 l0 -700 700 0 700 0 0 700 0 700 -700 0 -700 0 0 -700z m798
450 c56 -9 144 -42 180 -68 11 -8 11 -13 1 -29 -12 -20 -13 -20 -68 8 -290
147 -632 -102 -580 -423 44 -272 337 -422 581 -298 58 29 58 29 69 8 13 -24 9
-27 -66 -63 -213 -101 -488 -1 -593 215 -144 297 59 634 398 659 8 0 43 -4 78
-9z m97 -290 l0 -25 -153 -3 c-129 -2 -153 0 -158 13 -4 8 -4 22 0 30 5 13 29
15 158 13 l153 -3 0 -25z m-11 -96 c19 -7 21 -35 4 -52 -13 -13 -262 -18 -292
-6 -16 6 -22 45 -9 57 8 9 276 9 297 1z m11 -154 l0 -25 -153 -3 c-129 -2
-153 0 -158 13 -4 8 -4 22 0 30 5 13 29 15 158 13 l153 -3 0 -25z m-196 -104
c23 -28 2 -46 -55 -46 -56 0 -73 12 -60 45 7 20 99 21 115 1z"/>
</g>
</svg>
