<svg height="140pt" preserveAspectRatio="xMidYMid meet" viewBox="0 0 140 140" width="140pt" xmlns="http://www.w3.org/2000/svg"><path d="m0 700v-700h700 700v700 700h-700-700zm798 450c56-9 144-42 180-68 11-8 11-13 1-29-12-20-13-20-68 8-290 147-632-102-580-423 44-272 337-422 581-298 58 29 58 29 69 8 13-24 9-27-66-63-213-101-488-1-593 215-144 297 59 634 398 659 8 0 43-4 78-9zm97-290v-25l-153-3c-129-2-153 0-158 13-4 8-4 22 0 30 5 13 29 15 158 13l153-3zm-11-96c19-7 21-35 4-52-13-13-262-18-292-6-16 6-22 45-9 57 8 9 276 9 297 1zm11-154v-25l-153-3c-129-2-153 0-158 13-4 8-4 22 0 30 5 13 29 15 158 13l153-3zm-196-104c23-28 2-46-55-46-56 0-73 12-60 45 7 20 99 21 115 1z" transform="matrix(.1 0 0 -.1 0 140)"/></svg>